<svg width="120" height="120" xmlns="http://www.w3.org/2000/svg">
 <g>
  <title>background</title>
  <rect fill="none" id="canvas_background" height="122" width="122" y="-1" x="-1"/>
 </g>

 <g>
  <title>Layer 1</title>
  <g id="svg_1">
   <path id="svg_2" d="m56.5,29.9c0.2,0.3 0.9,0.5 1.3,0.3c-0.4,-0.8 -2.1,-1 -3.2,-0.8c0.1,0.6 1.3,0.2 1.9,0.5z" fill="#404045" clip-rule="evenodd" fill-rule="evenodd"/>
   <path id="svg_3" d="m56.3,33.7c1.4,-0.2 2.5,-0.8 3.7,-1.1c0.6,0 1.2,0.1 1.1,-0.7c-1.7,0.4 -4.2,0.6 -4.8,1.8z" fill="#404045" clip-rule="evenodd" fill-rule="evenodd"/>
   <path id="svg_4" d="m47.1,33.3c-0.7,-0.2 -2.2,-1 -2.5,-0.4c0.2,0.7 2.1,1.1 2.5,0.4z" fill="#404045" clip-rule="evenodd" fill-rule="evenodd"/>
   <path id="svg_5" d="m54.2,33.8c-0.9,-0.3 -3.1,-0.2 -3.9,0c0.5,0.8 3.2,0.5 3.9,0z" fill="#404045" clip-rule="evenodd" fill-rule="evenodd"/>
   <path id="svg_6" d="m63.9,41.4c-0.1,-0.2 -0.8,-0.3 -0.8,0.1c0.2,0.1 0.7,0.1 0.8,-0.1z" fill="#404045" clip-rule="evenodd" fill-rule="evenodd"/>
   <path id="svg_7" d="m38.7,42c-1.3,-0.6 -3.1,-1.2 -4.3,-1.4c0.7,0.9 2.9,1.7 4.3,1.4z" fill="#404045" clip-rule="evenodd" fill-rule="evenodd"/>
   <path id="svg_8" d="m50.5,41.1c-0.8,0.1 -1.4,-0.2 -1.7,0.2c0.8,-0.1 1.4,0.4 1.7,-0.2z" fill="#404045" clip-rule="evenodd" fill-rule="evenodd"/>
   <path id="svg_9" d="m53.1,41.3c-0.9,0.1 -1.8,-0.3 -2.3,0c1,0.1 1.7,0.3 2.3,0z" fill="#404045" clip-rule="evenodd" fill-rule="evenodd"/>
   <path id="svg_10" d="m60,42.4c0.2,-0.4 0.1,-0.1 0.6,-0.1c-0.3,-0.6 1,0.1 1.2,-0.4c-0.7,0 -1,-0.4 -1.8,-0.3c-0.2,0.3 0.1,0.5 -0.1,0.8c0,0 0.1,0 0.1,0z" fill="#404045" clip-rule="evenodd" fill-rule="evenodd"/>
   <path id="svg_11" d="m56.1,41.9c-3.2,-0.1 -7.2,-0.4 -10.4,-0.4c-0.2,0 -0.3,0.1 -0.4,0.2c3.1,0.6 7.9,0.3 10.8,0.2z" fill="#404045" clip-rule="evenodd" fill-rule="evenodd"/>
   <path id="svg_12" d="m57.3,41.9c-0.3,-0.1 -0.9,-0.3 -1,0.1c0.2,0.1 0.9,0.3 1,-0.1z" fill="#404045" clip-rule="evenodd" fill-rule="evenodd"/>
   <path id="svg_13" d="m65.6,42.5c-0.6,0 -1.1,-0.7 -1.8,-0.3c0.4,0.1 1.2,0.5 1.8,0.3z" fill="#404045" clip-rule="evenodd" fill-rule="evenodd"/>
   <path id="svg_14" d="m58.1,42.4c0.2,0 0.3,0 0.5,0c0,-0.2 0,-0.3 0,-0.5c-0.2,0.1 -0.6,-0.1 -0.6,0.1c0.2,0.1 0.2,0.2 0.1,0.4z" fill="#404045" clip-rule="evenodd" fill-rule="evenodd"/>
   <path id="svg_15" d="m54.8,42.5c0.3,-0.1 0.8,0.2 0.9,-0.1c-0.2,-0.2 -0.7,-0.1 -0.9,0.1z" fill="#404045" clip-rule="evenodd" fill-rule="evenodd"/>
   <path id="svg_16" d="m53.8,42.6c0.4,0 0.7,0 0.8,-0.2c-0.3,0 -0.8,-0.2 -0.8,0.2z" fill="#404045" clip-rule="evenodd" fill-rule="evenodd"/>
   <path id="svg_17" d="m51.3,42.7c0.4,0 1,0.2 1,-0.2c-0.2,-0.1 -0.8,-0.2 -1,0.2z" fill="#404045" clip-rule="evenodd" fill-rule="evenodd"/>
   <path id="svg_18" d="m51.1,42.6c-1.4,0 -2.7,0 -3.8,0.3c1.4,0 2.9,0.1 3.8,-0.3z" fill="#404045" clip-rule="evenodd" fill-rule="evenodd"/>
   <path id="svg_19" d="m34.9,42.7c1.1,0.5 2.9,1.5 4.1,1.2c-1.3,-0.5 -2.8,-1.4 -4.1,-1.5c0,0 0,0.1 0,0.3z" fill="#404045" clip-rule="evenodd" fill-rule="evenodd"/>
   <path id="svg_20" d="m35.7,44.3c0,0.1 -0.2,0.2 -0.1,0.3c1,0.4 2,0.9 3.3,1.1c-0.5,-0.9 -2.3,-1.2 -3.2,-1.4z" fill="#404045" clip-rule="evenodd" fill-rule="evenodd"/>
   <path id="svg_21" d="m27.1,44.2c-1.2,0.1 -2.3,0.4 -2.9,1c1.1,-0.2 2.6,0 2.9,-1z" fill="#404045" clip-rule="evenodd" fill-rule="evenodd"/>
   <path id="svg_22" d="m57.5,45.7c-2,-0.1 -5,-0.4 -6.8,0.1c2.1,0.3 4.8,0.2 6.8,-0.1z" fill="#404045" clip-rule="evenodd" fill-rule="evenodd"/>
   <path id="svg_23" d="m59.9,45.7c-0.3,0.1 -0.9,-0.2 -1,0.1c0.2,0.2 0.9,0.2 1,-0.1z" fill="#404045" clip-rule="evenodd" fill-rule="evenodd"/>
   <path id="svg_24" d="m78.6,46.7c-0.5,0.7 -2,0.9 -1.6,2.1c1.1,-0.2 1.3,-1.3 1.8,-2c0,-0.1 -0.1,-0.1 -0.2,-0.1z" fill="#404045" clip-rule="evenodd" fill-rule="evenodd"/>
   <path id="svg_25" d="m78,49.1c1.2,-0.3 1.6,-1.4 2.3,-2.2c-1.1,0.4 -1.9,1.1 -2.3,2.2z" fill="#404045" clip-rule="evenodd" fill-rule="evenodd"/>
   <path id="svg_26" d="m81.5,47.1c-1,0.4 -1.9,0.9 -2.3,1.9c0.3,0.3 0.5,-0.1 0.8,-0.1c0,0.3 0,0.5 0.3,0.5c0.1,0 0.2,0 0.3,0c0.2,-0.8 1.1,-0.9 1.3,-1.7c-0.8,0 -1,0.6 -1.6,0.7c0.4,-0.4 1.3,-0.7 1.2,-1.3z" fill="#404045" clip-rule="evenodd" fill-rule="evenodd"/>
   <path id="svg_27" d="m83.2,47.9c-0.9,0.2 -2,0.8 -2,1.5c0.5,0.3 1,0.8 1.6,0.3c0.1,0.1 0,0.4 0.3,0.4c1.2,-0.4 1.8,-1.3 2.5,-2.2c-1.3,0.1 -1.5,1.4 -2.6,1.6c0.1,-0.5 0.6,-0.5 0.7,-0.9c-0.6,-0.1 -1,0.7 -1.4,0.4c0.1,-0.6 0.8,-0.5 0.9,-1.1z" fill="#404045" clip-rule="evenodd" fill-rule="evenodd"/>
   <path id="svg_28" d="m28.7,45.9c-1.3,0.3 -2.5,0.7 -3.4,1.4c1,-0.1 2.8,-0.4 3.4,-1.4z" fill="#404045" clip-rule="evenodd" fill-rule="evenodd"/>
   <path id="svg_29" d="m36.4,46.4c0.4,0.7 1.7,0.9 2.5,0.9c-0.4,-0.6 -1.6,-1.1 -2.5,-0.9z" fill="#404045" clip-rule="evenodd" fill-rule="evenodd"/>
   <path id="svg_30" d="m56.7,47.1c-1.8,-0.1 -3.7,-0.3 -4.7,0.4c3.4,-0.3 6.7,0.2 9.5,0c-1.1,-0.4 -3,-0.3 -4.8,-0.4z" fill="#404045" clip-rule="evenodd" fill-rule="evenodd"/>
   <path id="svg_31" d="m88.5,48.4c-1.4,0.5 -2.5,1.2 -3.2,2.4c1.1,-0.2 2.1,-1.6 3.2,-2.4z" fill="#404045" clip-rule="evenodd" fill-rule="evenodd"/>
   <path id="svg_32" d="m83.9,50.5c0.1,0 0.2,0.1 0.2,0.2c0.8,-0.4 2.2,-1.5 2.1,-2.2c-0.9,0.6 -1.8,1.1 -2.3,2z" fill="#404045" clip-rule="evenodd" fill-rule="evenodd"/>
   <path id="svg_33" d="m56.3,48.2c-1.3,0 -2.8,-0.2 -3.9,0.2c2.3,0.4 4.9,-0.4 7.3,0.2c-0.8,-0.8 -2.2,-0.4 -3.4,-0.4z" fill="#404045" clip-rule="evenodd" fill-rule="evenodd"/>
   <path id="svg_34" d="m89.1,53.8c0.7,0.1 0.8,-0.4 1,-0.9c0.9,-1 2.2,-1.5 3.1,-2.4c-0.1,0 -0.2,-0.2 -0.3,-0.1c-1.5,0.8 -3.5,1.7 -3.8,3.4z" fill="#404045" clip-rule="evenodd" fill-rule="evenodd"/>
   <path id="svg_35" d="m53.3,50c1.2,0.1 3.1,0 4.3,-0.3c-1.1,-0.5 -3.4,-0.2 -4.3,0.3z" fill="#404045" clip-rule="evenodd" fill-rule="evenodd"/>
   <path id="svg_36" d="m55.6,51.6c-0.8,-0.1 -2,-0.4 -2.8,-0.2c0,0.2 0,0.3 0.1,0.4c0.7,0 2.4,0.4 2.7,-0.2z" fill="#404045" clip-rule="evenodd" fill-rule="evenodd"/>
   <path id="svg_37" d="m16.6,52c-1.5,1.6 -3.9,2.8 -4.7,4.8c1.7,-1.6 3.3,-3.4 5.4,-4.6c-0.1,-0.2 -0.4,-0.2 -0.7,-0.2z" fill="#404045" clip-rule="evenodd" fill-rule="evenodd"/>
   <path id="svg_38" d="m51.9,54.8c-0.4,-0.4 -2.4,-0.5 -2.9,0c0.7,0.1 2.4,0.4 2.9,0z" fill="#404045" clip-rule="evenodd" fill-rule="evenodd"/>
   <path id="svg_39" d="m48.4,56c1,0.4 3.5,0.3 4.5,0.2c-1.1,-0.5 -3.3,-0.5 -4.5,-0.5c0,0.1 0,0.2 0,0.3z" fill="#404045" clip-rule="evenodd" fill-rule="evenodd"/>
   <path id="svg_40" d="m53.9,57.4c-1.6,-0.7 -3.9,-0.5 -5.9,-0.6c0,0.1 -0.2,0.2 -0.1,0.3c1.5,0.5 4.6,0.4 6,0.3z" fill="#404045" clip-rule="evenodd" fill-rule="evenodd"/>
   <path id="svg_41" d="m46.8,58.1c1.9,0.9 4.2,0.1 6.1,0.4c0.8,0.1 1.5,0.7 2.2,0.2c-2,-1 -5.9,-0.5 -8.3,-0.9c0,0.1 0,0.2 0,0.3z" fill="#404045" clip-rule="evenodd" fill-rule="evenodd"/>
   <path id="svg_42" d="m46.3,59.4c1.5,0.7 4.2,0.4 6.5,0.6c1.2,0.1 2.2,0.6 3,0.2c-2.4,-0.9 -6.4,-0.8 -9.4,-1.2c-0.1,0.2 -0.1,0.3 -0.1,0.4z" fill="#404045" clip-rule="evenodd" fill-rule="evenodd"/>
   <path id="svg_43" d="m51.2,60.5c-1.4,-0.1 -2.8,-0.2 -4,-0.3c-0.1,0 -0.1,0.1 -0.2,0.1c-0.1,0.2 -0.1,0.2 0,0.3c2.5,0.6 5.8,0.1 8.5,0.9c-0.7,-0.9 -2.7,-0.8 -4.3,-1z" fill="#404045" clip-rule="evenodd" fill-rule="evenodd"/>
   <path id="svg_44" d="m51.7,62.4c1.2,0.1 2.6,0.6 3.2,0c-1.9,-0.5 -5.4,-0.7 -7.5,-1c0,0.1 0,0.2 0,0.3c1,0.9 2.8,0.6 4.3,0.7z" fill="#404045" clip-rule="evenodd" fill-rule="evenodd"/>
   <path id="svg_45" d="m83.1,63.6c-0.1,0 -0.2,-0.2 -0.3,-0.1c-0.3,0.7 -1.1,0.9 -1.2,1.8c0.8,-0.2 1.1,-1 1.5,-1.7z" fill="#404045" clip-rule="evenodd" fill-rule="evenodd"/>
   <path id="svg_46" d="m54.1,63.2c-1.9,-0.4 -4.9,-0.1 -6.6,-0.7c-0.1,0 -0.1,0.1 -0.2,0.1c0,0.1 0,0.2 0,0.3c1.4,1 3.9,0.4 6,0.7c0.8,0.1 1.4,0.7 2.2,0.4c0,-0.6 -0.9,-0.7 -1.4,-0.8z" fill="#404045" clip-rule="evenodd" fill-rule="evenodd"/>
   <path id="svg_47" d="m94.9,65.9c-0.1,0.3 -1,-0.1 -0.8,0.4c0.5,0.2 1.2,-0.1 0.8,-0.4z" fill="#404045" clip-rule="evenodd" fill-rule="evenodd"/>
   <path id="svg_48" d="m94.3,67.2c0.6,0.1 0.9,-0.1 1.2,-0.4c-0.4,0.1 -1,0 -1.2,0.4z" fill="#404045" clip-rule="evenodd" fill-rule="evenodd"/>
   <path id="svg_49" d="m91.1,73.7c1,0.2 1.8,-1.5 3,-0.7c0.6,-0.4 1.6,-0.5 2.3,-0.7c0,-0.3 0,-0.4 0.1,-0.6c-1.9,0.6 -4.4,0.5 -5.4,2z" fill="#404045" clip-rule="evenodd" fill-rule="evenodd"/>
   <path id="svg_50" d="m24.3,71.1c0,-0.1 -0.1,-0.1 -0.2,-0.1c-0.8,0.9 -0.8,2.8 -1.5,3.8c-0.2,-0.8 0.3,-2.1 -0.3,-2.3c-0.7,1.1 0,2.7 0,4.2c0,0.8 -0.7,1.8 0,2.3c0.3,-0.3 0.3,-1 0.7,-1.1c-0.7,-2.4 0.9,-4.6 1.3,-6.8z" fill="#404045" clip-rule="evenodd" fill-rule="evenodd"/>
   <path id="svg_51" d="m89.4,75.9c-0.9,0.6 -2.1,0.8 -2.8,1.5c1.6,-0.7 3.4,-1.1 4.8,-2c-0.5,-0.2 -0.9,0.4 -1.3,0.1c1,-0.3 2,-0.9 3.1,-1.2c0.3,-0.1 0.7,0.2 0.7,-0.3c-2.3,-0.1 -3.5,1 -5,1.8c0,0 0.5,-0.2 0.5,0.1z" fill="#404045" clip-rule="evenodd" fill-rule="evenodd"/>
   <path id="svg_52" d="m28.1,74.2c-0.5,1.9 -1.9,4.1 -1.4,6.3c0.5,0 0.8,-0.1 1.2,-0.3c0,-0.7 -0.6,-0.8 -0.8,-1.3c0.3,-1.8 1.1,-2.9 1.3,-4.7c0,0 -0.1,0 -0.3,0z" fill="#404045" clip-rule="evenodd" fill-rule="evenodd"/>
   <path id="svg_53" d="m29.8,75.7c0,-0.1 0,-0.3 -0.2,-0.2c-0.2,0.2 -0.5,0.3 -0.7,0.7c-0.5,1 -1.2,5.5 0.1,5.7c0.4,-0.5 -0.3,-0.7 -0.3,-1.2c0.1,-1.5 0.3,-3.9 1.1,-5z" fill="#404045" clip-rule="evenodd" fill-rule="evenodd"/>
   <path id="svg_54" d="m33.6,81.6c-0.3,-0.2 -0.5,-0.5 -0.9,-0.6c0.2,-1.8 0.6,-3.2 1.1,-4.6c-1.5,0.6 -1.1,3.2 -1.8,4.7c-0.5,0 -1,0 -1.1,-0.4c0.2,-1.8 0.8,-3.1 1.1,-4.7c-0.1,0 -0.2,0 -0.3,0c-0.9,1.2 -0.7,3.6 -1.6,4.8c-0.6,0.2 -0.6,-0.6 -1,-0.3c-0.3,1 0.8,0.7 1.1,1.1c0,0.6 -0.2,1.3 0.4,1.3c0.5,-0.2 -0.1,-0.9 0.3,-1.3c1.1,-0.2 1,0.7 1.7,0.9c0.3,-0.3 0.5,-0.8 1.1,-0.8c-0.2,0.5 -0.2,0.9 0.3,1.1c0.4,-1.1 0.6,-3 0.7,-3.9c-1,0.2 -0.7,1.8 -1.1,2.7z" fill="#404045" clip-rule="evenodd" fill-rule="evenodd"/>
   <path id="svg_55" d="m35.2,82.8c0.1,0.2 0.2,0.3 0.2,0.5c0.4,0.1 0.4,-0.1 0.7,-0.1c0.2,-1.1 -0.6,-1.4 -0.9,-0.4z" fill="#404045" clip-rule="evenodd" fill-rule="evenodd"/>
   <path id="svg_56" d="m37.8,83.3c-0.1,0.1 -0.1,0.4 -0.1,0.7c0.4,0.2 0.7,0.1 0.8,-0.3c-0.1,-0.2 -0.3,-0.3 -0.7,-0.4z" fill="#404045" clip-rule="evenodd" fill-rule="evenodd"/>
   <path id="svg_57" d="m41.8,83.7c0,0.3 0,0.4 0.1,0.6c0.4,0 0.9,0 0.9,-0.4c-0.1,-0.3 -0.8,-0.4 -1,-0.2z" fill="#404045" clip-rule="evenodd" fill-rule="evenodd"/>
   <path id="svg_58" d="m114.7,52.2c-0.7,-0.2 -2.2,-0.2 -3,-0.1c-1.9,0.1 -3.7,1.4 -5.3,1.4c-0.4,-1.5 -4.4,-3.7 -5.2,-4.1c-1,-0.6 -2.2,-1.4 -3.4,-2c-1.9,-0.8 -4,-1.9 -5.9,-2.4c-0.6,-0.2 -3.5,-1.1 -4.3,-1.3c-1.6,-0.5 -5.9,-1.1 -9.2,-0.7c9.6,0.8 17.7,4.2 22.4,7.6c0.8,0.6 3.6,3 3.8,3.8c-1,0.4 -5.5,1.7 -6.6,2.1c-0.4,0 -2.4,1.2 -3.4,1c0.5,-1.1 1.7,-1.5 2.3,-2.6c-1.3,0.6 -3.1,1.7 -3,3c-0.6,-0.2 -1,0.6 -1.5,0.2c1.2,-1.7 3.1,-2.6 4.3,-4.2c-2.3,0.7 -3.2,2.9 -5.1,4.1c-0.3,0.3 -0.3,1 -1,0.9c0.5,-1.4 1.6,-2.3 2.7,-3.2c0.5,-0.5 0.9,-1 1.4,-1.4c0.5,-0.4 1.4,-0.8 1.2,-1.6c-2.2,1.2 -3.3,3.6 -5.5,4.8c0.3,-2.7 3.5,-3.4 5,-5.4c-2.4,0.7 -3.5,2.7 -5.4,4c-0.7,-1 0.8,-1.8 1.6,-2.5c0.4,-0.3 0.8,-0.8 1.2,-1.1c0.4,-0.3 1.2,-0.5 1,-1c-2,0.7 -2.7,2.6 -4.6,3.4c0,-0.8 -0.6,-1 -0.7,-1.6c0.7,-1.1 1.9,-1.7 2.8,-2.7c-1.5,-0.2 -2.1,2.1 -3.5,1.9c0.3,-1.2 2.1,-1.7 2.9,-2.7c-1.8,0 -2.3,2 -3.8,1.9c0.5,-1 1.8,-1.1 2.3,-2.1c-1.5,0.4 -2.4,1.5 -3.7,2.2c2.4,1.5 4.4,3.9 4.3,7.3c-1.8,0.7 -8.6,3.5 -10.2,4.1c-2.8,1 -5.7,2.3 -8.6,3.1c-0.3,0.2 -5.3,1.3 -7.9,1.8c0.9,-1 3.3,-0.4 4.4,-1.1c-0.7,-0.6 -2,0.4 -2.9,-0.1c1,-0.6 2.9,-0.2 3.7,-1c-0.6,-0.4 -1.1,0.2 -1.7,0.2c3.2,-1.5 4.3,-5.1 4.9,-6.8c1.3,-3.6 2.6,-8.7 4.3,-11.9c0.5,0 1.1,0.2 1.4,-0.1c0,-0.6 -1.1,-0.2 -1.4,-0.5c1.5,-3.2 2.4,-7 4.4,-9.4c0.6,-0.7 1.1,-1.6 1.3,-2.2c0.3,-0.7 0.4,-1 0.4,-2.9c-0.9,-1.9 -0.9,-2.2 -2.7,-4c-1.2,-1 -2.6,-2 -3.8,-2.5c-7.2,-3 -21.5,-4.1 -21.8,-3.8c-0.5,0 -0.9,0 -1.4,0c0.4,-0.3 0.7,-0.6 0.6,-0.7c-0.3,0.3 -0.8,0.5 -1.1,0.7c-6.4,0.1 -11,0.8 -16.2,2.5c-0.8,0.3 -1.6,0.8 -2.4,1.3c-2.2,1.4 -3.6,2.5 -4.3,4.8c-0.5,1.6 -0.4,3 0.6,4c0.9,-0.7 0.4,-1.3 0.3,-2c-0.3,-3.4 1.7,-4.5 3.6,-5.9c2.5,-1.9 7.1,-2.6 10.2,-2.8c-1.4,0.6 -2.2,1.7 -3.1,2.8c-0.2,-1.3 0.7,-1.4 1,-2.2c-2.2,0.9 -10.6,2.2 -10,7.2c0.1,1.3 1,1.9 1.6,2.7c3.1,2.5 9.8,3.2 12.3,3.6c1.2,0.2 8.5,0.6 12,0.6c2.2,0 4.8,-0.2 7.1,-0.4c3.3,-0.4 6.3,-0.6 8.7,-1.6c0.4,-0.2 2.1,-0.7 2.6,-0.9c1.8,-0.9 2.3,-1.4 3,-3c0,-0.8 0.1,-1.3 -0.1,-1.9c-1.7,0.9 -2.5,2.7 -4.4,3.4c0.1,-0.6 0.7,-0.5 1.1,-0.8c0.7,-1.4 2.4,-1.9 3,-3.5c-1.1,0 -1.4,1.4 -2.4,1.2c0.3,-0.7 1.5,-1.1 1.2,-2c-0.4,-0.1 -0.5,-0.1 -0.9,-0.4c-0.7,0.3 -1.1,1.6 -2,1.3c-0.1,-0.7 1.3,-1.1 0.8,-1.6c-0.7,-0.2 -1,1.7 -2,1.2c0.1,-0.9 1,-1 1.1,-1.9c-1.1,0.1 -1.3,2.1 -2.5,1.4c0.2,-0.7 1.2,-1 1,-1.7c-1.1,-0.1 -1.3,2.1 -2.2,1.1c0.2,-0.8 1.5,-1 1.2,-1.9c-1.4,0.2 -1.3,1.8 -2.5,2.2c-0.3,-0.8 0.9,-1.1 0.9,-2c-0.8,-0.1 -0.7,0.8 -1.3,1c-1.8,-0.7 -4,-1 -6,-1.5c1.8,-0.2 4.3,0.3 6.1,0.8c-1.5,-1.5 -4.8,-1.3 -7.3,-1.8c-0.1,-0.2 -0.1,-0.5 -0.3,-0.6c-1.5,-0.1 -3.5,-1.2 -4.7,-0.4c0.5,0.5 2.1,0.1 2.6,0.7c-0.6,-0.1 -1.4,-0.2 -2.2,-0.2c0.2,0.8 1.8,0.3 2.3,0.8c-0.3,0.6 -1.8,0.3 -2.2,-0.1c-0.9,0 -2.7,-0.1 -3.3,-0.7c-2.9,-0.4 -5.5,0 -8.6,0c2.5,-1.3 6.4,-1 9.7,-0.9c-1.3,-0.5 -4.1,-0.7 -6.2,-0.6c-1.5,0.1 -2.9,0.9 -3.8,0.8c-0.4,-0.1 -1,-0.3 -1,-0.8c3.3,-0.5 7.6,-0.4 8.1,-0.4c3.9,-0.1 4.6,0 8.7,0.4c4.8,0.8 11.9,2.3 14.4,3.6c2,1.5 3.8,2.4 5,4.9c0.2,0.4 0.4,1.5 0.2,2c-0.6,1.7 -3.1,2.7 -4.7,3.4c-6.3,2.6 -26.7,3.6 -39.2,0.7c-1.7,-0.4 -3.3,-1.3 -4.8,-2c-0.3,-0.6 -0.8,-1 -1.7,-1.1c-0.6,0.2 0.2,0.9 -0.3,1c-3.7,0.2 -7.3,-0.1 -9.6,1.9c-4.8,4 -4,7.6 -3,9.9c-5.8,3.5 -11.7,6.8 -14.3,14c0.1,0.2 0.6,0 0.4,0.4c-1.3,4 0.4,7 2.2,9.9c2.8,4 7.8,8.8 14.7,12.2c1.4,0.7 11.5,3.5 12.9,3.7c1.1,0.2 7.4,1.1 9,1.3c6.2,0.8 14.9,0.5 16.3,0.5c9.2,-0.1 17.2,-2.1 25.1,-4.6c0.9,-0.3 4.2,-1.7 5.1,-2.1c1.8,-0.8 6.1,-3.1 6.6,-3.6c2.3,-1.9 4.4,-3.7 6.6,-5.8c1.6,-1.6 7.1,-10.7 6.8,-11.5c1,-0.1 2.6,-0.4 3.6,-0.6c2.2,-0.5 4.3,-0.8 5.7,-2.5c0.6,-2.2 0.6,-5.7 -2.9,-6.7zm-78.5,-20.4c-0.4,-0.6 0.6,-0.6 0.8,-1c0,0.2 -0.4,1 -0.8,1zm-0.2,-4c0.4,-0.5 1.4,-1 2.2,-0.7c-0.5,0.5 -1.4,0.6 -2.2,0.7zm2.2,-1.4c-0.7,-0.1 -0.8,0.3 -1.5,0.2c0.4,-0.5 1,-0.8 1.8,-0.9c-0.1,0.3 -0.2,0.5 -0.3,0.7zm0.7,0.5c0.5,-0.4 0,-1.8 1.1,-1.5c-0.2,0.8 0,1.2 0,2c-0.5,-0.1 -0.8,-0.3 -1.1,-0.5zm2.1,5.1c-0.2,-0.4 0.1,-0.6 0.3,-0.9c0.2,0.2 0.2,1.1 -0.3,0.9zm35.6,-2.9c0.1,0.4 -0.5,1.1 -1.1,1.2c0.2,-0.5 0.8,-0.7 1.1,-1.2zm-1.2,2.5c0.2,0 0.4,0.1 0.5,-0.1c0.1,0 0.1,0.1 0.2,0.1l0,0.2c-0.3,0.1 -0.7,0 -0.8,0.3c-0.4,0 0.1,-0.3 0.1,-0.5zm-0.7,0.9c-0.2,0.3 -0.3,0.8 -0.8,0.8c0.1,-0.5 0.5,-0.6 0.8,-0.8zm-32.1,-4.9c0,0.3 -0.2,0.4 -0.5,0.4c0,-0.3 0.2,-0.4 0.5,-0.4zm12.2,9.1c-0.1,-0.1 -0.3,-0.1 -0.5,-0.1c0.1,-0.9 0.8,-1 1.5,-1.1c0.1,0.8 -0.9,0.5 -1,1.2zm1.2,0c0.3,-0.6 1,-1.1 1.7,-0.9c-0.4,0.5 -0.9,0.9 -1.7,0.9zm3.2,0c0,-0.4 0.4,-0.3 0.8,-0.3c0.2,0.5 -0.6,0.5 -0.8,0.3zm1,-1.4l-0.3,0c-0.1,-0.3 0.2,-0.2 0.3,-0.5c0.2,0.2 0,0.2 0,0.5zm1,1.6c0,-0.4 0.4,-0.3 0.7,-0.3c0,0.3 -0.4,0.2 -0.7,0.3zm0.8,-0.5c-0.1,-0.4 0.2,-0.6 0.5,-0.6c0,0.4 -0.2,0.6 -0.5,0.6zm-0.7,-2.5c0.6,-0.2 0.8,-0.9 1.5,-1c-0.2,0.6 -0.8,0.9 -1.5,1zm2,2.8c0,-0.6 0.8,-0.7 1.2,-0.5c-0.2,0.4 -0.6,0.6 -1.2,0.5zm-0.1,-2.2c0.2,-0.3 0.4,-0.5 0.8,-0.4c0,0.4 -0.3,0.4 -0.8,0.4zm0.1,-1.1c0.3,-0.8 1,-1 2,-1.1c-0.6,0.5 -1.4,0.4 -2,1.1zm1.4,0.8c0.2,-0.5 0.7,-0.7 1.2,-0.9c-0.1,-0.3 -0.2,-0.1 -0.5,-0.1c0.2,-0.4 0.8,-0.4 1.2,-0.5c-0.6,0.5 -0.6,2.2 -1.9,1.5zm1.5,2.2c0.1,-0.7 0.8,-0.8 1.4,-0.9c-0.3,0.5 -0.7,0.8 -1.4,0.9zm1.1,-3.2c0.3,0.2 -0.1,0.6 -0.4,0.6c0,-0.5 0.3,-0.4 0.4,-0.6zm0,1.5c0.1,-0.5 0.6,-0.5 1,-0.8c0.5,0.4 -0.4,1.2 -1,0.8zm0.9,-1.3c0.2,-0.4 0.5,-0.8 1.1,-0.8c0,0.7 -0.6,0.7 -1.1,0.8zm0.7,1.2c0.2,-0.6 0.5,-1.2 1.3,-1.1c-0.3,0.6 -0.6,1.1 -1.3,1.1zm1.6,0.7c-0.3,0 -0.3,-0.2 -0.6,-0.3c0.1,-0.3 0.5,-0.3 0.8,-0.3c0.1,0.4 -0.2,0.3 -0.2,0.6zm0.7,0.1c0.3,-0.7 0.5,-1.4 1.4,-1.4c-0.4,0.5 -0.5,1.4 -1.4,1.4zm1.7,-0.6c0,-0.5 0.3,-0.8 0.6,-1c0.2,0.2 -0.2,0.8 -0.6,1zm0.9,-2.9c0,0.4 -0.2,0.5 -0.4,0.8c-0.4,-0.1 -0.1,-1 0.4,-0.8zm-0.5,0.9c-0.2,0.4 -0.4,0.6 -0.8,0.7c0,-0.6 0.5,-0.6 0.8,-0.7zm-1,-0.8c0.1,0 0.1,0.1 0.2,0.1l0,0.2c-0.4,-0.1 -0.3,0.3 -0.7,0.2c0,-0.4 0.4,-0.3 0.5,-0.5zm-0.9,-2.5c0.2,-0.2 0.6,-0.1 0.7,0.1c0,0.5 -0.9,0.3 -0.7,-0.1zm0.4,3.5c-0.2,0.5 -0.4,0.9 -1.1,0.9c0.3,-0.5 0.6,-0.8 1.1,-0.9zm-0.7,-0.6c-0.1,0.5 -0.5,0.5 -1.1,0.5c0.1,-0.4 0.5,-0.8 1.1,-0.5zm-0.8,-2.5c-2,-0.1 -4.2,0.1 -6.3,-0.5c2,-0.1 4.5,-0.3 6.3,0.5zm-1.8,-1.1c-0.6,0.3 -2.1,-0.1 -2.1,-0.3c0.5,-0.1 1.7,0 2.1,0.3zm-2,-0.9c-0.9,0.3 -1.9,-0.1 -2.9,-0.1c0.3,-0.2 2.2,-0.1 2.9,0.1zm-4.4,0.4c1.2,0 2,0.2 3,0.3c-1,0.3 -1.8,0 -2.8,0.2c-0.1,-0.1 -0.3,-0.1 -0.2,-0.5zm-1,0.2c0,0.5 -0.3,0.2 -0.6,0.1c0.1,-0.2 0.5,0 0.6,-0.1zm-1.8,-2.2c-1.3,0.5 -2.9,-0.3 -4.5,-0.5c-1.1,-0.1 -2.5,0.1 -3.9,-0.2c2.8,-0.5 5.7,0 8.4,0.7zm-2.8,0.8c-0.7,0.1 -1.9,-0.3 -2.4,-0.7c1,0.1 1.4,0.6 2.4,0.7zm-4.3,-2c-1.3,-0.1 -2.3,0.1 -3.6,0c0.8,-0.3 2.9,-0.8 3.6,0zm-7.2,5.1c-0.9,0.2 -2.3,1.5 -1,2.3c0.5,-0.2 0.2,-0.7 0.3,-1.3c0.5,-0.4 1.3,-0.5 1.4,-1.2c1.2,0 3.1,0.2 4.2,-0.2c-0.1,-0.7 -1,-0.6 -1.5,-0.9c-0.3,-0.2 0,-1 -0.5,-0.9c0.2,-0.3 0.7,-0.3 1.2,-0.3c0.2,0.2 0,0.1 0,0.5c1.7,0.4 3.6,0.3 5.4,0.3c1.1,0 1.9,0.7 2.9,0.6c-0.6,-0.8 -2.6,-1.4 -3.8,-1.1c-1.3,-0.7 -4,-1.2 -6,-0.8c-0.9,0.2 -1.2,1.2 -2,0.8c0.4,-1.6 2.8,-0.9 3.8,-1.8c3,0 4.9,1.1 7.5,1.6c0.4,0 -0.2,-0.5 0.1,-0.5c0.9,0.1 1.7,0.8 2.2,0c0.3,0.2 0.9,0.2 1.3,0.4c-0.2,0.5 -0.8,-0.1 -1.4,0.1c0.3,1.3 1.6,1.5 2.7,2.1c-1.1,0.6 -2.1,-0.9 -2.9,-0.2c0.6,0.7 1.8,0.8 3.1,0.9c0.4,0 0,-0.5 0.2,-0.5c1.4,0.3 2.7,0.8 4.5,0.9c-0.3,1.1 -1.9,0.7 -2.8,1c-0.3,-0.6 -2.1,-0.8 -2.2,0.1c0.3,0.4 0.8,-0.1 1.3,0c-1.7,0.7 -4.3,2.3 -6.5,2.5c-0.4,0 -0.8,-0.2 -1.3,-0.2c-2,0 -4.4,1.2 -6.5,0.1c-0.2,0.1 -0.4,0.1 -0.6,0.2c-2.1,-1.2 -5,-1.1 -5.8,-3.5c0.1,-0.6 0.6,-0.7 0.7,-1.2c0.8,0.4 1.6,0.1 2,0.2zm2.4,-1.3c-0.7,0.1 -0.4,-0.9 0,-0.8c-0.1,0.3 -0.1,0.5 0,0.8zm-4.8,-3.8c0.3,-0.6 0.9,-0.7 1.4,-1c0.3,0.3 -0.9,1 -1.4,1zm66.1,28.9c-1.1,2.1 -3.4,3.9 -4.7,6.2c-0.5,0 -0.8,0.3 -1.5,0.2c1.8,-2.5 3.9,-4.6 6.2,-6.4zm-4.8,8.6c-0.6,0.3 -1.2,0.5 -2.1,0.5c0.4,-0.4 1.2,-0.6 2.1,-0.5zm2.5,-7.7c0.3,0 0.1,0.1 0.1,0.2c-1.5,1.9 -3.4,3.5 -4.8,5.5c-0.5,0 -0.9,0.2 -1.5,0.2c1.5,-2.5 3.9,-4.1 6.2,-5.9zm-1,0c-1.6,1.3 -3.1,2.8 -4.7,4.6c-0.8,0.9 -1.2,1.6 -2.5,1.8c2,-2.7 4.1,-5.1 7.2,-6.4zm-3.5,1.2l0.3,0c-0.6,1.2 -1.8,1.8 -2.6,2.7c-0.8,0.9 -1.4,2.2 -2.6,2.7c-0.1,-0.4 0.7,-1.3 1.2,-1.8c0.6,-0.6 1.3,-1.1 1.6,-1.8c0.9,-0.4 1.4,-1.2 2.1,-1.8zm-1.9,0.7c0.2,0.3 -0.5,0.8 -0.9,1.2c-0.4,0.5 -0.7,1.1 -1.2,1.3c0.1,0.3 -0.2,0.3 -0.1,0.6c-0.9,0.5 -1.3,1.8 -2.5,2c1.4,-1.9 2.7,-3.9 4.7,-5.1zm-1.9,0l0.3,0c-0.1,1.1 -1.2,2 -2,2.9c-0.7,0.9 -1.3,2.2 -2.5,2.4c1,-2.1 3.1,-3.2 4.2,-5.3zm-12.9,5.3c4,-1.8 7.7,-3.9 12.3,-5c-0.7,0.9 -1.5,1.6 -2.3,2.6c-0.6,0.8 -1.2,2.2 -2.1,2.7c-0.6,0.4 -1.7,0.4 -2.7,0.7c-3.3,0.9 -6.4,2.1 -9.8,2.7c0.1,-1.1 1.1,-1.4 1.4,-2.4c-0.8,0 -1.2,0.7 -1.5,1.2c-0.3,0.5 -0.5,1.4 -1.2,1.5c-0.2,-0.9 0.9,-1.3 1.2,-2c-0.3,-0.4 -1,0.4 -1.4,-0.1c1.9,-0.8 3.6,-1.7 6.1,-1.9zm-0.7,8.4c-0.7,0 -1.1,0.7 -1.9,0.3c0.4,-0.6 1.2,-0.8 1.7,-1.3c-0.7,-0.3 -1.5,1 -2.2,0.8c0.3,-0.7 1.2,-1 1.7,-1.6c-0.9,-0.2 -1.4,1 -2.6,0.9c0.2,-0.3 0.5,-0.3 0.6,-0.7c-0.3,-0.1 -0.5,-0.3 -1.1,-0.3c1.3,-1.8 4.7,-1.9 7.2,-2.7c0.7,-0.2 0.9,-0.7 1.8,-0.6c-1.2,2.5 -2.9,4.4 -5.2,5.7c-0.5,-0.1 0.1,-0.2 0,-0.5zm-3.8,2.1c-0.2,0.7 -1,0.6 -1.5,0.9c0.2,-0.6 0.9,-0.6 1.5,-0.9zm-1.7,-2.7c0.6,-0.5 1.3,-0.7 2.2,-0.8c-0.5,0.5 -1.4,0.7 -2.2,0.8zm1.4,1.7c-0.1,-0.2 0.5,-0.8 1.1,-0.8c-0.1,0.6 -0.7,0.6 -1.1,0.8zm1.5,-5.3c1.3,-0.5 2.8,-0.8 4.4,-1c-1.4,0.5 -2.7,1 -4.4,1zm-1.2,0.6c-0.4,0.3 -1.2,0.3 -1.8,0.5c0.5,-0.4 1.2,-0.4 1.8,-0.5zm-3.6,6c0.4,-0.5 0.9,-1 1.8,-1c-0.3,0.6 -1.1,0.8 -1.8,1zm1.1,0.9c-0.2,0.3 -0.8,0.5 -1.1,0.3c0.2,-0.3 0.6,-0.3 1.1,-0.3zm-2.5,-2.7c0.4,-0.5 1.1,-0.6 1.8,-0.7c-0.5,0.3 -1.2,0.5 -1.8,0.7zm1,2.4c-0.1,0.3 -0.5,0.3 -0.8,0.3c0.1,-0.3 0.6,-0.1 0.8,-0.3zm-1.9,-1.1c-0.6,0.6 -1.3,1.1 -2.1,1.4c0.5,-0.5 1.3,-1.9 2.1,-1.4zm-1.5,-0.4c0.1,-0.4 0.7,-0.4 1,-0.7c0.1,0.3 -0.5,0.7 -1,0.7zm-0.8,-2.4c-2.7,0.2 -3.9,2.1 -6.1,2.8c0.5,-0.9 1.6,-1.1 2.5,-1.6c0.5,-0.3 0.9,-0.9 1.4,-1.2c0.4,-0.2 0.8,-0.1 1.4,-0.2c1.9,-0.4 4.1,-1.8 6.5,-1.8c-1.5,0.9 -4.4,0.6 -5.7,2zm-9.6,12.4c0.1,-1 1.4,-1.6 1.8,-2.7c0,-0.1 -0.2,-0.1 -0.3,-0.1c0.6,-1.1 1.5,-1.4 1.8,-2.6c-0.7,-0.1 -1.1,1.2 -1.8,1.5c0.3,-0.7 0.6,-1.3 1,-1.9c0.9,0.1 1.7,0 2.4,-0.1c-0.5,0.5 -1.2,0.8 -1.8,1.3c0.8,-0.4 1.6,-0.8 2.3,-1.4c0,0.1 0.1,0.2 0.2,0.2c-1,1 -2.2,1.8 -3.5,2.5c0.3,1.4 -1.5,2.1 -2.1,3.3zm-6.8,-0.9c-1.2,0.2 -2.7,0.6 -3.7,0.5c-0.1,0 -0.4,-0.3 -0.6,-0.3c-0.4,0 -0.7,0.3 -1.1,0.3c-1.8,0 -3.5,-0.5 -5.2,-0.8c1.3,-0.3 2.6,0.3 4.4,0.3c5.2,-0.1 10.5,-0.8 13.3,-3.4c0.2,0 0.2,0.1 0.2,0.2c-1.5,2 -4,2.7 -7.3,3.2zm4.6,0.9c0.1,-0.2 0.3,-0.4 0.4,-0.6c0.2,0.2 0,0.8 -0.4,0.6zm-3.5,0.8c0,-0.3 0.3,-0.1 0.4,-0.3c0.3,0.2 -0.2,0.7 -0.4,0.3zm-0.9,-0.6c-0.3,0.3 -0.9,0.8 -1.3,0.7c0.3,-0.3 0.7,-0.6 1.3,-0.7zm-4.2,0.1l0.9,0c-0.2,0.3 -0.7,0.3 -0.7,0.9c-0.4,-0.1 -0.8,0 -1,0.1c0.1,-0.6 1.3,-0.2 0.8,-1zm-1.8,0c-0.4,0.2 -0.7,1.2 -1.4,0.8c0.3,-0.4 0.7,-0.8 1.4,-0.8zm-9.8,-9.8c-0.3,0.7 -0.6,1.4 -1.2,1.7c-0.1,-1 1,-1.6 1.6,-2.2c0.4,-0.1 -0.3,0.4 -0.4,0.5zm0.6,0.9c-0.1,0.5 -0.6,1.4 -1.3,1.6c-0.2,-0.8 0.7,-1.7 1.3,-1.6zm-2,-0.3c-0.5,-0.6 0.4,-1.6 1.1,-1.6c-0.2,0.7 -0.8,1 -1.1,1.6zm1.4,3.3c-0.7,-1.4 1,-2.1 2,-2.8c0.1,0.6 -1.2,1.6 -1.8,2.2c0,0.6 0.3,0.9 0.5,1.4c0.7,-0.4 0.7,-1.5 1.6,-1.7c0.1,1.2 -1.2,1.3 -0.9,2.3c0.5,0.1 0.2,-0.7 0.8,-0.5c-0.4,0.5 -0.3,0.6 0,1.3c-2.6,-0.5 -4.6,-1.6 -5.4,-3.8c1.2,0.3 1.4,2.6 3.2,1.6zm1.6,-1.1c0,0.4 -0.1,0.5 -0.5,0.4c0,-0.2 0.2,-0.2 0.1,-0.5l0.4,0.1zm1.2,4.8c-1.9,0.1 -4.4,-1 -5.3,-2.5c1.6,1 3,2.1 5.3,2.5zm-0.6,-3.2c0.1,-0.3 0.4,-0.4 0.8,-0.3c0,0.4 -0.4,0.4 -0.8,0.3zm-0.4,-3.8c0.4,-0.5 0.9,-1 1.7,-1.1c-0.2,0.8 -1,0.9 -1.7,1.1zm-0.3,-0.9c0.3,-0.2 0.6,-0.4 0.9,-0.5c-0.2,0.2 -0.4,0.5 -0.9,0.5zm2.3,3.5c0.1,0.4 -0.4,0.3 -0.7,0.3c0.1,-0.1 0.4,-0.2 0.7,-0.3zm-0.1,-0.4c0.4,-0.3 0.5,-0.9 1.3,-0.8c-0.3,0.5 -0.6,0.8 -1.3,0.8zm0.4,1.8c0.3,0.3 -0.5,0.5 -0.9,0.4c-0.1,-0.5 0.7,-0.1 0.9,-0.4zm-0.4,-0.2c0.1,-0.6 0.8,-0.9 1.3,-0.6c-0.1,0.5 -0.7,0.5 -1.3,0.6zm1.9,0.1c0,0.4 -0.4,0.4 -0.8,0.4c0.1,-0.3 0.3,-0.5 0.8,-0.4zm-0.4,-1.3c0,-0.3 0.3,-0.3 0.6,-0.3c-0.2,0.1 -0.3,0.3 -0.6,0.3zm0.1,2.1c-0.1,0.4 -0.7,0.3 -1.1,0.4c0,-0.6 0.8,-0.3 1.1,-0.4zm7.2,-7.4c0.6,-1.1 1.4,-2 2.4,-2.7c-0.3,1 -1.3,2.1 -2.4,2.7zm3.9,-0.6c-0.6,0.9 -1.3,1.7 -2.1,2.3c0.2,-0.9 1.3,-1.7 2.1,-2.3zm-4.7,5.5c0.4,-0.8 1.1,-1.2 1.7,-1.8c0.2,0.1 0,0.5 0.4,0.4c-0.1,0.5 -0.5,-0.1 -0.7,0.2c0.3,0.9 -0.6,1.3 -1.4,1.2zm-4,2.8c0,0.4 -0.5,0.3 -0.8,0.3c0,-0.4 0.5,-0.3 0.8,-0.3zm-1,-0.9c0,-0.5 0.2,-0.6 0.7,-0.5c-0.1,0.3 -0.3,0.5 -0.7,0.5zm0.7,0.4c0.1,-0.3 0.5,-0.2 0.9,-0.2c0,0.4 -0.5,0.2 -0.9,0.2zm0.6,-0.7c0.1,-0.4 0.5,-0.5 1,-0.7c-0.1,0.6 -0.5,0.8 -1,0.7zm-0.3,-0.8c0.1,-0.4 0.4,-0.7 0.8,-0.7c0.1,0.6 -0.4,0.6 -0.8,0.7zm0.4,-1.9c0.5,-0.4 0.8,-1.2 1.7,-1.2c-0.5,0.4 -1,0.9 -1.7,1.2zm1.8,1.1c-0.2,0.2 -0.3,0.4 -0.6,0.4c0.1,-0.3 0.2,-0.5 0.6,-0.4zm0.3,2.5c-0.1,0.2 -1.1,0.5 -1.2,0.1c0.2,-0.2 0.8,-0.1 1.2,-0.1zm-0.5,-0.4c0.2,-0.4 0.9,-0.3 1.3,-0.5c-0.1,0.5 -0.7,0.5 -1.3,0.5zm0.9,-0.9c0.2,-0.6 0.8,-0.7 1.5,-0.7c-0.2,0.5 -0.9,0.6 -1.5,0.7zm-0.5,-2.9c0.1,-0.5 0.6,-0.5 0.8,-0.8c0.2,0.3 -0.3,0.8 -0.8,0.8zm2.5,2.9c0,0.4 -0.4,0.5 -0.8,0.4c0,-0.3 0.4,-0.4 0.8,-0.4zm0.7,-5.7c0.3,-0.3 0.6,-0.6 0.8,-1c0.2,0.3 -0.3,0.9 -0.8,1zm-1.4,-4.5c-1.3,0 -2.3,-0.2 -3.5,-0.3c0.7,-0.2 3.1,-0.3 3.5,0.3zm-0.5,-1.4c0.6,-0.5 2.1,-0.3 2.9,0.1c-1.1,0.3 -1.8,-0.1 -2.9,-0.1zm2.4,2.7c-0.4,1.1 -1.7,2.4 -2.5,3.6c-1.7,-0.7 -4.3,-0.7 -4.9,-2.5c2.2,-1 4.4,-1.5 7.4,-1.1zm-7.2,4.9c0.5,0.2 -0.1,0.6 -0.5,0.6c-0.1,-0.4 0.3,-0.4 0.5,-0.6zm6.3,6.9c0.1,-0.4 0.7,-0.2 0.9,-0.1c-0.1,0.3 -0.6,0.1 -0.9,0.1zm7.7,-2.9c0.2,-0.5 0.7,-0.6 1,-1c0.2,0.4 -0.6,0.8 -1,1zm7.4,-3.3c-0.3,0.5 -1.1,0.5 -1.4,0.9c0.1,0.4 0.4,0.2 0.7,0.1c-0.4,0.8 -1.4,1 -2,1.5c-0.4,-0.1 0,-0.4 -0.1,-0.8c1,-0.6 1.4,-1.9 2.6,-2.2c0.3,0.2 -0.2,0.5 0.2,0.5zm-3.3,0.1c-0.2,-0.4 0.6,-1.1 1,-0.8c-0.2,0.5 -0.8,0.5 -1,0.8zm1.6,2.3c1.1,-0.8 2.4,-1.4 3.5,-2.1c0.2,0.5 -0.8,1 -1.3,1.3c-0.6,0.4 -1.4,0.8 -2.2,0.8zm5.1,-1.8c-0.5,0.7 -1.4,0.9 -2,1.4c0,-0.6 1,-1.3 2,-1.4zm5.5,-2.6c0.4,-0.4 1,-0.6 1.5,-0.7c-0.4,0.3 -0.9,0.6 -1.5,0.7zm1.3,-6.1c0.3,0.2 -0.4,1.3 -1,1.3c0.1,-0.7 0.7,-0.9 1,-1.3zm-1.7,0.7c0.3,0.3 -0.4,0.6 -0.5,0.9c-0.3,-0.3 0.4,-0.6 0.5,-0.9zm-0.6,-0.4c-0.3,0.7 -0.6,1.4 -1.4,1.6c0.4,-0.6 0.7,-1.3 1.4,-1.6zm-1.9,1.2c-0.3,0.2 -0.3,0.8 -0.8,0.8c0.1,-0.3 0.3,-0.7 0.8,-0.8zm-1.6,0.3c0.1,0.3 -0.2,1.1 -0.7,1.1c0,-0.6 0.6,-0.6 0.7,-1.1zm-0.8,0c-0.2,0.6 -0.7,1 -1,1.5c-0.1,-0.6 0.6,-1.3 1,-1.5zm-6.8,1.2c-0.2,0.2 -0.5,0.2 -0.9,0.2c0.1,-0.3 0.5,-0.2 0.9,-0.2zm1.3,0.3c1.9,0 2.8,-1.1 4.4,-1.3c-0.2,0.7 -0.9,0.9 -0.9,1.8c-2.3,0.9 -4.1,2.2 -6,3.5c-0.6,1.5 -1.8,2.3 -3.1,3c0.8,-1.1 2.1,-1.8 2.9,-3c-2.7,1.2 -3.7,4.2 -6.6,5.3c0.9,-1.5 2.5,-2.3 3.6,-3.7c-1.4,0.4 -2.7,2 -3.8,3.2c-0.3,0.3 -0.8,1 -1.4,0.6c0.9,-1.5 2.4,-2.4 3.5,-3.7c-1.7,0.2 -2.3,2.6 -4.2,3.1c0,-0.2 0.2,-0.3 0.5,-0.2c0.4,-1.7 2.1,-2.1 2.9,-3.5c-2.1,0.6 -2.5,3 -4.8,3.4c0.5,-1.5 2.6,-2.3 3.5,-3.8c-1.8,0.1 -2.2,2.6 -4,3c0.8,-1.6 2.5,-2.1 3.4,-3.7c-1,0.1 -1.1,1.1 -2,1.2c1.1,-1.7 2.5,-3.2 3.9,-4.6c0.7,0.1 0.8,0.8 1.7,0.6c-0.2,-0.5 -0.9,-0.6 -1.1,-1.1c2.3,0.3 5.6,1.2 7.6,-0.1zm-1.3,-4.2c0.1,-0.2 0.9,-0.1 1,0c-0.1,0.3 -0.9,0.1 -1,0zm11.1,-21.5c-0.4,0.2 -0.9,0.1 -1.1,0.5c0.1,0.2 0.2,0.4 0.6,0.4c-0.4,1.3 -0.7,2.7 -1.7,3.3c-0.2,0.4 0.4,0.1 0.2,0.5c-0.9,1.9 -1.8,3.8 -2.5,5.8c-1.2,-0.6 -2.4,-0.4 -3.8,-0.7c1.1,-0.7 2.7,-0.8 4.1,-0.9c-0.2,-1 -2,-0.5 -2.9,-0.9c0.8,-0.6 2.2,-0.6 3.3,-1c-0.3,-0.8 -1.8,-0.5 -2.5,-0.9c0.8,-0.5 1.8,-0.4 3,-0.3c-0.4,-1.1 -2.3,-0.7 -3.4,-1.1c0.9,-1.1 2.6,-0.2 3.9,-0.4c0.2,-0.5 -0.4,-0.3 -0.3,-0.7c0.5,-0.1 0.5,-0.6 0.9,-0.7c-0.1,-0.4 -0.8,-0.3 -1,-0.6c0.6,-0.4 1.7,-0.2 2,-0.8c-0.3,-0.7 -1.6,-0.4 -2.4,-0.7c0.4,-0.6 1.3,-0.1 2.1,-0.1c0.3,-0.5 -0.4,-0.6 -0.1,-1c0.2,-0.3 0.7,0.3 0.8,-0.2c0,-0.4 -0.5,-0.3 -0.7,-0.6c0.4,-0.4 1.3,-0.1 2,-0.2c0,0.4 -0.5,0.5 -0.5,1.3zm-3.1,1.3c-1.2,0.7 -3,0.6 -4.6,0.3c1.2,-0.7 2.9,-0.8 4.6,-0.3zm-5.5,-1.1c1,-0.7 2.6,-0.4 3.9,-0.2c-0.9,0.8 -2.7,-0.1 -3.9,0.2zm1,1.9c-1.2,1 -4.2,0.3 -5.7,-0.3c2,0.1 4,0.1 5.7,0.3zm4.4,0.7c-1.2,0.7 -3,0.5 -4.5,0.2c1,-0.6 3.1,-0.5 4.5,-0.2zm-1.5,-3.3c0.2,-0.5 2.1,-0.7 2.3,0c-0.6,0.2 -1.5,0.1 -2.3,0zm5.4,-2.8c0.1,-0.5 -0.2,-0.6 -0.2,-0.9c0.6,-0.1 0.8,-0.7 1.3,-1c0.4,0.9 -0.8,2.2 -1.4,3c-0.8,-0.6 -1.4,0.3 -2.5,0c0.6,-0.7 2.1,-0.5 2.8,-1.1zm-3,0.3c-0.6,0.3 -1.3,0.5 -2.2,0.5c0.6,-0.4 1.4,-0.5 2.2,-0.5zm-0.6,1.1c-0.4,0.5 -1.1,0.4 -1.9,0.3c0.4,-0.5 1.2,-0.4 1.9,-0.3zm-5.7,0.9c0.8,-0.5 2.3,-0.6 3.5,-0.3c-0.7,0.7 -2.6,0.5 -3.5,0.3zm3.1,-1.2c-0.4,0.1 -0.7,0.4 -1.3,0.3c0.2,-0.4 0.7,-0.4 1.3,-0.3zm-33.3,-1.4c0.5,0.1 5.6,1.3 9,1.2c6.3,1 14,0.7 19.6,0.3c0.3,0.4 1.1,0.3 1.6,0.5c-0.6,0.3 -1.3,0.5 -2.1,0.6c0.4,0.3 1.1,0.4 1.8,0.4c-0.5,0.3 -1.2,0.4 -1.9,0.5c1.2,0.6 2.4,0.4 3.7,0.8c-2.1,1.3 -5.5,-0.3 -7.6,-0.3c0.5,1 2.9,0.2 3.4,1.2c-5.7,-0.1 -11,-0.4 -16.2,-0.2c2.7,0.6 6.8,0.3 10,0.3c1.1,0 2.5,-0.1 3.1,0.6c2.9,0.1 5.2,0.8 7.7,1.3c-2.8,1.4 -6.2,-0.6 -8.9,-0.6c0.5,0.2 1.2,0.2 1.2,0.7c1.7,0 3.1,0.3 4.6,0.5l0,0.6c1.2,-0.3 2.3,-0.2 3.5,0.3c-2,1.3 -5.7,-0.6 -7.9,-0.1c1.4,0.5 4.1,-0.1 4.6,1.3c1.2,-0.1 2.6,-0.3 3.6,0.3c-2.2,1.4 -5.4,0.5 -8.3,0c0.9,1 3.7,0.3 4.4,1.6c0.9,-0.3 1.8,-0.1 2.7,0.2c-1.7,1 -3.7,0.9 -5.9,0.5c1.8,0.8 3.6,1 5.7,1.4c-1.9,1.5 -5,0 -7.2,0c1.7,0.7 3.9,1.1 6,1.5c-1.2,1.2 -3.6,0.2 -5.4,0c1.5,0.6 3.2,1 4.9,1.3c-1.3,1.4 -4,0.5 -5.6,0.2c1.4,1.1 4.2,1 6.4,1.3c-2,1.2 -4.5,0.6 -6.8,-0.2c0.1,0.7 1.1,0.6 1.7,0.8c0.9,0.2 1.9,0.4 2.5,0.9c0.4,0.1 1,-0.1 1.3,0.2c-1.3,1 -3.3,-0.3 -5,-0.3c1.4,0.9 3.6,1.3 5.5,1.5c-1.7,1.2 -4.5,-0.4 -6.2,-0.2c1.3,0.8 3.6,0.7 4.9,1.6c0.5,-0.3 1.4,-0.1 1.9,-0.4c0,-0.4 -0.4,-0.5 -0.4,-0.9c0.3,0 0.6,0 0.7,-0.1c0.3,-0.3 -0.4,-0.4 -0.1,-0.8c0.2,-0.2 0.7,0 0.8,-0.2c0,-0.7 -1.2,-0.3 -1.7,-0.6c0.3,-0.3 1,-0.2 1.4,-0.4c0.2,-0.5 0,-0.8 0.5,-1c-0.2,-0.5 -1.2,-0.2 -1.7,-0.3c0.5,-1 2.1,-0.1 2.7,-0.8c-0.6,-0.2 -1.4,-0.3 -2.1,-0.5c0.7,-0.4 1.5,-0.7 2.6,-0.7c-0.1,-0.7 -1.4,-0.3 -1.8,-0.7c0.7,-0.6 1.8,-0.6 2.9,-0.7c-0.4,1 -2.3,7 -2.4,7.3c-0.2,0.8 -0.8,1.5 -1,2.3l-0.8,0c-0.2,-0.2 -4.1,-30.5 -0.1,-0.8c-1.7,0.1 -3.6,-0.1 -5.3,-0.6c-0.3,-0.1 -0.6,-0.4 -0.7,-0.4c0.4,0.1 -0.6,-0.3 -0.6,0.1c0,0.5 2.7,1 3.3,1.2c1.3,0.4 2.6,0.5 3.2,1.2c-2.2,0.1 -3.8,-0.9 -5.4,-1c0.5,0.9 1.9,1 3,1.4c-0.9,0.3 -2.3,-0.7 -3,-0.2c0.4,0.9 2.2,0.5 3,0.9c-0.8,1.1 -2.1,0.1 -3.2,0c-0.3,0 -0.1,0.6 0.1,0.6c-0.8,0.5 -2,0.4 -2.6,1.1c-1.7,-0.1 -3.1,0.1 -4.5,-0.3c-0.2,-0.5 0.5,-0.2 0.5,-0.6c0.5,0.3 1.7,0.6 2.3,0.4c-0.7,-0.5 -1.8,-0.3 -1.7,-1.2c-2,-0.5 -4.7,-0.3 -6.8,-0.6c-0.7,-0.1 -1.3,-0.7 -1.8,-0.3c0.2,0.6 0.4,1.2 1.2,1.3c-2.9,0.5 -8.5,-4.4 -10.3,-9.3c-1.4,-4.6 -3,-7.8 -4.1,-12.6c0,-0.4 -0.7,-3 -1.2,-4.1c0.7,0.2 1.8,0.4 2.7,0.8c0.8,0.3 1.7,1.4 2.4,0.6c-1.6,-0.8 -3.7,-1.7 -5.6,-2c-0.3,-0.4 -0.4,-1 -0.8,-1.3c2.2,-0.5 3.8,1.4 6.1,1.7zm-1.2,14.2c-0.7,0.1 -0.7,-0.5 -0.7,-1.1c0.5,0.1 0.5,0.7 0.7,1.1zm-1.3,-0.2c-0.3,-0.3 -0.4,-0.7 -0.4,-1.3c0.3,0.3 0.4,0.7 0.4,1.3zm-1.4,-1.4c0.6,0.4 0.6,1.3 0.8,2c-0.9,0 -0.8,-1.5 -0.8,-2zm0.4,4.4c-0.4,0 -0.3,-0.5 -0.3,-0.8c0.2,0.1 0.3,0.4 0.3,0.8zm-2.6,-16.4c-0.4,-0.5 -0.7,-1.1 -0.7,-2c0.4,0.5 0.6,1.2 0.7,2zm-2.3,-1.7c0.9,0 0.5,1.3 0.9,1.8c-0.8,0.4 -1.1,-1.2 -0.9,-1.8zm-0.4,4.4c0.6,0.2 0.1,0.8 0.2,1.5c-0.3,-0.3 -0.5,-1 -0.2,-1.5zm0.4,1.6c0.5,0.1 0.5,1.1 1.2,0.7c0.5,2 4.1,3.2 2.3,5.5c-0.4,0.2 -0.8,-0.2 -1.3,0.1c-0.4,0 -0.2,-0.6 -0.6,-0.6c-0.4,0 -0.2,0.5 -0.5,0.6c-0.4,-0.2 -0.4,-0.7 -0.8,-1c-0.3,0 -0.4,0.3 -0.7,0.3c-3,-0.5 -4.8,-2.2 -6.8,-3.7c-0.1,-1.3 0.1,-2.1 0.8,-2.7c0.4,-0.1 0.2,0.3 0.6,0.3c0.3,-0.1 0.3,-0.5 0.5,-0.8c0.4,0 0.4,0.5 0.8,0.6c0.3,-0.1 0.2,-0.5 0.4,-0.7c0.5,0.1 0.3,0.9 0.8,1.2c0.3,-0.1 0.3,-0.6 0.4,-1c0.4,0.1 0.4,0.6 0.7,0.7c0.4,0.1 0.6,-0.1 0.9,-0.1c0,0.5 0.5,0.6 0.7,0.9c0.4,0.2 0.2,-0.4 0.6,-0.3zm3.2,9.1c-0.8,-0.1 -0.8,-1 -0.9,-1.8c0.9,0.1 0.7,1.2 0.9,1.8zm-1.8,-2.1c0.4,0.3 0.6,1.3 0.6,1.6c-0.5,-0.2 -0.5,-0.9 -0.6,-1.6zm-0.1,4.4c-0.5,0 -0.3,-0.6 -0.4,-0.9c0.4,0.1 0.3,0.5 0.4,0.9zm-1.4,-5.2c0.8,0.2 1,1.5 1,2.1c-0.9,-0.2 -1.2,-1.4 -1,-2.1zm0.3,4.8c-0.2,-0.1 -0.3,-0.3 -0.3,-0.6c0.3,0 0.3,0.3 0.3,0.6zm-1.6,-5l0.3,0c0.1,0.6 0.3,1.1 0.4,1.7c-0.4,-0.3 -0.6,-0.9 -0.7,-1.7zm0.3,2.8c-0.4,0 -0.4,-0.3 -0.3,-0.6c0.1,0.1 0.3,0.2 0.3,0.6zm-0.6,-1.3c-0.6,-0.2 -0.5,-1.1 -0.6,-1.8l0.3,0c0.1,0.5 0.2,1.1 0.3,1.8zm-4.7,-3.8l0.3,0c0.1,1.4 0.7,2.9 0.7,4.1c-0.5,0 -0.3,-0.6 -0.2,-0.8c-0.5,-0.9 -0.7,-2 -0.8,-3.3zm0,3.5c-0.7,-0.9 -0.8,-2.6 -0.9,-4.3c0.2,0 0.2,0.1 0.3,0.1c0,1.6 0.8,2.9 0.6,4.2zm1.2,-3c0.2,0 0.2,0.2 0.5,0.1c-0.3,1.1 0.2,1.8 0.2,2.9c-0.6,-0.6 -0.9,-2 -0.7,-3zm0.6,3.4c0.4,0 0.3,0.6 0.8,0.6c-0.1,0.2 -0.8,-0.1 -1,-0.2c-0.1,-0.3 0.2,-0.2 0.2,-0.4zm0.2,-2.9l0.3,0c0.2,1.2 0.7,2.1 0.8,3.4c-0.7,-0.8 -1,-2 -1.1,-3.4zm1,0.5l0.3,0c0.3,0.6 0.4,1.3 0.5,2.1c-0.6,-0.3 -0.5,-1.4 -0.8,-2.1zm-2.4,-7.1l0,-0.6c0.5,-0.1 0.5,0.7 0,0.6zm0.6,-3.9l0.5,0c0.2,0.5 0.2,1.5 -0.6,1.2c0,-0.4 -0.1,-1 0.1,-1.2zm0.7,3.1c0.4,0 0.2,0.6 -0.1,0.6c-0.1,-0.3 0,-0.4 0.1,-0.6zm0.8,-2.1c-0.3,-0.2 -0.6,-0.9 -0.2,-1.2l0.3,0c0.3,0.3 0.1,0.9 -0.1,1.2zm0.3,1.6c0.3,0.1 0.5,0.9 0.2,1.2c-0.6,-0.1 -0.4,-0.9 -0.2,-1.2zm2.6,1.4c-0.4,0 -0.2,-0.9 -0.1,-1c0.5,-0.1 0.1,0.8 0.1,1zm-0.6,-6c0.4,0 0.7,0.1 0.7,0.5c0,0.4 -0.3,0.4 -0.7,0.4c-0.2,-0.1 -0.2,-0.7 0,-0.9zm-0.2,1.8c1,-0.4 1.1,0.9 0.9,1.4c-0.8,-0.1 -1,-0.6 -0.9,-1.4zm-0.3,4.2c-0.5,0 -0.5,-0.9 -0.3,-1.3c0.3,0.3 0.4,0.8 0.3,1.3zm-0.4,-3.1c-0.2,-0.3 -0.6,-0.5 -0.5,-1.1c0.3,0.1 0.3,-0.2 0.6,-0.1c0,0.4 0.2,1 -0.1,1.2zm0.1,-2.7c0,0.3 0,0.7 -0.1,0.8c-0.5,0.1 -0.5,-0.4 -0.8,-0.5c-0.4,0 -0.5,0.3 -0.8,0.4c-0.4,0.1 -0.1,-0.4 -0.4,-0.4c-1.1,0.7 -2.2,1.1 -3.8,1.5c0.9,-1.5 3.5,-2.4 5.9,-1.8zm-14.4,14.9c-0.1,0.5 -0.6,0.5 -0.8,0.9c-0.4,-0.6 0.3,-1 0.8,-0.9zm-5.9,7.1c0.1,-0.1 0.4,-0.2 0.5,-0.3c0.1,-0.2 -0.1,-0.4 -0.1,-0.6c0.1,-0.4 0.6,-0.8 1,-1.2c1,-1.4 1.7,-3.1 3.3,-3.7c0,0.3 -0.2,0.2 0,0.5c1.6,-0.9 2.5,-2.6 4.6,-2.9c-1.3,1.3 -3,2.1 -4.1,3.7c1.4,-0.3 2.2,-1.9 3.5,-2.8c0.8,-0.6 1.8,-0.5 2.6,-1.2c-1.2,-0.8 -2.8,-0.1 -4,0.7c0.5,-1 2.8,-2.6 4.1,-1.9c-0.2,-1.2 -1.1,-2.8 -0.7,-5c0.1,-0.1 0.3,-0.1 0.5,-0.1c0.4,-3.1 2.3,-4.7 5.4,-5c-0.1,0.5 0,0.9 0.1,1.3c-1.1,0.7 -2.2,1.4 -3.4,1.9c-2.3,2.9 -1,7.5 1.2,9.6c-1.2,-0.2 -1.8,-1.7 -2.7,-2.5c0.2,2.2 2.8,3.2 4.2,4.7c-1.1,0.8 -2.2,1.7 -3.3,2.8c-0.8,0.8 -1.8,1.6 -2.5,2.4c-1.3,1.6 -1.4,4.4 -3.4,5.3c-0.2,0.8 -0.3,1.8 -1,2c-0.2,-3.1 1.8,-4.3 3.1,-6.1c-1.1,0.1 -1.6,1.9 -2.6,2.4l0,-0.6c-0.9,0.4 -0.5,2.2 -1.4,2.6c-0.3,-3.3 2.9,-4.8 4.4,-6.8c-1.4,0.5 -2.6,2.2 -3.7,3.4c-0.3,0.1 -0.3,-0.2 -0.6,-0.1c-0.4,0.3 -0.8,0.6 -0.9,1.2c-0.1,0 -0.1,0 -0.1,-0.1c0.7,-2.4 2.7,-3.3 4,-4.9c-1.3,0.2 -2.3,2.3 -3.5,2.6c1.1,-2.6 3.3,-4 5.3,-5.7c-1,-0.4 -1.3,1 -2.2,1.1c-1.5,1.7 -3,3.2 -4.5,4.9c0.2,-1.3 1.5,-2.5 1.9,-4c-1.2,0.4 -1.4,1.9 -2.5,2.4c1.9,-3.5 5.3,-5.3 8.4,-7.5c-0.7,-0.6 -1.4,0.6 -1.9,1c-1.3,0.7 -2.2,1.8 -3.3,2.6l-0.6,0c-0.9,0.5 -1.6,2 -2.4,2.2c0.3,-1.5 1.5,-2 2.2,-3.2c-2.4,1.3 -4.1,4.4 -4.9,7.8c-0.6,-0.4 -0.4,-2.1 0,-2.9zm14.4,-13.2c-0.3,-0.6 -1.2,-1.3 -0.7,-2.2c0.7,0.2 0.6,1.2 1.2,1.4c-0.3,2.1 -0.1,3.8 0.2,5.9c-0.4,0.2 -0.8,-0.5 -1,-0.8c0,-0.2 0.3,0 0.4,-0.2c-0.1,-1.5 -0.8,-2.7 -0.1,-4.1zm-0.7,2.9c-0.4,-0.5 -0.4,-1.1 -0.3,-1.9c0.5,0.3 0,1.4 0.3,1.9zm-2.5,23.1c-0.4,1.1 -1,2.8 -0.7,3.8c0.5,-0.2 0.1,-1.3 0.5,-1.6c0.3,1.1 0.2,2.6 0.4,3.7c-2.2,-0.4 -1.7,-4.2 -1.1,-6.2c0,-0.3 -0.3,0 -0.2,0.2c-0.6,-1.3 0.8,-2.5 1.2,-3.5c1.1,0.5 1.9,1.2 3.1,1.6c-0.5,1.5 -1.5,2.9 -2,4.4c-0.2,0.5 0,1.2 -0.6,1.5c0,-2.2 0.1,-4.8 1.3,-6.1c-1,0.2 -1.6,1.3 -1.9,2.2zm-2.4,0.3c0.1,0.5 0.4,-0.4 0.5,0c0.2,0.8 -0.1,2 -0.5,2.6c-1.6,-2.5 0.6,-5.3 1.8,-7.2c0.2,1.4 -1.6,2.7 -1.8,4.6zm0.7,4.2c-0.6,-0.1 -0.5,-1 -0.3,-1.4c0.4,0.2 0.1,1 0.3,1.4zm-1.1,-5.8c-0.7,-1.7 0.4,-3.5 1.1,-4.5c0.6,0.1 0.5,0.7 0.9,1c-0.7,1.1 -1.4,2.2 -2,3.5zm-0.4,3.2c0.1,0.5 0,1.1 0.2,1.5c-0.4,-0.3 -0.9,-0.5 -1.2,-0.9c-0.3,-1.7 -0.3,-3.5 0.6,-4.6c0.7,1.3 -0.1,3.1 -0.4,3.9c0.1,0.4 0.4,-0.1 0.8,0.1zm0,-6.8c-0.3,1.3 -0.6,2.5 -1.2,3.4c-0.8,-2.4 1.1,-3.8 1.8,-5.4c0.5,-0.1 0.6,0.3 0.8,0.5c-0.4,0.5 -0.5,1.4 -1.4,1.5zm0.4,-3.5l0.3,0c0.1,1.6 -1.2,2.4 -2,3.4c-0.1,-1.9 1.2,-2.2 1.7,-3.4zm-2.5,6.4c0.7,0.7 0.4,2.5 -0.5,2.9c0,-1.3 0,-2.1 0.5,-2.9zm0.3,-3c0.3,1.1 -0.2,2.2 -0.6,2.9c-0.6,-0.9 0,-2.5 0.6,-2.9zm-1.5,2.1c0.8,0.5 0,2.4 0.3,3.2c-0.4,-0.3 -0.7,-0.6 -0.9,-1c0.4,-0.6 -0.2,-1.5 0.6,-2.2zm-0.6,0.2c-0.2,-1.3 0.1,-3.3 1,-4.1c0.2,1 0.2,3.6 -1,4.1zm-0.4,-1.3c-0.3,0 -0.2,-0.7 -0.1,-0.8c0.4,0.1 0,0.4 0.1,0.8zm-2.7,-4.8c-0.1,-0.7 0.4,-0.7 0.3,-1.4c0.2,0 0.2,1.5 -0.3,1.4zm-0.2,2.8c-0.3,-0.1 -0.5,-0.2 -0.5,-0.5c0.5,-0.3 0.5,-1.1 0.8,-1.7c0.4,0.3 -0.1,1.7 -0.3,2.2zm-0.8,-1.5c0,-2.1 0.6,-4.1 1.5,-5.6c0.1,0 0.2,0 0.2,0.1c-0.7,1.7 -0.9,3.9 -1.7,5.5zm2.3,-0.3c0.2,0.6 0,2.2 -0.8,2.6c-0.3,-1.1 0.4,-2 0.8,-2.6zm-0.3,-2.4c-0.3,-0.9 0.3,-1.9 0.8,-2.4c0.3,0.6 -0.7,1.7 -0.8,2.4zm1.5,-1.2c0.3,1.1 -1,2.6 -1.6,3.5c-0.2,-1.5 1,-2.5 1.6,-3.5zm-0.8,5c0.6,0.8 0.3,2.5 -0.5,3.1c-1.1,-0.8 0.1,-2.3 0.5,-3.1zm0.2,2.9c0.3,0.2 0.2,0.7 0.8,0.7l0,1.3c-0.6,-0.2 -0.7,-0.8 -1,-1.2c-0.2,-0.4 0.1,-0.6 0.2,-0.8zm0.7,-2c-0.5,-0.1 -0.1,-1.3 -0.1,-1.6c0.2,0 0.1,0.3 0.5,0.2c0,0.6 0,1.2 -0.4,1.4zm36.1,21.8c0.1,-0.4 0.5,-0.7 1,-0.8c-0.1,0.6 -0.5,0.8 -1,0.8zm2.5,0.2c0.4,-0.3 0.5,-1 1.3,-1c-0.2,0.6 -0.8,0.8 -1.3,1zm1.5,0.1c0.1,-0.6 0.9,-0.5 1.3,-0.9c0.1,0.4 -0.7,0.9 -1.3,0.9zm5.3,-0.1c-0.4,-0.4 0.4,-0.5 0.5,-0.7c0.3,0.3 -0.4,0.5 -0.5,0.7zm13.9,-1.5c0.2,-0.4 0.6,-0.5 0.9,-0.7c-0.1,0.4 -0.2,0.8 -0.9,0.7zm33.3,-17.3c-1.8,0.9 -2.3,3.2 -4.2,4c-2,2.4 -5,3.8 -7.4,5.7c-0.3,0 -0.3,0.2 -0.7,0.1c-0.3,0.3 -0.7,0.5 -1,0.9c-0.9,-0.2 -1.2,0.3 -1.5,0.6c-1.4,0.1 -3.1,0.8 -4.1,1.8c-0.4,0.1 -0.2,-0.5 -0.6,-0.5c-0.8,0.2 -1.2,0.8 -1.9,1.1c-0.2,0 0,-0.3 -0.2,-0.4c-1.2,0.4 -2.1,0.3 -3.1,1.3c-0.4,0.1 -0.1,-0.5 -0.4,-0.5c-1,0.3 -1.5,1.2 -2.5,1.5c0,-0.4 0.4,-0.2 0.3,-0.7c-1.2,-0.2 -2.4,0.3 -3.2,1.1c-0.3,-0.2 -0.6,-0.4 -0.9,-0.6c-1.7,0.2 -2.5,1.5 -4,2c0.2,-1 1.3,-1 1.6,-1.9c-0.8,0.1 -1.8,1 -2.6,1.5c-0.2,-0.2 -0.1,-0.6 -0.4,-0.6c-0.8,0.5 -1,1.5 -2.1,1.6c0.3,-0.7 1,-1 1.4,-1.6c-1.2,-0.5 -1.7,0.8 -2.5,1.2c-0.5,-0.5 0.3,-0.6 0.4,-1.1c-1,-0.4 -1.6,1.2 -2.7,0.8c-0.8,0.5 -1.5,1.1 -2.5,1.4c0.7,-0.9 1.8,-1.3 2.6,-2.1c-0.8,-0.2 -2,0.9 -2.7,0.8c-0.3,-0.5 0.5,-0.6 0.6,-0.9c-1.4,-0.2 -2.4,1 -3.9,1.2c0.1,-0.5 0.7,-0.4 0.7,-0.9c-0.7,-0.5 -1.7,0.7 -2.5,0.9c-0.4,-0.2 -0.5,-0.4 -0.3,-0.9c-1,-0.1 -1.2,0.7 -2.1,0.6c-0.6,0 0.2,-0.2 0,-0.6c-1.4,-0.2 -2,1.2 -3,0.6c0,-0.4 0.5,-0.5 0.3,-0.8c-1.1,0.3 -1.9,0.9 -2.7,1.5c-0.3,-0.3 0.5,-1 0.2,-1.4c-0.6,-0.1 -0.7,0.4 -1.2,0.4c-0.5,0.1 -1.2,-0.3 -1.6,-0.3c-0.7,0.1 -1.1,0.9 -1.9,0.6c0,-0.4 0.7,-0.3 0.7,-0.7c-0.5,-0.5 -0.9,0.1 -1.5,0.2c0,-0.3 0.4,-0.2 0.4,-0.6c-1.1,-0.5 -1.6,1.1 -2.7,0.7c0.1,-0.6 1.3,-0.1 1.3,-0.9c-1,-0.4 -1.8,0.6 -2.9,0.6c0,-0.5 0.9,-0.2 1,-0.7c-0.4,-0.5 -1.4,0.2 -2,0.2c0,-0.3 0,-0.4 -0.2,-0.5c-0.8,0 -1.2,0.4 -1.9,0.5c-0.1,-0.7 0.7,-0.4 1,-0.8c-0.3,-0.5 -1.5,0.1 -1.6,-0.6c-0.5,0 -0.9,0.1 -1.3,0.3c-0.4,-0.6 -1,-0.5 -1.7,-0.3c-0.1,-0.4 0.2,-0.5 0,-0.7c-0.7,-0.1 -0.9,0.7 -1.4,0.3c-0.5,0 0.1,-0.4 -0.2,-0.6c-0.4,-0.1 -0.6,0.1 -0.8,0.2c-1.7,-0.8 -3.8,-0.5 -4.8,-1.9c-0.5,0.2 -0.8,0 -1.3,-0.2c0.1,-0.3 -0.1,-0.4 -0.1,-0.7c-0.6,-0.3 -1.3,0 -1.9,0c-0.3,-0.2 -0.1,-0.8 -0.4,-0.9c-0.5,-0.2 -0.3,0.4 -0.7,0.3c-0.4,-0.4 -1,-0.5 -1.1,-1.1c-1.8,-0.8 -3.6,-2.1 -5.1,-3.3c-0.5,-0.4 -1,-1.1 -1.6,-1.7c-1,-1.1 -1.7,-2 -2.7,-3.1c-1.6,-3.2 -4.1,-6 -2.9,-11.1c0.6,-0.4 0.7,-1.3 1.2,-1.8c0.6,1.4 -0.3,2.6 -0.2,3.6c0,0.4 0.4,0.5 0.5,1.1c0.1,0.5 -0.1,1.2 0.1,1.6c0.1,0.5 0.6,0.8 0.4,1.7c0.4,0.3 0.8,0.6 0.8,1.4c0.1,0.3 0.5,0.3 0.7,0.5c2.2,3.7 4.7,7 8.4,9.2c0.1,0.3 0.4,0.4 0.4,0.7c0.8,0 1.1,0.4 1.5,0.9c1.3,0.7 2.8,1.4 4.3,2c1.5,0.6 3,1.6 4.5,1.4c-1.9,-1.3 -5.6,-2.2 -7.6,-3.8c-0.3,-1.6 -0.3,-3.3 0.5,-4.7c0.5,1.5 -0.2,4.1 1.1,4.9c0.5,-0.2 -0.1,-0.8 -0.1,-1.2c0.3,-3 1.5,-4.9 2.6,-7.1c-1.8,0.8 -1.8,3.5 -2.7,5.2c-0.5,-1.9 -0.1,-4.8 1.1,-5.6c0.5,0 0.6,0.2 1,0c0.2,-0.6 -0.6,-0.4 -0.7,-0.7c-0.9,0.1 -2.2,-0.6 -3.1,-1.3c-1.3,-1 -2.8,-3.5 -2.8,-4.5c0,-0.5 0.6,-2.1 0.9,-2.7c1.2,-2.7 3.9,-5 5.9,-6.5c1.2,0.4 2.2,0.9 3.1,1.6c0.3,0.1 0.4,-0.1 0.7,-0.1c1.8,1.1 3.9,1.7 6,2.2c3,0.8 6,2.2 6.8,4.7c0.1,0.3 0,1 1.9,2.7c0.8,0.6 2,0.9 2.8,1.5c-0.6,0.6 -1.6,-1 -2.5,-0.4c0.8,0.9 2.5,1.1 3.8,1.6c-0.1,0.5 -0.9,0.3 -1.3,0.6c-0.1,-1 -1.6,-0.7 -2.4,-1.1c-0.1,0.6 1.3,0.9 2,1.1c-2.7,1.5 -6.5,1.9 -7.8,4.9c-1.3,0 -2.9,-0.8 -3.8,-0.4c0.3,1.1 2.5,0.4 3.4,0.9c-0.6,1.8 0.9,3.3 1.7,3.4c0.1,0.4 -0.3,0.4 -0.4,0.7c0.3,0.9 5.3,5.1 7.9,6.1c5.4,2.1 12.7,2.7 19.1,-1.6c-0.5,-0.8 0.4,-1.3 0.8,-1.8c0.3,0.1 -0.1,0.8 0.4,0.7c0.7,-1 1.6,-1.9 2.3,-2.9c-1.1,0.4 -1.4,1.5 -2.4,2c1,-2.1 3.3,-2.9 4.9,-4.4c0.2,0 0.2,0.1 0.3,0.1c0.5,-0.2 1,-1 1.6,-0.6c-0.3,0.3 -0.8,0.3 -1.2,0.5c-0.2,0.4 0.6,0.3 0.2,0.5c-1.3,1.1 -2.6,2 -3.9,3.1c0.1,0.3 0.2,0.5 0.6,0.5c0.6,-0.6 1,-1.5 1.8,-1.9c0.6,0.2 1,0.1 1.4,-0.2c0,-0.5 -0.2,-0.9 0.3,-1c0.3,0.1 -0.2,0.3 0,0.6c0.7,0.1 0.9,-0.5 1.3,-0.8c1.6,-0.2 8,-2.2 10.9,-4.4c3.1,-0.5 4.6,-2.8 6.8,-4.4c-0.7,-0.1 -0.8,0.5 -1.4,0.5c1,-2.8 3.2,-4.2 6.4,-4.6c0,0.4 -0.6,0.2 -0.7,0.5c1.4,0.5 2.8,-1 4.5,-0.9c-1.2,0.9 -2.8,1.2 -4.2,1.8c2.1,0.4 3.4,-1.6 5.4,-1.3c-1.2,1 -3.1,1.3 -4.6,1.9c1.5,0.3 2.6,-0.8 4.3,-0.8c-0.8,0.6 -2,0.9 -2.8,1.5c0.8,0 2.1,-0.4 3.1,-0.6c-1.4,1.4 -4.4,1.1 -6.1,2.2c1.8,-0.2 3.9,-1 6.1,-1.2c-1.7,1.2 -4.7,1 -6.3,2.3c0,0.2 0.2,0.2 0.2,0.4c0.7,-0.5 2.5,-1.5 3.4,-0.8c0.8,-0.5 1.6,-1 2.8,-0.9c-1.3,0.8 -3.4,1.4 -5.3,2c-0.5,0.1 -1.3,-0.1 -1.4,0.6c0.9,0.2 1.7,-1 3,-0.5c1,-0.7 2.5,-0.9 4.1,-1c-2,1.6 -5.7,1.3 -7.7,2.8c0.9,0.3 2.1,-1.1 3,-0.5c2.1,-0.6 4.1,-1.4 5.9,-2.3c-0.2,-0.3 -0.5,0.2 -0.9,0.1c0.1,-0.2 0.4,-0.2 0.1,-0.5l-1.2,0c1.1,-0.5 2.1,-1.1 3.6,-1.2c0.1,1.2 -0.3,1.4 -0.4,1.9zm-2.4,-1.4c0.8,-0.7 2.2,-0.8 3.1,-1.4c-1,-0.3 -1.9,0.8 -3.1,0.3c1.2,-0.9 3.2,-1 4.5,-1.8c0.3,2 -2.3,2.9 -4.5,2.9zm4.4,-3c-1.3,0.1 -2.3,0.6 -3.6,0.7c0.8,-0.7 2.2,-0.7 2.9,-1.5c-1.3,0.1 -2.9,0.8 -4.5,1c1.6,-0.8 3.6,-1.2 5.6,-1.6c0.6,0.3 -0.2,0.9 -0.4,1.4zm11.4,-6.1c-1.5,1.1 -3.4,1.2 -5.4,1.8c0,-0.8 0.8,-0.7 1,-1.3c-1.3,-0.2 -1.5,1.9 -3.3,1.6c0.9,-1.5 2.4,-2.3 3.6,-3.4c-1,-0.7 -1.6,1.1 -2.5,1.3c-0.8,0.8 -1.2,2 -2.6,2.1c1,-2 3,-2.9 4.1,-4.7c-2.1,0.5 -3.1,3.3 -5,4.4c1,-2.7 4.2,-4.2 6,-6.4c-0.9,-0.2 -1.5,0.7 -2.1,1.2c-0.6,0.5 -1.2,1.1 -1.8,1.7c-1.1,1.2 -1.9,2.9 -3.6,3.3c1.3,-1.6 3.8,-5.7 6,-6.5c1.2,-0.4 3.7,-0.3 4.8,0.3c0.8,0.5 0.8,1.6 1.4,2.5c-0.1,0.8 -0.6,1.2 -0.6,2.1z" fill="#2f2016" clip-rule="evenodd" fill-rule="evenodd"/>
   <path id="svg_59" d="m25.1,79c-0.2,-0.9 -0.5,-2.1 -0.5,-3.3c0.1,-1.3 1.1,-2.5 0.9,-3.2c-1.4,1.4 -1.9,4.4 -1.9,6.9c0.2,0.3 0.4,0 0.8,0c-0.1,0.5 0.1,0.7 0.3,0.8c0.4,0 0.3,-0.5 0.8,-0.4c0,-2.5 0.9,-4.9 1.9,-6.7c-1.6,1 -1.6,3.8 -2.3,5.9z" fill="#404045" clip-rule="evenodd" fill-rule="evenodd"/>
  </g>
 </g>
</svg>