<svg width="120" height="120" xmlns="http://www.w3.org/2000/svg">

 <g>
  <title>background</title>
  <rect fill="none" id="canvas_background" height="402" width="582" y="-1" x="-1"/>
 </g>
 <g>
  <title>Layer 1</title>
  <g id="svg_1">
   <path id="svg_2" d="m72.5,25.5c-0.8,-0.5 -1.2,0.5 -0.8,1c0.7,0.1 0.8,-0.4 0.8,-1z" fill="#b89d64" clip-rule="evenodd" fill-rule="evenodd"/>
   <path id="svg_3" d="m58.7,29.4c0.4,0 0.4,0.3 0.9,0.3c0.4,-0.3 0.4,-1.1 0.5,-1.8c-0.7,0.2 -1.3,0.5 -1.4,1.5z" fill="#b89d64" clip-rule="evenodd" fill-rule="evenodd"/>
   <path id="svg_4" d="m66.1,29c0.4,-0.1 0.4,-0.5 0.4,-1c-0.4,-0.3 -1,-0.1 -1.1,0.3c0,0.4 0.2,0.7 0.7,0.7z" fill="#b89d64" clip-rule="evenodd" fill-rule="evenodd"/>
   <path id="svg_5" d="m61.2,29.5c0.5,-0.1 0.8,-0.9 0.5,-1.4c-0.9,-0.5 -1.5,1.2 -0.5,1.4z" fill="#b89d64" clip-rule="evenodd" fill-rule="evenodd"/>
   <path id="svg_6" d="m63.4,30.4c0.1,-0.9 -0.6,-1 -0.3,-1.9c-1.4,-0.9 -0.9,1.4 -0.6,2c0.5,0.1 0.6,-0.1 0.9,-0.1z" fill="#b89d64" clip-rule="evenodd" fill-rule="evenodd"/>
   <path id="svg_7" d="m65.1,29.9c0,-0.2 0,-0.4 0,-0.6c-1.3,-1.1 -1.5,1.3 0,0.6z" fill="#b89d64" clip-rule="evenodd" fill-rule="evenodd"/>
   <path id="svg_8" d="m63.4,31.4c0.2,0.3 0.9,0.3 1.3,0.1c0.4,-1.1 -1.5,-1.2 -1.3,-0.1z" fill="#b89d64" clip-rule="evenodd" fill-rule="evenodd"/>
   <path id="svg_9" d="m65.1,31.9c0.1,0.5 0.1,1.2 0.9,1c0.5,-0.6 -0.2,-1.5 -0.9,-1z" fill="#b89d64" clip-rule="evenodd" fill-rule="evenodd"/>
   <path id="svg_10" d="m63.2,32.6c0,0.6 0.3,0.9 0.9,0.9c0.5,-0.9 -0.2,-1.5 -0.9,-0.9z" fill="#b89d64" clip-rule="evenodd" fill-rule="evenodd"/>
   <path id="svg_11" d="m51.9,43.9c0.7,-0.2 0.4,-1.5 -0.1,-1.7c-0.6,0.3 -0.8,1.5 0.1,1.7z" fill="#b89d64" clip-rule="evenodd" fill-rule="evenodd"/>
   <path id="svg_12" d="m53.7,44.5c0.2,-0.5 0.2,-1.6 -0.4,-1.7c-0.3,0.4 -0.7,0.7 -0.6,1.4c0.1,0.3 0.5,0.4 1,0.3z" fill="#b89d64" clip-rule="evenodd" fill-rule="evenodd"/>
   <path id="svg_13" d="m58.2,44.9c1.7,-0.3 -0.6,-2.8 -0.6,-0.9c0,0.2 0.1,0.7 0.6,0.9z" fill="#b89d64" clip-rule="evenodd" fill-rule="evenodd"/>
   <path id="svg_14" d="m55.4,44.5c0.1,-0.5 -0.4,-0.6 -0.3,-1.1c-0.7,-0.1 -0.8,0.4 -1,0.8c0.3,0.2 0.8,0.7 1.3,0.3z" fill="#b89d64" clip-rule="evenodd" fill-rule="evenodd"/>
   <path id="svg_15" d="m56.5,45c0.5,-0.1 0.7,-0.4 0.8,-0.6c0.3,-2 -2.6,-0.2 -0.8,0.6z" fill="#b89d64" clip-rule="evenodd" fill-rule="evenodd"/>
   <path id="svg_16" d="m52.5,45.5c-0.4,-0.3 -1.3,-1 -1.7,-0.3c0,1 1.6,1.3 1.7,0.3z" fill="#b89d64" clip-rule="evenodd" fill-rule="evenodd"/>
   <path id="svg_17" d="m70.3,45.6c-0.3,-0.3 -0.8,0 -1.1,0.1c0,0.3 0,0.7 0.1,0.9c0.7,0.1 1,-0.3 1,-1z" fill="#b89d64" clip-rule="evenodd" fill-rule="evenodd"/>
   <path id="svg_18" d="m68.9,47.6c0.2,-1.4 -1.3,-0.9 -1.1,0.1c0.4,0.2 0.8,0.1 1.1,-0.1z" fill="#b89d64" clip-rule="evenodd" fill-rule="evenodd"/>
   <path id="svg_19" d="m67.1,48.1c-0.2,0 -0.1,-0.3 -0.3,-0.4c-0.8,-0.1 -1,0.6 -0.8,1.3c0.8,0 1,-0.4 1.1,-0.9z" fill="#b89d64" clip-rule="evenodd" fill-rule="evenodd"/>
   <path id="svg_20" d="m64.7,48.7c-0.7,0 -0.8,1 -0.5,1.7c1.1,0.3 1.4,-1.5 0.5,-1.7z" fill="#b89d64" clip-rule="evenodd" fill-rule="evenodd"/>
   <path id="svg_21" d="m63.1,50.2c-1.1,-0.2 -0.9,0.8 -0.9,1.7c1.1,0.6 1.3,-0.9 0.9,-1.7z" fill="#b89d64" clip-rule="evenodd" fill-rule="evenodd"/>
   <path id="svg_22" d="m95.4,62.4c0.4,-0.2 0.6,-0.8 0.4,-1.3c-0.7,-0.1 -1,0.3 -1,0.9c0.2,0.2 0.3,0.4 0.6,0.4z" fill="#b89d64" clip-rule="evenodd" fill-rule="evenodd"/>
   <path id="svg_23" d="m26.9,65.1c0.5,0.2 0.7,0 1,-0.3c-0.2,-0.6 -0.2,-1.1 -0.3,-1.7c-0.3,-0.1 -0.6,-0.3 -0.9,0c0.3,0.7 0,1.5 0.2,2z" fill="#b89d64" clip-rule="evenodd" fill-rule="evenodd"/>
   <path id="svg_24" d="m94.2,66.7c0.2,-0.2 0.1,-0.7 0.1,-1c0.2,0 0.3,0.1 0.5,0.1c0.1,-0.4 0.5,-0.4 0.4,-1c-0.6,-0.3 -1.2,-0.1 -1,0.8c-0.5,0 -0.8,0.3 -0.8,0.8c0.1,0.2 0.3,0.4 0.8,0.3z" fill="#b89d64" clip-rule="evenodd" fill-rule="evenodd"/>
   <path id="svg_25" d="m25.8,67.6c1.9,-1 -1.3,-1.4 0,0l0,0z" fill="#b89d64" clip-rule="evenodd" fill-rule="evenodd"/>
   <path id="svg_26" d="m27.7,68.4c-1,-0.2 -1,0.9 -0.5,1.3c0.7,-0.1 0.7,-0.8 0.9,-1.3c0.3,-0.1 0.3,0.2 0.6,0.1c0.2,-0.3 0.2,-1.1 -0.1,-1.3c-0.8,-0.1 -0.9,0.5 -0.9,1.2z" fill="#b89d64" clip-rule="evenodd" fill-rule="evenodd"/>
   <path id="svg_27" d="m30.7,67.5c-0.7,-0.4 -1.3,0.5 -1,1.1c0.6,0 1,-0.4 1,-1.1z" fill="#b89d64" clip-rule="evenodd" fill-rule="evenodd"/>
   <path id="svg_28" d="m92.5,68.5c0.3,-0.2 0.6,-0.4 0.5,-1c-0.5,-0.3 -1.1,0 -1.1,0.5c0.2,0.2 0.3,0.5 0.6,0.5z" fill="#b89d64" clip-rule="evenodd" fill-rule="evenodd"/>
   <path id="svg_29" d="m24.2,68.4c0.5,0.1 0.6,-0.2 0.5,-0.6c-0.4,0 -0.5,0.2 -0.5,0.6z" fill="#b89d64" clip-rule="evenodd" fill-rule="evenodd"/>
   <path id="svg_30" d="m25.8,68.4c-0.2,0 -0.4,0 -0.6,0c-0.3,0.3 -0.1,0.7 0,1c0.6,0.1 0.7,-0.4 0.6,-1z" fill="#b89d64" clip-rule="evenodd" fill-rule="evenodd"/>
   <path id="svg_31" d="m29.6,70.4c0,-0.2 0.3,-0.1 0.5,-0.1c0.1,-0.2 0.1,-0.4 0.1,-0.8c0.3,0.1 0.4,0.4 0.9,0.4c0.4,-0.3 0.2,-0.7 0.1,-1.1c-1.1,-0.1 -1.3,0.6 -2.2,0.8c0.1,0.4 0.3,0.7 0.6,0.8z" fill="#b89d64" clip-rule="evenodd" fill-rule="evenodd"/>
   <path id="svg_32" d="m32.9,71.3c0.1,-0.4 -0.1,-0.6 -0.1,-0.9c-0.4,0 -0.6,0.2 -0.9,0.3c0,0.2 0,0.4 0,0.6c0.2,0.2 0.9,0.2 1,0z" fill="#b89d64" clip-rule="evenodd" fill-rule="evenodd"/>
   <path id="svg_33" d="m36,73c0,-0.5 -0.6,-0.5 -1,-0.5c-0.1,0.1 -0.1,0.4 -0.1,0.8c0.2,0.1 1.2,0.2 1.1,-0.3z" fill="#b89d64" clip-rule="evenodd" fill-rule="evenodd"/>
   <path id="svg_34" d="m38,74.2c0.3,-0.3 0.1,-0.8 0,-1.1c-0.5,-0.1 -0.6,0.1 -0.9,0.3c-0.1,0.5 0.1,0.6 0.3,0.9c0.2,-0.1 0.4,-0.1 0.6,-0.1z" fill="#b89d64" clip-rule="evenodd" fill-rule="evenodd"/>
   <path id="svg_35" d="m76.5,76.4c0.2,-1.4 -1.6,-0.8 -0.9,0.3c0.3,-0.1 0.7,-0.2 0.9,-0.3z" fill="#b89d64" clip-rule="evenodd" fill-rule="evenodd"/>
   <path id="svg_36" d="m80.7,76.8c0.5,-0.1 0.8,-0.3 0.9,-0.8c-0.3,-1.1 -1.7,0.1 -0.9,0.8z" fill="#b89d64" clip-rule="evenodd" fill-rule="evenodd"/>
   <path id="svg_37" d="m48.2,76.8c-0.3,-0.7 -1.2,-0.9 -1.3,0.1c0.3,0.1 0.4,0.5 0.9,0.5c0.1,-0.2 0.3,-0.4 0.4,-0.6z" fill="#b89d64" clip-rule="evenodd" fill-rule="evenodd"/>
   <path id="svg_38" d="m71.3,77.8c0.1,-0.5 -0.3,-0.5 -0.4,-0.9c-0.6,-0.1 -0.8,0.2 -0.8,0.8c0.3,0.1 0.9,0.4 1.2,0.1z" fill="#b89d64" clip-rule="evenodd" fill-rule="evenodd"/>
   <path id="svg_39" d="m51.8,78.4c0.5,-0.1 0.8,-0.4 0.8,-1c-0.7,-0.8 -1.6,0.5 -0.8,1z" fill="#b89d64" clip-rule="evenodd" fill-rule="evenodd"/>
   <path id="svg_40" d="m75.4,78.5c0.3,-0.1 0.4,-0.4 0.4,-0.9c-0.7,-0.9 -1.7,1 -0.4,0.9z" fill="#b89d64" clip-rule="evenodd" fill-rule="evenodd"/>
   <path id="svg_41" d="m47.4,78.2c-0.2,-0.7 -1.3,-0.4 -1,0.5c0.2,0.1 1,-0.1 1,-0.5z" fill="#b89d64" clip-rule="evenodd" fill-rule="evenodd"/>
   <path id="svg_42" d="m47.9,79.3c0.4,0 0.8,-0.1 0.8,-0.5c-0.1,-1.1 -1.6,-0.1 -0.8,0.5z" fill="#b89d64" clip-rule="evenodd" fill-rule="evenodd"/>
   <path id="svg_43" d="m55.3,79.9c0.6,0 0.8,-0.8 0.5,-1.3c-0.2,0 -0.4,0 -0.6,0c-0.3,0.4 -0.2,1.2 0.1,1.3z" fill="#b89d64" clip-rule="evenodd" fill-rule="evenodd"/>
   <path id="svg_44" d="m60.3,79.2c-0.1,-0.6 -1.6,-0.5 -1.3,0.4c0.4,0.3 1.3,0.3 1.3,-0.4z" fill="#b89d64" clip-rule="evenodd" fill-rule="evenodd"/>
   <path id="svg_45" d="m50.5,79.8c0.1,-0.5 -0.1,-0.6 -0.3,-0.9c-1,-0.2 -1.2,0.5 -0.8,1c0.4,0 0.9,0.1 1.1,-0.1z" fill="#b89d64" clip-rule="evenodd" fill-rule="evenodd"/>
   <path id="svg_46" d="m51.9,92.8c0,0.2 -0.2,0.2 -0.1,0.5c0.2,0.2 0.6,0.2 0.8,0c-0.1,-0.4 -0.3,-0.6 -0.7,-0.5z" fill="#b89d64" clip-rule="evenodd" fill-rule="evenodd"/>
   <path id="svg_47" d="m53.1,95.1c-0.2,0.2 -0.3,0.4 -0.3,0.9c0.9,0.2 0.9,-0.9 0.3,-0.9z" fill="#b89d64" clip-rule="evenodd" fill-rule="evenodd"/>
   <path id="svg_48" d="m98,57c-1.3,-0.4 -3.4,-0.3 -4.1,-1.9c-0.4,-1.1 -0.1,-2.3 -0.4,-3.4c-0.3,-1.5 -1.2,-2.6 -1.8,-3.9c-1,-2.4 -1.6,-4.2 -3.1,-5.9c-0.7,-0.8 -1.9,-1.9 -3,-2.1c-0.6,0.2 -0.1,1.6 -0.4,2.2c0.2,-1.8 -0.8,-3.5 -1.3,-5c-0.3,-0.9 -0.4,-1.8 -0.6,-2.2c-0.2,-0.3 -0.8,-0.4 -1.1,-0.6c-1.1,-0.8 -2.3,-2.5 -3.6,-3c-1.2,-0.6 -2.7,-0.5 -3.7,-1.4c-0.2,-6 -5.2,-11.8 -11.6,-8.4c-0.1,-2.8 1.1,-5.2 2.9,-6.5c1.4,-0.2 2.8,-1.1 2.9,-2.2c-0.4,-0.8 -2,0 -2.8,0c-2.3,1.9 -4.3,5.1 -4.1,8.6c-2.4,-0.4 -3.8,0.1 -5.5,1c-2.6,1.4 -4,2.3 -4.7,5.2c-0.2,0.8 -0.7,1.6 -0.8,2.4c0,0.8 0.3,1.7 0.4,2.5c-2.3,0.6 -3.8,1.9 -5.5,3c-1.8,-0.1 -3.6,0.7 -5.2,1.1c-0.5,1 0.4,2.4 -0.1,3.7c-1.5,0.5 -4,-0.3 -5.5,0.3c-0.6,2 -0.1,4.2 0.5,5.8c-2.3,1.6 -6.5,1.2 -6.7,4.3c-0.1,0.6 0.3,1.2 0.4,1.8c0.1,0.6 0,1.3 0.3,1.9c0.3,0.6 0.8,0.8 0.8,1.4c0,1.3 -2.4,2.2 -3.4,2.7c-1.4,0.5 -2.9,0.8 -4.1,1.4c-0.6,2.2 -2.5,3.1 -3.8,4.6c-0.1,1 0.7,1.3 1,1.9c-0.1,1 -1.2,1.8 -1.3,2.9c-0.1,1.4 1.5,3.2 2.2,4.4c3.3,5.9 10.5,22.6 11.1,24c0.5,0 8.4,4.1 9.1,4.4c1.4,0.6 2.4,1.3 4.3,1.1c0.4,0.2 1.1,0.3 1.7,0.4c1.6,0.2 3.3,0.8 5,1c0.9,0.1 1.9,-0.1 2.9,0c0.8,0.1 1.5,0.4 2.3,0.5c1.9,0.2 4.8,0.3 6.7,0.1c2.9,-0.2 9.3,-0.8 9.8,-1c1.4,-0.5 9.2,-1.3 14.7,-7.7c1.4,-4.1 2.5,-8.5 4.3,-12.2c0.6,-3.8 2.1,-6.7 3.4,-9.7c1,-3.2 2.2,-7 3.6,-9.5c0.7,-1.3 1.3,-2.3 1.7,-3.4c-2.2,-0.4 -2.7,-2.8 -3.8,-4.6zm-7.1,2.5c0.9,-0.2 1.1,0.8 0.6,1.3c-0.4,0 -0.4,-0.3 -0.8,-0.4c0,-0.4 0.1,-0.6 0.2,-0.9zm0.1,3c-0.6,0.1 -0.7,-0.3 -1,-0.5c0,-1.4 1.8,-0.3 1,0.5zm-1.8,0.4c1.5,-0.1 1.3,1.3 0.8,2.2c-0.6,-0.4 -1.2,-1.4 -0.8,-2.2zm-0.2,3.8c-0.3,-0.5 -0.5,-1.7 -0.5,-2.2c0.4,0.5 0.8,1.5 0.5,2.2zm-3.2,-21.1c-0.2,-0.3 -0.8,-0.2 -1.1,-0.4c0.1,-0.5 0.2,-1 0.3,-1.5c0.5,-0.1 0.4,0.4 0.4,0.8c1.6,0.8 2.3,3.2 2.5,5.3c0.7,7.6 -2.5,15.1 -7.2,17.3c1,-2.2 3.1,-3.4 3.7,-6c2.4,-1.7 1.7,-6.7 3.2,-9.4c-0.8,-2 -1,-3.9 -1.8,-6.1zm1.4,22.3c-0.2,-0.7 -0.3,-2.2 0.4,-2.4c0.6,0.3 0.5,2.4 -0.4,2.4zm-1.7,1.8c-0.2,-0.8 -0.1,-2.3 0.4,-2.8c0.2,0 0.2,0.1 0.4,0.1c0.3,0.9 0.1,2.4 -0.8,2.7zm-1.5,0.1c0.1,-0.8 -0.1,-1.8 0.5,-2.2c0.7,0.5 0.3,2 -0.5,2.2zm-2.3,-0.9c0.3,-0.2 0.6,-0.4 0.9,-0.6c0.4,0.7 0,2.5 -1.1,2.4c0.1,-0.6 0.3,-1.1 0.2,-1.8zm-2.9,-19.3c0.4,-0.3 0.9,-0.5 1.7,-0.5c0,0.9 -1.2,0.2 -1.7,0.5zm1.5,5.1c-0.4,-0.1 -0.2,0.3 -0.6,0.3c-0.2,-0.4 -0.1,-1.4 0,-1.8l0.3,0c0.5,0 0.4,1.1 0.3,1.5zm-1.2,7.1c0.8,-0.3 1.8,3.3 0.8,3.8c-0.1,-0.8 -1.7,-3.5 -0.8,-3.8zm0.7,4.7c0.4,0 0.1,0.8 0.5,0.8c-0.6,0.7 -1.3,1.4 -2.2,1.9c-0.2,-1.2 2.1,-1.4 1.7,-2.7zm0.9,2.9c0.7,0.9 -0.4,2.1 -1.7,1.9c0.5,-0.8 1.1,-1.4 1.7,-1.9zm1.3,-6.6c-0.7,-0.8 -0.9,-2.1 -1.1,-3.3c0.5,0.9 1.2,1.7 1.1,3.3zm-0.3,-10.7c-0.1,0.5 -0.2,0.9 -0.6,1c-0.4,-0.4 0.1,-1.4 0.6,-1zm0.4,-6.7c0,-0.3 0.3,-0.3 0.6,-0.3c0.1,0.5 -0.4,0.5 -0.6,0.3zm0.8,4.3c0.6,0.3 -0.1,1.3 -0.5,1.4c-0.1,-0.7 0.3,-0.9 0.5,-1.4zm1.1,-1.8c0.2,0.3 0.1,1.3 -0.4,1.3c-0.1,-0.6 0.3,-0.9 0.4,-1.3zm-0.6,12.6c-0.5,-0.1 -0.6,-1.1 -0.4,-1.5c0.4,0.2 0.4,0.9 0.4,1.5zm-0.4,-19c-0.1,0.5 -0.8,0.8 -1.1,0.5c0.1,-0.5 0.6,-0.5 1.1,-0.5zm0.1,2.2c-0.5,0.8 -1.7,0.9 -2.8,1.1c0.7,-0.6 1.6,-1 2.8,-1.1zm-1.8,4.1c-0.8,0.4 -1.9,0.6 -2.9,0.9c-0.2,-1 2.2,-1.3 2.9,-0.9zm-2.7,6.4c0.4,0.4 0.4,1.6 -0.1,1.8c-0.3,-0.8 0.1,-1 0.1,-1.8zm0.2,11.4c-0.4,-0.5 -0.7,-1.1 -0.9,-1.8c0.9,0.1 0.9,0.9 0.9,1.8zm-7.1,-3.3c-0.2,-0.6 0.2,-1.4 0.8,-1.7c0.4,0.4 0.1,1.9 -0.8,1.7zm0.9,7.4c-0.4,0.1 -0.4,-0.3 -0.4,-0.6c0.2,0 0.4,0.2 0.4,0.6zm-0.9,-16c0.4,-0.2 0.6,-0.3 1,-0.1c0.1,1.3 0.8,2.1 0.6,3.7c-0.4,0.1 -0.8,0.1 -1.1,0.3c-0.2,-0.9 -0.4,-1.9 0.3,-2.3c-0.2,-0.7 -1,-0.7 -0.8,-1.6zm1,12.7c0.9,0.3 1.3,1.7 1.1,2.5c-1.2,-0.2 -1.4,-1.5 -1.1,-2.5zm0.8,-5.5c-0.1,-0.7 0,-1.3 0.5,-1.5c0.5,0.3 0,1.5 -0.5,1.5zm0.5,-4.2c-0.1,-1.5 0.1,-2.1 0.1,-3.2c0.6,0.4 1.8,3.3 -0.1,3.2zm1.5,1.9c0.5,0.2 0.1,1.2 -0.5,1l0,-0.8c0.1,-0.1 0.5,0 0.5,-0.2zm-0.5,8.5c0.3,0.1 0.4,0.4 0.4,0.9c-0.2,0.1 -0.2,0.4 -0.6,0.3c-0.5,-0.5 -0.1,-0.8 0.2,-1.2zm0.1,-2.1c0.6,0.6 0.9,1.4 1.1,2.3c-0.5,-0.6 -0.9,-1.9 -1.1,-2.3zm0.5,-9.3c-0.1,-0.6 -0.5,-1.5 -0.3,-2l0.4,0c-0.2,0.4 -0.1,1 0.3,1.1c0.6,-0.1 0.6,-0.8 1.1,-1c0.4,1 -0.6,1.7 -1.5,1.9zm0.4,-13.7c0.6,0.1 1.3,0.2 1.4,0.9c-0.6,-0.2 -1.3,-0.3 -1.4,-0.9zm1,1.9c-0.3,-0.3 -1.2,-0.1 -1.1,-0.8c0.5,0.1 1,0.3 1.1,0.8zm-0.6,-3.1c0.7,0.1 1.1,0.4 1.4,0.9c-0.6,-0.2 -1.4,-0.1 -1.4,-0.9zm0.2,15.6c1.2,-1.6 1.2,1.7 0,1.7l0,-1.7zm1.4,10.2c-0.3,0.2 -0.5,0.5 -1,0.4c-0.3,-1 -0.2,-1.7 -0.3,-3c0.9,0.4 1.2,1.5 1.3,2.6zm-0.2,-26.2c-0.8,-0.1 -1.4,-0.3 -1.5,-1c0.4,-0.3 1.1,0 1.4,0.1c-0.1,0.5 0.2,0.5 0.1,0.9zm-0.5,-2c-0.1,0.3 -0.6,0.1 -0.9,0.1l0,-0.5c0.5,0 0.6,0.3 0.9,0.4zm-1.5,-3.7l0.5,0c0,0.1 0,0.2 0.1,0.3c-0.1,0.5 -0.7,0.2 -0.6,-0.3zm1.4,9.9c0.1,0.5 -0.1,0.9 -0.3,1.1c-0.8,0 -1.1,-0.5 -1.5,-0.9c-0.1,-1.3 1.1,-0.2 1.8,-0.2zm-2.2,0.9c0.7,0.1 0.8,0.6 1.3,0.9c0,0.6 -0.4,0.7 -0.5,1.3c-0.6,-0.1 -0.7,-0.7 -1,-1c-0.7,0 -0.2,0.8 -0.1,1.1c-0.3,0 -0.3,0.3 -0.5,0.4c0,0.6 0.6,0.6 0.5,1.3c-0.5,0.1 -0.5,-0.3 -0.9,-0.4c-0.5,0.6 0.4,0.8 0.3,1.5c-0.3,0.2 -0.5,0.5 -1,0.4c-0.3,0 -0.2,0.3 -0.5,0.4c-1.1,2.1 -3.4,2.9 -5,4.4c0,0.2 0.2,0.3 0.5,0.3c0.5,-0.3 0.6,-0.9 1.3,-1c-0.5,1.5 -3.1,2.2 -4.3,3.4c-0.4,0.1 -0.4,-0.2 -0.6,-0.3c-1.8,1 -3.2,2.4 -5.5,2.9c-0.1,-0.9 0.8,-0.7 0.8,-1.5c-1.3,0.2 -1.5,2.7 -3.7,2.4c0.1,-0.8 0.7,-1 0.9,-1.8c-0.9,0 -1.3,1.7 -1.9,2.4c-0.8,-0.1 -1.3,0.4 -1.9,0.1c0,-0.6 0.6,-0.7 0.8,-1.3c-1.5,-0.3 -1.1,2.5 -2.9,2.3c-0.1,-0.9 1.6,-0.8 0.9,-1.9c-1.5,1.2 -2.4,2.8 -5.3,2.5c-0.3,-0.3 0.3,-0.5 0.1,-1c3,-1.8 6.8,-2.8 10,-4.3c2.2,0.6 3,-1.3 4.8,-1.5c2.4,-1.5 5.3,-3 7.7,-4.8c0,-0.3 0.2,-0.5 0.1,-0.9c2.5,-1.3 4,-3.9 5.6,-6.3zm-23.9,22.6c-0.4,-0.1 -0.3,0.4 -0.8,0.3c-0.1,-0.6 0.3,-0.8 0.4,-1.3c0.6,-0.1 0.4,0.6 0.4,1zm6.9,1c1.1,-1.8 3.9,-1.1 5.2,-2.7c-0.2,-0.4 -0.4,0.1 -0.8,0c0.3,-0.9 -0.2,-0.8 -0.6,-1.1c0.3,-1.5 0.6,-3 1.4,-3.9c-0.1,0.9 -1.5,3 -0.5,4.3c0.8,0.1 2,-0.1 2.3,-0.1c-0.3,0.5 -1,0.6 -1.5,0.9c0,0.3 0,0.6 0.3,0.6c-1.9,1.4 -5.4,1.3 -5.8,4.3c0,0.3 0.3,0.3 0.5,0.4c0.5,0 0.5,-0.5 0.6,-0.8c1.2,1 3,0.3 4.2,-0.1c0.1,-0.5 -0.3,-0.5 -0.3,-0.9c0.2,0 0.4,0 0.4,-0.1c0.6,0 0.2,1.1 0.9,1.1c0.4,0 0.8,-0.1 0.8,-0.5c0.1,-0.8 -0.4,-0.2 -0.5,-0.6c0,-0.4 0.5,-0.4 0.9,-0.4c0,1.1 0.6,1.4 0.9,2.2c-0.4,0.1 -0.2,-0.4 -0.5,-0.4c-0.7,0.5 -1.3,1.1 -2.3,1.3c-0.3,-0.1 -0.6,-0.3 -0.9,-0.5c-2.1,-0.3 -3.9,0.9 -6,0.4c-2.7,0.6 -5.3,0.4 -8.3,0.6c0,-0.3 -0.5,-0.2 -0.5,-0.5c0.3,-0.5 1,-0.6 1.1,-1.3c3.2,0 5.7,-1.8 9,-2.2zm-2.9,-1.6c-0.4,0 -0.5,-0.3 -0.8,-0.4c0.2,-1.2 0.8,-2 1.4,-2.8c0.2,1 -0.9,1.8 -0.6,3.2zm2.4,-4.1c-0.3,1.2 0.1,3 -1,3.7c-1.1,-1.3 0,-2.9 1,-3.7zm2.4,1.2c-0.1,0.6 0.2,1.8 -0.8,1.7c-0.2,-1.4 0.6,-2.8 1.1,-3.8c0.1,0.1 0.2,0.1 0.3,0.3c-0.1,0.4 -0.4,1 -0.6,1.8zm2.1,-3.1c-0.4,1.2 -0.3,3.9 -1.7,4.4c0.1,-2 0.8,-3.3 1.7,-4.4zm-4.3,4.3c0.1,-1.7 0.4,-3.2 1.8,-3.6c-0.6,1.2 -0.4,3.3 -1.8,3.6zm8.7,-1.9c-0.8,0.1 -1.1,0.6 -1.9,0.6c-0.3,-1.4 0.5,-2.7 1.3,-3.3c0,0.9 -0.8,2.4 0.6,2.7zm2.2,-0.6c0.5,-0.1 0.1,0.7 0.3,1c-1.4,0.7 -2.3,1.8 -3.9,2.3c1.3,-1 2.6,-2 3.6,-3.3zm-1.2,-2c-0.2,0.4 -0.4,0.9 -0.6,1.3c-0.9,-0.2 0.1,-1.8 0.6,-1.3zm-4.1,3.5c-0.8,-0.9 0.3,-3.1 1.3,-3.4c-0.7,0.9 -0.8,2.4 -1.3,3.4zm3.2,4.3c0.4,-0.2 0.3,0.9 0.1,0.9c-0.4,0.1 -0.5,-0.8 -0.1,-0.9zm1.1,1.8c0.5,-0.7 -0.9,-2.2 0.5,-2.3c-0.7,1.4 1.4,2.3 1,0.3c0.1,0.7 0.5,1 0.8,1.8c-1,-0.2 -1.8,0.4 -2.3,1c-0.5,-0.1 -0.9,-0.4 -1.1,-0.8c0.4,-0.5 0.5,0.1 1.1,0zm2.1,-14.6c0.5,0 0.4,0.7 0.1,0.9c-0.7,0 -0.2,-0.5 -0.1,-0.9zm0.1,7.3l0,-1c1.2,-1.4 1.4,1 0,1zm1.3,-8.3c-0.3,0.1 -0.3,-0.3 -0.5,-0.3c0,-0.3 0.2,-0.5 0.5,-0.5l0,0.8zm0.3,0.8c0.1,0.3 0.2,0.8 0.1,1.3c-0.1,0.2 -0.6,0 -0.6,0.3c-0.8,-0.4 0,-1 0,-1.7c0.3,-0.1 0.3,0.1 0.5,0.1zm-0.3,15c-0.5,-0.6 -0.4,-2 -0.8,-2.8c1,0.3 1.9,2.1 0.8,2.8zm-24.2,-4.4c-0.1,-0.1 0.2,-0.9 0.8,-0.8c0.1,0.7 -0.6,0.5 -0.8,0.8zm-1.5,-2.3c-0.6,0 -0.7,-0.6 -1.5,-0.4c0,-0.5 0.3,-0.8 0.5,-1c0.5,0.5 1,0.1 1.7,0.4c-0.1,0.6 -0.4,0.8 -0.7,1zm-0.1,7.2c-0.1,-0.4 0.1,-0.5 0.3,-0.8c0.5,0 0.1,0.9 -0.3,0.8zm-4.1,-7.9c-0.5,-1.3 0.5,-2.3 1.1,-2.9c0.8,1.1 -0.3,2.5 -1.1,2.9zm0.3,7.7c-0.1,-0.5 0.1,-0.9 0.3,-1.1c0.4,0 0.1,1.2 -0.3,1.1zm-1.9,-8.3c-0.2,-1.1 0.7,-2.8 1.7,-2.8c-0.3,1.3 -0.8,2.2 -1.7,2.8zm1.2,6.9c0,0.5 -0.1,0.7 -0.3,1c-0.6,0 -0.5,-0.6 -0.5,-1.1c0.4,0 0.7,0 0.8,0.1zm-3.5,0.4c-0.6,-0.1 -0.5,-1.7 -0.1,-2c0.2,0 0.3,0.2 0.5,0.1c-0.1,0.8 0,1.6 -0.4,1.9zm-1.4,-9c0.3,-1.2 1.2,-1.8 1.6,-2.9l0.4,0c-0.3,1.3 -1.1,2.2 -2,2.9zm0.6,6.7c-0.3,-0.1 -0.1,-0.8 0.3,-0.6c0.1,0.4 -0.2,0.4 -0.3,0.6zm1,-23.3c0.5,-0.1 0.2,0.7 0.3,1c-0.4,-0.1 -0.2,-0.7 -0.3,-1zm0.8,4.5c-0.4,0.7 -0.5,1.7 -1.4,1.9c0.2,-0.8 0.6,-1.5 1.4,-1.9zm-0.9,3.5l0,-0.5l0.4,0c0,0.3 -0.1,0.5 -0.4,0.5zm-0.1,2c-0.8,-0.1 -0.1,-0.7 -0.1,-1.1c0.2,0.1 0,0.7 0.1,1.1zm-1.6,-3.7c0.1,-0.7 0.7,-2 1.7,-2.3c-0.5,0.8 -0.8,1.9 -1.7,2.3zm0.4,1.7c0,-0.4 0.1,-0.8 0.6,-0.8c0.1,0.5 -0.1,0.8 -0.6,0.8zm-0.1,0.7c0.4,0.2 0.3,0.8 0,1c-0.5,0 -0.2,-0.8 0,-1zm1,8.7c0.1,-1.1 0.7,-1.7 1.3,-2.4c0.4,0.6 -0.6,2 -1.3,2.4zm1,-10.8c0,-0.8 0.6,-0.9 0.8,-1.5c0.6,0.3 -0.3,1.3 -0.8,1.5zm0.5,-6.4c0.6,0.3 0.2,1.4 0.4,1.8c-0.7,-0.1 -0.3,-1.5 -0.4,-1.8zm0.2,7.3c0.2,0 0.2,0.1 0.4,0.1c0,0.4 -0.2,0.6 -0.5,0.6c-0.3,-0.3 -0.1,-0.5 0.1,-0.7zm0.1,17.7c0.3,0.3 0.4,0.7 0.4,1.3c-0.5,0 -0.7,-0.9 -0.4,-1.3zm0.2,-11c0.4,-0.1 0.4,0.2 0.8,0.1c0,0.3 -0.3,0.2 -0.3,0.5c-0.3,0 -0.5,-0.2 -0.5,-0.6zm1.2,-8.8c0.1,0.8 -0.4,1.7 -1.1,1.3c0.2,-0.6 0.3,-1.2 1.1,-1.3zm-0.4,-4.6c0.6,0.1 0.5,1.6 -0.1,1.5c-0.3,-0.4 0,-1.1 0.1,-1.5zm-0.1,9.2c0,-0.4 0.2,-0.6 0.3,-0.9c0.5,0 0,0.9 -0.3,0.9zm2,-0.5c0.1,-0.4 0.3,-0.8 0.5,-1.1c0.3,0.3 0,1.1 -0.5,1.1zm0.4,9.3c0.5,-0.1 0.5,0.6 0,0.5c-0.2,-0.3 0,-0.2 0,-0.5zm0.6,6.4c0.7,0.1 0.3,1.5 0.1,1.8c-0.9,-0.1 -0.2,-1.3 -0.1,-1.8zm0.3,-6.2c-0.2,-1.9 0.9,-2.5 1.7,-3.4c0.2,0 0.2,0.1 0.3,0.3c-1,0.8 -0.8,2.6 -2,3.1zm1.4,4.2c-0.4,0.3 0,1.3 -0.6,1.4c0,-0.7 -0.3,-1.6 0.6,-1.4zm1.4,-8.4c-0.4,0.1 -0.4,-0.2 -0.6,-0.3c-0.6,0.5 -1.2,1 -1.7,1.7c-0.3,-0.2 -0.1,-1 0,-1.3c0.3,-0.2 0.7,-0.2 0.8,-0.5c0,-0.4 -0.6,-0.2 -0.8,-0.4c0.3,-1.4 2.6,-1.7 3.8,-1c-0.4,0.8 -1.1,1.1 -1.5,1.8zm-1.5,-5.4c0.3,0.3 0.1,1.1 -0.1,1.3c-0.8,-0.1 -0.1,-1.1 0.1,-1.3zm22.2,-17.3c0.4,0 0.5,0.2 0.8,0.4c-0.8,1 -2.8,1.3 -4.3,1.1c0.9,-0.8 2.8,-0.5 3.5,-1.5zm-3.4,-1.2c0.3,0.1 0.7,0.2 0.6,0.6c-0.6,0.1 -0.9,-0.1 -0.6,-0.6zm2.9,7.2c0.2,-0.4 0.1,-1.1 0.3,-1.5c0.4,0 0.4,1.7 -0.3,1.5zm-1.2,-0.8c-0.3,-0.5 -0.4,-1.4 0.5,-1.3c0.3,0.5 0.1,1.3 -0.5,1.3zm-0.3,1.6c0.2,-0.3 0.1,-0.8 0.8,-0.6c0,0.5 -0.5,0.5 -0.8,0.6zm-1.1,-1.2c0.5,0.4 0.5,1.8 -0.3,1.9c0.4,-0.6 0.2,-1.3 0.3,-1.9zm-0.7,0.1c-0.7,-0.2 -0.7,0.4 -0.8,0.9c-0.4,-0.5 -0.2,-2.3 1,-2c0.1,0.5 -0.1,0.8 -0.2,1.1zm-1.9,-6.4c-0.9,0.3 -0.7,-1.1 -0.4,-1.3c0.4,0.2 0.4,0.8 0.4,1.3zm-0.2,-2.1c0,-0.8 0.8,-1.5 1.4,-1.4c-0.3,0.4 -0.6,0.8 -0.8,1.4l-0.6,0zm-1.1,1c-0.4,-0.8 0.3,-1.5 0.5,-2.2c0.6,0.5 -0.3,1.6 -0.5,2.2zm0.9,2.2c0.2,0.4 0.5,0.7 1.1,0.8c-0.3,0.6 -1,-0.2 -1.5,-0.1c-0.1,-0.5 0.3,-0.4 0.4,-0.7zm0.6,4.4c0.6,0.6 -0.3,1.5 -0.6,1.9c-0.2,-0.5 0.2,-1.5 0.6,-1.9zm1,2.4c0.6,0.1 -0.1,0.7 -0.1,1c-0.5,-0.1 -0.5,0.2 -1,0.1c-0.2,-1.2 1.2,-0.2 1.1,-1.1zm-0.2,5.2c1.7,-0.9 3.5,-1.6 5.1,-2.3c1,-0.8 2,-1.7 3,-2.4c0.3,0.1 0.1,0.7 0.5,0.8c0.8,0.1 0.9,-0.6 1.1,-1c0.6,-0.1 0.9,0.1 1.3,0.3c-2.7,4.2 -6.7,7 -11.4,9.1c0.1,-0.9 0.7,-2.2 -0.1,-2.7c-0.7,0.7 -1,2.4 -1,3.4c-0.8,-0.3 -0.2,-1.9 0,-2.7c-1.2,-0.3 -1.5,1.9 -1.4,2.9c-0.3,0.2 -1.1,0.2 -1.4,0c0.1,-1.1 1.5,-1.9 0.9,-2.8c-1.4,0.3 -1.2,2.1 -1.8,3.2c-0.6,0.2 -0.8,0 -1.3,-0.1c0,-1 0.6,-1.3 0.8,-2.2c-0.4,-0.5 -1,0 -1.5,-0.4c-1.6,0.6 -0.7,3.4 -2.6,3.5c0.1,-1.6 0.9,-2.4 1.4,-3.6c-1.8,-0.5 -2.5,1.1 -3.2,2.2c-0.1,0.8 0.1,1.9 -0.6,2c-0.9,-1.9 1.1,-3 1.7,-4.2c-1.6,0.3 -2.9,2 -2.7,4.6c-0.5,0.1 -0.6,-0.1 -0.9,-0.3c0.2,-1.7 0.9,-2.9 2,-3.6c0.1,-0.4 -0.1,-0.5 -0.3,-0.8c-1.4,0.1 -1,2.5 -2.5,2c0,-0.9 0.8,-1 1.1,-1.5c0.1,-0.3 -0.1,-0.3 -0.1,-0.5c-0.9,0 -1.1,0.5 -1.5,0.9c-0.3,-0.4 -0.7,-0.8 -0.8,-1.4c2.9,-0.9 5.2,0.5 8.8,-0.1c0.3,-0.1 0.8,-0.2 1.1,-0.3c1.6,-0.5 3.7,-0.8 5,-1.3c0.5,0 0.8,-0.4 1.3,-0.7zm11.9,-6.7c-0.9,0 -1.5,0 -2,-0.1c0,-1 0.8,-1.3 2,-1.1c-0.2,0.5 -0.3,0.7 0,1.2zm-0.5,0.9c0,0.7 -1.4,0.1 -1.7,-0.1c0.7,-0.2 1.1,0.1 1.7,0.1zm-5.3,-6.7l0,-0.5c1.8,0.2 2.4,-1.2 3.7,-1.8c-0.7,1.1 -2.3,2.7 -3.7,2.3zm0.9,2.9c0.3,0.5 0,0.9 0,1.3c-0.6,-0.2 0.1,-0.8 0,-1.3zm-1.4,0.9c-0.1,-0.4 0.1,-0.6 0.5,-0.5c0,0.4 -0.1,0.5 -0.5,0.5zm-13.6,15c0.2,-0.8 0.4,-1.6 0.9,-2.2c0.2,0.7 -0.1,2 -0.9,2.2zm-2.7,0.6c-0.7,-0.6 0.2,-1.6 0.4,-2.2c0.2,0.6 -0.2,1.7 -0.4,2.2zm-4.3,0.6c-0.8,-0.1 -0.5,-1.1 0,-1.3c0.6,0.2 0.1,1.1 0,1.3zm-0.5,-3.3c-0.2,0.6 -0.4,1.2 -1,1.4c-0.3,-0.6 0.3,-1.3 1,-1.4zm26.4,-21.4c-0.1,-0.7 1,-1.4 1,-2.4c0.4,0.5 0.2,2.6 -1,2.4zm-10.5,-10c-0.1,0.7 0.2,1 0.3,1.5c-0.7,0.1 -0.6,-0.5 -0.8,-0.9l-0.7,0c-0.3,3.9 5.6,2 6.6,0.1c0.1,-0.6 -0.1,-0.9 -0.5,-1c-0.4,0 -0.5,0.2 -0.5,0.6c-0.4,0 -0.3,-0.6 -0.8,-0.5c-0.5,0 -0.7,0.2 -0.6,0.6c-1,-0.4 -1.3,0.8 -1.9,1.1c-0.1,-0.3 -0.2,-0.6 -0.1,-1c1.7,-2.4 7,-1.8 8.3,0.6c0,0.5 -0.7,0.3 -0.6,0.8c0,0.2 0.1,0.2 0.1,0.4c0.6,0.2 0.6,-0.2 0.9,-0.4c1,1 2.3,3.4 1.7,4.8c-0.5,-0.2 -0.1,-1.1 -0.9,-1c0.1,-0.3 0.5,-0.4 0.6,-0.8c-0.1,-0.4 -0.6,-0.4 -1,-0.5c-0.4,0.2 -0.3,1.2 0.3,1.1c-0.5,0.6 -0.2,1.4 0.4,1.7c-0.6,0.8 -0.7,1.6 -1.3,2.3c0.9,0.5 1.5,2.3 0.1,2.7c-0.1,-0.7 0.2,-0.9 0.1,-1.5c-0.4,-0.2 -1,-0.1 -1.4,-0.4c-0.4,0.1 -0.6,0.5 -0.6,1c-0.5,-0.1 -0.5,0.2 -1,0.1c0.1,-0.3 0.3,-0.6 0,-0.9c-0.6,-0.1 -0.9,0.2 -0.9,0.8c0,0.4 0.5,0.2 0.9,0.3c0,0.4 0.1,0.9 -0.1,1.1c-1,0.2 -1.3,-0.3 -1.8,-0.5c-0.1,0 -0.1,0.1 -0.3,0.1c-0.3,0.1 -0.1,0.7 -0.1,1c-0.9,-0.1 -1,-0.1 -1.5,0.3c-0.1,-0.2 -0.4,-0.3 -0.3,-0.8c0.6,0.2 1.8,0 1.3,-1.1c-1,0 -1.3,0.6 -2.2,0.8c-0.1,-0.3 -0.3,-0.4 -0.3,-0.9c-1.1,0 -0.5,1.6 -1.5,1.7c-0.4,-1.6 1.7,-5 -1.1,-5.1c-0.1,0.9 0.8,0.8 0.6,1.8c-0.5,0 -0.7,-0.4 -1,-0.6c-1.5,0.1 -1,2.2 -2.2,2.7c-0.3,0.4 0.3,0.9 0,1.3c-0.9,-1.5 0.6,-3.8 1.8,-4.6c0,-0.5 -0.1,-0.8 -0.4,-0.9c-1.3,0.7 -1.5,2.4 -2.4,3.4c0,-0.9 0.5,-1.4 0.6,-2.2c-0.1,-0.3 -0.5,0.2 -0.9,0c0.7,-1.2 1.5,-2.3 1.9,-3.8c-0.6,-0.3 -0.9,1.1 -1.7,0.6c0.1,-0.9 1.2,-0.8 1.3,-1.8c-1.4,0 -2.3,1.7 -3.2,2.7c-0.6,-2 2.4,-2.5 2.8,-4.3c0.6,0.1 1,-0.1 1.1,-0.5c0,-0.5 -0.3,-0.8 -0.6,-0.9c-1.3,0.3 -2,1.3 -2.9,2c-0.3,0.1 -0.2,-0.2 -0.3,-0.4c-1.1,0.4 -1.5,1.4 -2.2,2.2c0.9,-3.2 4.4,-4.8 8.9,-4.9zm-6.4,10c-0.3,-1.1 0.9,-1.8 1.3,-2.7c0.1,0 0.2,0 0.3,0.1c-0.6,0.9 -1.2,1.6 -1.6,2.6zm0.5,2c-0.5,-0.2 -0.2,-1.3 0,-1.5c0.2,0.4 0.4,1.2 0,1.5zm-1.2,-4.5c-0.1,0.6 -0.6,0.9 -0.6,1.5c-0.4,-0.4 -0.1,-1.4 0.6,-1.5zm-2.1,-2c-0.1,1 0.4,1.4 1,1.9c0,0.6 -0.6,0.6 -0.8,1c-0.2,1.4 0.7,1.7 0.5,2.8c0.3,0.6 1.5,1 1.1,1.9c-2.1,-0.9 -3.1,-5 -1.8,-7.6zm-2.1,9.4c0.1,0.7 -0.2,1.2 -0.9,1.1c0.1,-0.5 0.2,-1.1 0.9,-1.1zm-0.5,4.2c0.5,0.4 -1.2,1.6 -0.4,2.4c0.5,0.1 0.6,-0.1 0.9,-0.3c-0.3,-1 0.3,-1.5 0.9,-1.9c2.5,0.9 6,0.1 8.4,0.5c-0.1,1 -1.4,1.3 -0.8,2.7c0.1,0.3 0.6,-0.2 1,0c0.1,1 -1.2,0.9 -1.7,0.5c-1.4,0.6 -3.6,0.6 -5.1,0.1c-1.4,2.6 5.1,0.2 6.2,1.7c0.6,0.1 0.2,-0.9 1,-0.6c-0.3,1.8 -3.3,3.4 -5.7,2.8c-2.4,0.4 -5.9,0.7 -7.5,-0.5c-0.5,-0.1 -0.7,0.2 -1.1,0.3c-0.1,-0.4 -0.6,-0.4 -0.6,-0.9c0.8,-1.3 2.5,-0.4 3.8,-1c0.2,-0.3 0.3,-0.5 0.1,-0.9c0.5,0 0.8,-0.3 0.9,-0.6c0,-0.7 -0.8,-0.6 -0.8,-1.4c-0.7,-0.2 -0.6,0.5 -1,0.5c-0.4,-1.6 0.5,-2.6 1.5,-3.4zm-0.9,-6.9c0.2,0.5 -1.1,1.6 -1.8,2c-0.3,-1 1.1,-1.4 1.8,-2zm-1.7,5.3c0.2,0 0.2,0.1 0.4,0.1c-0.2,0.9 -0.7,1.5 -1.1,2.2c-0.4,0.1 -0.3,-0.3 -0.6,-0.4c0.1,-1 0.9,-1.3 1.3,-1.9zm-1.6,-0.8c-0.1,0.6 -0.7,0.8 -1,1.1c-0.4,-0.6 0.5,-0.9 1,-1.1zm-1.1,-0.5c-0.2,0.4 -0.6,1.1 -1,0.9c0.3,-0.4 0.4,-0.9 1,-0.9zm-0.8,-0.8c-0.2,0.6 -0.4,1 -1.1,1c-0.1,-0.1 -0.1,-0.2 -0.3,-0.3c-0.1,-0.7 0.6,-0.7 1.4,-0.7zm-3.2,4c1.9,2.6 5.7,3.1 8.5,4.3c-1,0.4 -2.7,0 -3.8,0.3c-0.4,-0.2 -0.3,-0.8 -0.8,-0.9c-0.4,0.1 -0.4,0.4 -0.8,0.5c-1.1,0 -1.6,-0.6 -2.8,-0.5c-1.8,-1 -4,-1.6 -4.8,-3.6c1.4,-0.1 2.9,-0.2 4.5,-0.1zm-7.8,7.7c0.8,-0.7 2.2,-2 3.6,-1.4c-0.5,1.2 -1.2,2.1 -2,3c-0.5,0.1 -0.1,-0.5 -0.4,-0.6c-0.4,0 -0.5,0.2 -0.8,0.4c-0.5,-0.1 -0.7,-0.6 -1.3,-0.6c0.1,-0.6 0.3,-0.8 0.9,-0.8zm0.9,16.9c0.2,0.1 0.4,0.3 0.5,0.5c-0.2,0.6 -0.2,1.3 -1,1.3c-0.4,-0.7 0.2,-1.4 0.5,-1.8zm0.4,-6.1c-0.1,0.5 -0.4,0.8 -0.6,1.1c-0.4,-0.4 0.2,-1 0.6,-1.1zm-0.3,-1.3c0.1,-0.5 0.4,-0.8 0.5,-1.3l0.4,0c0,0.8 -0.3,1.2 -0.9,1.3zm1.2,2.1c-0.1,0.4 -0.4,0.6 -0.6,0.9c-0.3,-0.3 0.2,-0.9 0.6,-0.9zm-2.2,-8.9c-0.5,0.1 -0.2,-0.5 -0.1,-0.6c0.3,-0.1 0.4,0.5 0.1,0.6zm-1.1,-1.2c0.5,-0.1 0.5,0.6 0.3,0.8c-0.5,0.1 -0.5,-0.6 -0.3,-0.8zm1,6.3c0.2,0.1 0.3,0.2 0.3,0.4c-1.3,1.1 -2,2.9 -3.4,3.9c0.8,-1.7 1.7,-3.3 3.1,-4.3zm-0.9,8c-0.6,-0.2 -0.3,0.4 -0.8,0.4c-0.1,-0.5 0.1,-0.7 0.3,-1c1.3,0.2 0.7,1.6 0.3,2.3c-0.5,-0.7 0.4,-1 0.2,-1.7zm-1.1,-2.2c0.6,0.4 0.1,1.5 -0.5,1.5c-0.4,-0.6 0.2,-1.1 0.5,-1.5zm-1,0.3c0,-0.9 0.5,-1.2 0.8,-1.8c0.4,0.5 -0.2,1.6 -0.8,1.8zm-0.7,-4.7c-0.8,1.1 -2.5,2 -4.1,1.9c1.2,-0.9 2.8,-1.2 4.1,-1.9zm-0.4,1.6c0.4,2.1 -0.2,3.8 0.8,5.1c1.3,0.3 0.6,2.6 2.2,2.7c1.5,1.3 2.7,2.9 4.7,3.7c1.6,1.7 4.5,2.1 6.4,3.6c1.6,0.2 3.1,0.2 4.6,0.4c1.7,0.2 3.4,1.1 5,1.1c0.5,0 1,-0.3 1.5,-0.4c2,-0.2 4.2,0.7 6.4,0c1.1,0.3 2.4,0 3.6,-0.1c8.7,-0.8 16.7,-1.6 22.4,-5.6c1,-0.9 1.8,-2 3,-2.5c2.4,-2.3 3.1,-6.4 4.3,-9.5c1.2,0.2 1.9,0.9 2.7,1.7c-0.3,0.9 -0.2,2.2 1.1,1.9c-0.4,0.6 -1.1,0.9 -1,1.9c-0.3,0.2 -0.7,0.1 -0.9,0.4c0.4,1.4 -0.9,1.8 -0.9,3.2c-0.2,0.2 -0.7,0.1 -1.1,0.1c-0.2,0.9 -0.8,1.4 -1.4,1.9c-0.4,-0.5 -0.9,-0.9 -1.4,-1.3c-1.1,0 -0.5,1.2 -0.1,1.5c-0.1,0.6 -0.9,0.5 -0.5,1.3c-0.6,0.2 -1.1,0.8 -0.8,1.5c-0.3,0.3 -0.8,0.3 -1,0.6c-0.2,-0.2 -0.1,-0.8 -0.4,-0.9l-0.9,0c-0.2,0.5 -0.2,1.2 -0.5,1.5c-0.1,0.4 0.4,0.3 0.4,0.8c-0.2,0.6 -0.6,1.2 -1.1,0.8c-0.1,-0.5 0.5,-0.5 0.1,-0.9c-0.2,-0.4 -0.7,-0.1 -1,0c-0.2,0.7 0.5,0.5 0.4,1.1c-0.2,0.3 -0.4,0.6 -1,0.5c0.1,-0.6 -0.2,-0.8 -0.5,-1c-0.4,0.1 -0.4,0.6 -0.4,1.1c0.1,0.3 0.9,-0.1 0.8,0.5c-1.6,-0.2 -2.6,0.6 -3.9,1c0.5,-1 -0.6,-1.2 -1,-1.7c-0.5,0.4 -1.2,0.5 -1.5,1.1c0,0.4 0.4,0.3 0.5,0.5c0.4,0.1 0.5,-0.2 0.6,-0.4c0.1,0.4 0.6,0.4 0.8,0.8c-0.6,0.4 -1.1,0.2 -2,0.4l0,-1c-0.2,-0.2 -0.7,-0.1 -1.1,-0.1c-0.4,0.1 -0.4,0.8 -0.4,1.4c0.3,0.5 1.1,-0.2 1,0.8c-0.8,-0.4 -2.2,-0.2 -3.4,-0.3c0.2,-0.7 -0.1,-1.1 -0.9,-1.1c-0.4,0.6 -0.6,1.4 -1.3,1.8c-0.4,-0.1 0.1,-1.2 -0.9,-1c-0.5,0.3 -0.2,0.9 0,1.3c-0.2,0.1 -0.5,0.1 -0.5,0.4c-0.6,-0.2 -1.3,-0.3 -1.3,-1.1l-0.8,0c-0.4,0.5 -0.6,1.2 -1,1.8c-0.6,-0.1 -1.2,-0.3 -1.7,-0.5c-0.1,-0.6 0.4,-0.4 0.4,-0.9c0.3,0 0.4,0.2 0.8,0.1c0.6,-0.2 0.4,-1.3 -0.4,-1.1c-0.3,0 -0.3,0.4 -0.3,0.8c-1,-0.1 -1.3,0.4 -1.5,1c-0.8,0 -1,-0.5 -1.7,-0.3c-0.4,-0.6 -0.7,-1.8 -1.7,-1.4c-0.2,0.8 0.4,0.9 0.4,1.5c-0.2,0.6 -1,0.7 -1.7,0.9c0,-0.4 -0.2,-0.9 -0.9,-0.9c-0.6,0.4 -0.3,1.5 -0.5,2.2c-0.3,0.2 -0.9,-0.2 -1,-0.5c1.1,-0.2 0.1,-1.3 0.1,-1.9c-0.5,-0.1 -0.7,0.1 -0.9,0.3c-0.1,0.5 0.2,0.6 0.1,1.1c-1,-0.3 -1.5,-1.2 -2.8,-1.1c0.1,-0.6 0.2,-1.1 -0.1,-1.5c-0.4,0.1 -1,0.1 -1.1,0.5c0.1,0.4 0.5,0.5 0.5,1c-0.4,0.1 -0.7,0.3 -1.3,0.3c-0.1,-0.4 0.2,-0.4 0.1,-0.9c-0.1,-0.1 -0.3,-0.2 -0.6,-0.1c-0.6,0 -0.4,0.6 -0.6,0.9c-0.9,-0.2 -1,0.4 -1.1,0.9c-1.3,-0.7 -1.8,-2.1 -3.6,-2.3c-0.3,-1.2 -1.4,-1.6 -2,-2.4c-0.5,0 -0.4,0.6 -1,0.5c0,-0.5 0,-0.9 -0.3,-1.1c-0.5,0 -0.9,0.2 -1,0.6c0,0.5 0.9,0.1 0.8,0.8c-0.6,0.4 -0.5,-0.3 -1.1,-0.3c0.1,-0.6 0.2,-1.1 0.5,-1.5c0,-0.5 -0.4,-0.6 -0.6,-0.9c-0.1,0 -0.1,0.1 -0.3,0.1c-0.3,0.1 0,0.7 -0.1,1c-0.4,0 -0.6,0.1 -0.8,0.4l0,0.5c0.1,0.3 0.5,0.4 1,0.4c-0.3,0.9 0.5,1.9 -0.5,2.4c-0.6,-1.2 -1.3,-3 -3,-3.4c0,-0.6 0.9,-0.2 0.9,-0.9c0.1,-0.3 -0.3,-0.3 -0.3,-0.5c-0.9,0.2 -1.9,0.2 -2.7,0.5c0,-0.3 -0.4,-0.4 -0.4,-0.8c-0.6,-0.1 -0.5,0.5 -1,0.5c-0.1,-0.3 -0.4,-0.3 -0.6,-0.5c0.4,-0.6 -0.2,-1 -0.5,-1.3c-0.1,-0.5 0.5,-0.3 0.5,-0.8c0.1,-0.4 -0.2,-0.5 -0.4,-0.6c-0.4,-0.1 -0.3,0.3 -0.6,0.4c0,0.4 0,0.6 0.3,0.8c-0.1,0.5 -0.9,0.3 -0.8,1c-0.1,0.4 0.3,0.4 0.6,0.4c0.1,0.6 0.1,0.9 0.4,1.4c-0.5,0 -0.3,0.5 -0.9,0.4c0,-2.9 -1.6,-4.1 -4.1,-4.6c-0.2,-0.6 0.2,-1.2 -0.4,-1.5c-0.4,0.3 -0.8,0.6 -1.5,0.6c-0.5,-1.1 -1.8,-1.5 -2.9,-2c0.4,-0.8 0.9,-1.4 1.4,-2.2c-0.3,-1 -0.7,-1.7 -1.3,-2.4c1.3,-2 2.9,-3.7 5.4,-4.4zm62.5,11.3c-0.2,0.2 -0.7,0.2 -0.9,0c0.2,-0.4 0.7,-0.6 0.4,-1.1c0.2,-0.1 0.5,-0.2 0.8,-0.3c0,0.6 -0.4,0.7 -0.3,1.4zm-5.6,5.7c-0.3,0 -0.5,0 -0.6,-0.1c0,-0.3 0.4,-0.3 0.5,-0.5c0.4,0.1 0.2,0.3 0.1,0.6zm-18.1,4.9c0.1,-0.4 0.4,-0.7 0.8,-0.8c0.3,0.4 -0.4,1.1 -0.8,0.8zm-23.6,-3.4c-0.2,0.2 -0.7,0.2 -0.9,0c-0.1,-0.4 0.1,-0.5 0.3,-0.8c0.3,0.2 0.5,0.4 0.6,0.8zm-19.7,-17.9l0,1.3c-0.6,0.4 -1.1,0.9 -2,1c0.6,-0.7 0.9,-1.9 2,-2.3zm22.6,42.5c-0.9,-0.8 -0.1,-2.6 -1,-3.3c0.4,-0.8 0.3,-2 -0.5,-2.3c-0.1,-0.7 0.3,-0.9 0.3,-1.5c0,-0.4 -0.7,-0.1 -0.9,-0.4c-0.1,-0.6 0.4,-0.5 0.5,-0.9c-0.7,-1.1 0.1,-1.6 -0.4,-2.8c-0.6,-0.1 -0.3,0.6 -0.9,0.5c-0.5,-0.7 0.3,-1 0.6,-1.3c-0.5,-1.1 -1.1,-2 -1.8,-2.9c0.5,0 1,-0.1 1.1,-0.5c-0.1,-0.7 -1.2,-0.5 -1.5,-1c0.1,-0.6 1.3,0.5 1.5,-0.4c-0.2,-0.8 -1.1,-0.8 -1.9,-0.9c-0.1,-0.3 -0.2,-0.6 -0.1,-1c0.3,0.1 1.2,0.3 1.3,-0.1l0,-0.3c-0.2,-0.9 -2.3,0.1 -2.2,-1.3c0.4,-0.1 1.5,0.4 1.4,-0.8c-0.7,-0.4 -2.1,-0.3 -3,-0.1c0.2,1.1 1.3,1.4 1.3,2.8c1.1,1.5 1.4,4 2,6.1c1,3.6 2.6,7.4 2.8,11.8c-2.1,0.1 -3.9,-1.1 -5.7,-1.8c-0.2,-1.6 -0.6,-2.9 -0.5,-4.7c-0.7,-0.4 -1.2,-1 -1.4,-1.9c0.3,-0.3 1.1,-1.3 0.3,-1.7c-0.4,-0.1 -0.5,0.2 -0.5,0.5c-1.2,-0.6 0.3,-1.8 -0.3,-2.8c-0.5,-0.2 -0.7,0.4 -1,0.1c-0.1,-0.6 0.5,-0.4 0.6,-0.8c-0.2,-0.8 -0.7,-0.4 -1.1,-0.5c-0.3,-0.5 0,-1 0.1,-1.4c-0.3,-0.6 -1.3,-0.6 -1.3,-1.6c-0.1,-0.5 0.9,0 0.8,-0.6c-0.3,-0.7 -1.9,-0.6 -1.4,-1.7c0.6,-0.1 0.9,0.7 1.5,0.3c0.2,-1.5 -2.2,-0.4 -2.2,-1.8c0.8,-0.1 0.9,0.5 1.5,0.5c0.2,-0.1 0.3,-0.2 0.4,-0.4c0,-1.2 -1.6,-0.7 -2.3,-1.1c0.1,-0.6 0.8,0.1 1.4,-0.1c0.1,-0.4 -0.1,-0.5 -0.1,-0.8c-0.9,0.1 -1.8,-0.5 -2.5,-1c-0.5,0.1 -0.6,0.6 -0.8,1c0,0.6 0.6,0.5 1,0.8c2,6.5 5.3,11.8 6.7,18.9c-2.6,-0.4 -2.8,-1.4 -3.5,-3.6c-0.1,-0.4 -0.6,-1.5 -0.6,-1.7c-2,-4.4 -3.7,-9.1 -6,-13.2l0,-0.9c-0.1,-0.4 -0.6,-0.4 -0.8,-0.6c-0.2,-0.7 0.6,-0.4 0.6,-0.8c0,-0.7 -1.1,-0.4 -1.5,-0.8c0.1,-0.4 0.8,-0.3 0.9,-0.8c-0.1,-1.2 -1.9,0.1 -1.7,-1.3c0.3,-0.2 1,0.2 1.3,0.4c0.2,-0.2 0.3,-0.4 0.3,-0.9c-1.3,-0.4 -2.5,-1.1 -3.3,-0.1c3.8,7.1 7.9,13.9 10.4,22.4c-0.8,-0.1 -1.3,-0.6 -1.9,-0.9c0.1,-0.5 -4.7,-10.1 -6.9,-14.6c-0.8,-1.8 -1.8,-3.4 -2.7,-5.1c-0.9,-1.7 -2,-3.2 -2.8,-4.8c-0.3,-0.6 -0.9,-1.9 -0.9,-2.4c-0.1,-1.8 2.2,-4 0.5,-5.3c0.4,-1.1 2.2,-2 1.7,0c0.3,0.6 1.1,0.6 1.4,1.1c0,1.8 -1.9,1.7 -1.7,3.7c0.9,0.1 2.3,0.2 2.9,0.9c0.3,1.4 -1,2.4 0.1,3c2.5,-2.4 7.3,-0.5 6.1,3.7c0.1,0.3 0.4,0.5 0.8,0.5c1.5,-2.5 5.9,-1.4 7.2,0.5c0.1,1.2 0.3,2.3 1,2.8c0.6,0.1 0.7,-0.4 0.9,-0.8c2.5,-1.2 6.2,-0.7 7.4,1.4c-0.7,0.8 0.2,2.2 -0.9,2.8c2.9,4.9 3.5,12 3.8,19.2c-1.4,0.1 -2.1,-0.8 -3.9,-0.6zm43.8,-14.9c-1.4,1.1 -1.1,3.8 -2.8,4.6c0,-2.3 1,-4.6 2,-6.2c1.6,-6.8 4,-11.7 6.7,-17.4c-1.5,6.8 -4.1,12.4 -5.9,19zm6.2,-19.7c-1.8,2.4 -2.9,5.6 -4.2,8.5c-0.3,0.7 -1.3,2.4 -1,3.2c-2.3,3.7 -2.9,8 -4.6,12.4c0,0 -1.4,4.8 -1.8,5.6c0.6,-0.4 2,-3 2.1,-3.2l0.3,0c-0.4,3 -3.1,4 -5.6,5.3c-1.4,0.7 -3.2,1.9 -4.7,2c0.5,-0.4 2.3,-9 4.3,-12c-0.1,-0.8 -0.1,-1.1 0.1,-1.8c0.3,-0.2 0.9,-0.1 1,-0.5c-0.3,-0.8 -0.6,-1.5 0,-2.2c0.6,0 1.3,0 1.5,-0.4c0.1,-0.7 -0.7,-0.4 -1,-0.6c0,-0.8 1.3,-0.3 1.5,-0.9c0.1,-0.7 -0.7,-0.5 -0.8,-1l0,-0.5c0.4,-0.5 1.6,-0.1 1.5,-1c-0.7,-0.4 -1.8,0.3 -2.5,0.3c-2.5,6.4 -3.8,14.1 -6.5,20.3c-1.7,0.2 -3,1.4 -4.8,1c-0.3,-1.4 1.4,-2.8 0.6,-4.3c0,-0.6 0.7,-0.4 0.8,-0.9c-0.5,-1.1 -0.4,-2 0.5,-2.5c-0.4,-1 -0.3,-1.4 0.5,-1.9c0.2,-0.4 -0.1,-0.6 -0.3,-1c0,-0.5 0.7,-0.4 0.8,-0.9c-0.1,-0.5 -0.6,-1 -0.3,-1.7c0.7,0 1.3,0 1.3,-0.6c-0.2,-0.7 -0.8,0.3 -1.1,-0.1c0.1,-0.4 0.3,-0.7 0.4,-1c0.8,-0.2 1.8,0.3 1.8,-0.9c-0.2,-0.4 -1.2,0.1 -1.4,-0.3c0.2,-0.9 2.2,0 2.2,-1.1c-0.2,-0.7 -1,-0.2 -1.5,-0.1c-0.3,-0.4 0.1,-0.8 0.1,-1.3c0.6,-0.2 1.3,-0.3 1.9,-0.5c0,-0.7 -0.9,-0.5 -1.4,-0.4l0,-0.8c-0.4,0.1 -0.6,-0.1 -0.9,-0.1c-1.1,1.2 -1,3.7 -1.9,5.1c-0.2,5.7 -2.3,10.5 -3.4,15.6c-1.6,0 -3.8,0.8 -5.3,0.5c0.5,-1.2 0.8,-2.6 0.6,-4.2c0.1,-0.3 0.5,-0.4 0.8,-0.6c0.1,-0.8 -1,-0.4 -0.6,-1.4c0.5,0 1.1,0 1.1,-0.8c0,-0.5 -0.9,-0.1 -1,-0.5c0,-0.7 0.7,-0.1 1.3,-0.3c0.1,-0.9 -0.2,-1.3 -1,-1.3c0.3,-0.2 0,-0.9 0.3,-1.1c0.4,0 1.3,0.6 1.4,-0.1c0.1,-0.6 -0.8,-0.3 -1.3,-0.4l0,-0.8c0.6,0 1.1,0.3 1.4,-0.3c0,-0.9 -1.1,-0.2 -1.3,-0.6c0.1,-1.2 1.7,0 1.9,-1c0.2,-0.9 -1.4,-0.1 -1.4,-0.9c0.4,-0.4 1.8,0.2 1.5,-0.8c-0.4,-0.5 -1.2,0 -1.5,-0.1c0.1,-1.2 2.1,0.2 2.3,-0.8c-0.2,-0.9 -1,-0.5 -1.9,-0.5c0,-0.3 0,-0.7 0.1,-0.9c0.3,-0.2 1.1,0.1 1.8,0c0.1,-0.4 0.1,-0.2 0,-0.6c-0.2,-0.4 -0.8,-0.2 -1.3,-0.3c-0.2,-0.3 0.2,-1 -0.1,-1.4c-0.4,-0.1 -0.5,0.1 -0.8,0.1c-0.5,2 -1.2,4.1 -1.5,6.7c-0.4,3.5 -0.8,6.9 -1.4,10.2c-0.2,0.8 -0.6,1.6 -0.4,2.7c-0.9,0.5 -4.6,0.6 -6.2,0.4c0.4,-2.1 -0.2,-4.5 0.1,-6.7c0.3,-0.5 1,-0.4 0.8,-1.4c-0.1,-0.5 -0.4,0 -0.8,0c-0.1,-0.5 -0.2,-1.4 0,-1.9c0,-0.6 0.3,0.3 0.8,0c0.3,-1 -0.6,-0.6 -0.8,-0.6c-0.2,-0.5 0.1,-1 0,-1.8c0.3,0 0.7,0.1 0.8,-0.3c0.3,-1 -0.9,-0.5 -0.8,-1.4c0.2,-0.7 1.7,0 1.5,-1c-0.3,-0.7 -1.3,0.3 -1.4,-0.3c0.1,-0.7 1,-0.1 1.4,-0.6c0,-0.4 -0.2,-0.7 -0.1,-1.3c0,-0.5 -0.9,-0.3 -1,-0.8c0,-0.8 0.9,0.3 1.1,-0.5c0,-1.2 -1.7,-0.6 -2.3,-0.3c-0.3,6.3 0.1,12.2 -0.5,18.7c-1.5,0.3 -2.9,-0.2 -4.4,-0.3c-0.7,-3.9 -0.7,-8.9 -1.3,-12.6c0.4,-0.1 0.2,0.5 0.6,0.4c0.3,-0.2 0.6,-0.5 0.4,-0.9c0,-0.4 -0.7,-0.2 -1.1,-0.3c-0.1,-0.3 -0.3,-0.6 -0.3,-1.1c0.6,0 0.7,0.6 1.3,0.1c0.2,-1.6 -1.7,-0.2 -1.5,-1.8c0.5,-0.3 1,0.4 1.5,0c0.1,-0.8 -0.3,-0.9 -1,-0.9c0.4,-0.8 -0.1,-1.3 -0.6,-1.5c-0.1,-0.5 0.7,-0.1 0.6,-0.5c0.1,-1 -1.1,-0.6 -1.7,-0.9c0,-0.2 0,-0.4 -0.1,-0.4c0.6,-1.6 2.4,-2.4 4.2,-2.4c1.8,0 3.2,1.7 3.9,2.8c0.5,-0.1 0.6,0.1 0.9,0.3c0.7,-1.6 2.2,-2.3 3.8,-3c2.9,-0.2 4.9,0.7 6,2.7c0.6,-0.2 0.7,-0.7 0.9,-1.3c1.5,-1.8 5.3,-3.3 8,-1.9c0.2,0.3 0.3,0.8 0.5,1l0.9,0c0.3,-3.5 5.1,-5.1 7.9,-2.9c0.6,0 0.7,-0.9 0.5,-1.4c0.5,-2.8 2.6,-5.2 6,-3.9c0.3,-0.1 0.3,-0.5 0.5,-0.8c-0.3,-0.7 -0.8,-1.2 -0.8,-1.9c0.1,-1.7 2.4,-1.6 3.7,-2.3c-0.7,-2.7 0.7,-4.6 3.4,-4.7c-0.6,1.3 -1.5,2 -2.3,3.2c0,0.7 -0.3,0.5 -0.2,1.7zm2.4,-4.8c0.2,-1.6 -1.1,-2.6 -2.2,-3.3c0.1,-2.5 -2.9,-1.8 -3.6,-3.4c1.1,-0.1 2.1,0.9 3.3,1c1.1,1.5 1.7,3.7 3.4,4.6c0,0.5 -0.2,1.1 -0.9,1.1z" fill="#b89d64" clip-rule="evenodd" fill-rule="evenodd"/>
   <path id="svg_49" d="m91.6,76.1c0,-0.4 0.5,-0.9 0.1,-1.3c-1,0.2 -0.7,1.8 -1.5,2.2c-1.1,4.2 -2.6,8 -4.6,11.3c-0.8,3.9 -4.1,12 -4.1,12c0.4,-0.3 1.3,-1.3 1.3,-0.7c-0.1,-0.2 4.1,-10.9 5.9,-15.1c-0.3,-0.5 -0.3,-1 0,-1.5c0.5,0.3 0.8,0.2 1.1,-0.1c0.1,-0.7 -0.3,-1 -0.5,-1.4c0.3,-0.7 0.8,-0.7 1.4,-0.9c0.3,-0.7 -0.8,-0.6 -0.4,-1c-0.1,-0.7 1,-0.2 1.1,-0.6c0.1,-0.7 -0.5,-1 -0.1,-1.7c0.7,0.1 1.1,-0.1 1.3,-0.5c0,-0.6 -0.6,-0.5 -1,-0.7z" fill="#b89d64" clip-rule="evenodd" fill-rule="evenodd"/>
  </g>
 </g>
</svg>