<?xml version="1.0" encoding="utf-8"?>
<!-- Generator: Adobe Illustrator 18.1.1, SVG Export Plug-In . SVG Version: 6.00 Build 0)  -->
<!DOCTYPE svg PUBLIC "-//W3C//DTD SVG 1.1//EN" "http://www.w3.org/Graphics/SVG/1.1/DTD/svg11.dtd">
<svg version="1.1" id="logo_x27_s" xmlns="http://www.w3.org/2000/svg" xmlns:xlink="http://www.w3.org/1999/xlink" x="0px" y="0px"
	 viewBox="0 0 124 126.6" enable-background="new 0 0 124 126.6" xml:space="preserve">
<g id="_x39__2_">
	<g>
		<path fill-rule="evenodd" clip-rule="evenodd" fill="#404045" d="M69.1,118c-2-0.2-4.1-0.4-6.1-0.6c-1.3-0.1-2.6-0.5-3.9-0.4
			c-1.1,0.1-2.2,0-3.3-0.1c-0.7-0.1-1.3-0.2-2-0.3c-1.1-0.2-2.2-0.4-3.3-0.6c-1-0.2-2.1-0.4-3.1-0.7c-0.9-0.2-1.8-0.5-2.7-0.7
			c-2.9-0.5-5.5-1.9-8.2-3.2c-1-0.5-1.9-1.1-2.9-1.6c-2.2-1.1-4.1-2.6-5.9-4.2c-3.1-2.8-6-5.9-8.5-9.3c-0.6-0.9-1.2-1.9-1.8-2.8
			c-1.4-2.2-2.9-4.3-4.3-6.5c-0.7-1.1-1.3-2.2-1.7-3.4c-0.7-1.7-1.2-3.4-1.9-5.1c-0.8-2.2-1.3-4.5-1.6-6.8c-0.4-3.1-0.8-6.3-0.7-9.4
			c0.1-3.3,0.3-6.5,1.2-9.7c0.4-1.5,0.8-3.1,1.3-4.6c0-0.2,0.1-0.3,0.2-0.5c0.9-1.3,0.9-2.9,1.2-4.4c0.2-1.1,0.6-2.1,1.1-3.1
			c1.1-2.1,2.2-4.1,3.4-6.1c1.1-1.9,2.2-3.8,3.4-5.7c0.4-0.7,1-1.3,1.6-1.9c1.7-1.6,3.5-3.1,5.2-4.6c0.7-0.6,1.5-1.2,2.2-1.8
			c1.2-1.1,2.3-2.2,3.5-3.3c3.6-3.3,7.7-6,12.2-7.9c2-0.8,4.1-1.4,6.2-1.8c0.6-0.1,1.2-0.2,1.8-0.3c0.4-0.1,0.9-0.2,1.3-0.2
			c1.5,0,3-0.3,4.4-0.3c1.2,0,2.4,0.2,3.6,0.3c0.3,0,0.6,0.2,0.8,0.1c1.6-0.6,3.3-0.3,4.9-0.2c1.9,0.1,3.7,0.4,5.6,0.9
			c1.5,0.5,3.1,0.8,4.7,1.1c3,0.7,5.7,2,8.5,3.4c0.9,0.5,1.8,1.1,2.7,1.7c2.3,1.6,4.6,3.1,6.8,4.7c0.5,0.4,1,0.8,1.5,1.3
			c1.7,1.5,3.4,3,5.1,4.5c2.3,2.2,4.3,4.6,6,7.3c1.1,1.7,1.9,3.6,2.6,5.5c1.1,3.3,2.6,6.5,3.4,9.9c1,2.1,1.1,4.4,1.6,6.6
			c0.2,0.7,0.3,1.5,0.5,2.3c0.2,0.8,0.3,1.6,0.3,2.5c0,0.8,0.3,1.6,0.5,2.4c0,0.2,0,0.4,0,0.7c-0.1,1.9-0.1,3.8-0.3,5.6
			c-0.1,1.2-0.3,2.4-0.7,3.6c-1.4,3.9-2.1,8-3.2,12c-0.6,2.3-1.5,4.6-2.8,6.7c-2.1,3.6-4.7,6.8-7.3,10.1c-1.3,1.6-2.8,3-4.2,4.5
			c-0.8,0.8-1.6,1.7-2.4,2.5c-2,2.1-4.4,3.7-6.8,5.3c-0.7,0.5-1.4,0.9-2.1,1.4c-1.3,0.9-2.7,1.5-4.2,2c-2.8,0.9-5.6,1.7-8.4,2.6
			C72.5,117.7,70.8,118,69.1,118z M113,62.7c0,0-0.1,0-0.1,0c0-0.1,0-0.2,0-0.3c0.2-4.3-0.3-8.5-1.5-12.6c-1.1-4.1-2-8.3-3.5-12.3
			c-0.7-1.8-1.5-3.5-2.6-5c-1-1.3-1.9-2.6-2.9-3.8c-1.5-1.9-3.1-3.8-5-5.3c-0.9-0.7-1.9-1.3-2.8-2.1c-3.2-2.7-6.7-5-10.3-6.9
			c-2.7-1.4-5.4-2.8-8.3-3.7c-1.7-0.6-3.5-0.9-5.3-1.3c-2.2-0.5-4.4-0.8-6.6-0.9c-3.8-0.2-7.5-0.2-11.3,0.3C51,9,49.3,9.3,47.5,9.7
			c-0.2,0-0.4,0.1-0.6,0.2c-2.4,0.8-4.8,1.8-7,3c-1.6,0.8-3.2,1.6-4.5,2.9c-1.2,1.2-2.4,2.4-3.6,3.7c-0.6,0.6-1,1.3-1.6,1.9
			c-2.2,2.7-4.9,5-7.7,7c-3.8,2.8-6.4,6.4-7.7,10.9c-1,3.3-2,6.7-2.9,10c-0.6,2.5-1.2,4.9-1.6,7.5C10,59,9.8,61.2,10,63.5
			c0.1,0.9,0.1,1.9,0.1,2.8c-0.1,2.3,0.1,4.5,0.6,6.8c0.3,1.4,0.8,2.8,1.2,4.1c0.6,2.5,1.7,4.8,2.9,7c0.6,1.2,1.4,2.3,2,3.4
			c1.8,3.2,3.5,6.4,5.7,9.3c3.3,4.5,7.3,8,11.9,11c2.7,1.8,5.6,3.2,8.6,4.3c2.4,0.9,4.9,1.6,7.5,2.1c3.9,0.8,7.8,1.8,11.8,1.8
			c2.5,0,5.1,0.3,7.6,0c1-0.1,2.1-0.2,3.1-0.5c2-0.6,3.9-1.2,5.8-2c3.1-1.4,6.1-2.9,9-4.6c3.1-1.8,5.9-3.9,8.5-6.3
			c0.8-0.7,1.5-1.5,2.2-2.3c2.3-2.7,4.3-5.6,6.1-8.7c2-3.3,3.6-6.8,5-10.5c1.1-2.9,1.7-5.8,2.3-8.8c0.2-1.1,0.5-2.2,0.6-3.2
			C112.8,67.1,112.9,64.9,113,62.7z"/>
		<path fill-rule="evenodd" clip-rule="evenodd" fill="#404045" d="M110.9,62.9c0,1.8-0.1,3.8-0.1,5.8c0,0.5-0.1,1.1-0.2,1.6
			c-0.7,3.5-1.4,7.1-2.6,10.5c-0.6,1.9-1.5,3.8-2.4,5.6c-0.8,1.7-1.8,3.4-2.8,5.1c-0.9,1.4-1.7,2.9-2.6,4.2
			c-2.1,2.8-4.2,5.5-7.1,7.6c-1.4,1-2.8,2-4.3,2.8c-2.6,1.5-5.2,3.1-8,4.3c-1.8,0.8-3.5,1.7-5.4,2.2c-0.8,0.2-1.6,0.7-2.5,0.9
			c-2.5,0.6-5.1,0.7-7.7,0.7c-1.8-0.1-3.7-0.2-5.5-0.3c-0.8-0.1-1.5-0.2-2.3-0.3c-3.1-0.7-6.2-1.3-9.2-2c-2.6-0.6-5.2-1.5-7.6-2.8
			c-1.4-0.8-2.9-1.4-4.3-2.2c-2.7-1.6-5.2-3.4-7.4-5.6c-2.4-2.2-4.4-4.7-6.2-7.3c-0.9-1.2-1.5-2.6-2.3-3.8c-1.1-1.9-2.2-3.7-3.2-5.6
			c-1.5-2.6-2.7-5.3-3.3-8.3c-0.2-1.2-0.4-2.5-0.4-3.8c0-2.1-0.2-4.2-0.5-6.3c-0.1-1.2-0.2-2.3-0.2-3.5c0-0.3,0-0.6,0-0.8
			c0.5-1.5,0.3-3.1,0.4-4.6c0.1-1.7,0.3-3.4,0.8-5.1c0.8-2.9,1.6-5.7,2.4-8.6c0.3-1.2,0.7-2.4,1-3.7c0.8-3.1,2.7-5.7,4.9-8
			c0.9-0.9,2-1.6,3-2.3c3.3-2.4,6.2-5.2,8.6-8.5c0.3-0.4,0.7-0.8,1.1-1.2c0.5-0.6,1.1-1,1.6-1.6c1-1.1,2.1-1.9,3.4-2.6
			c1.3-0.7,2.5-1.4,3.8-2c2.4-1.1,4.9-1.8,7.4-2.3c4.2-0.7,8.5-0.8,12.8-0.6c4.7,0.3,9.2,1.1,13.6,2.9c2.1,0.8,4,1.8,6,2.8
			c2.7,1.4,5.3,3,7.7,4.9c2,1.5,4,3,5.8,4.6c1.3,1.2,2.5,2.4,3.5,3.8c1.1,1.6,2.3,3.1,3.5,4.7c0.7,0.9,1.3,1.9,1.7,3
			c1.2,3.2,2.2,6.4,2.9,9.7c0.3,1.4,0.7,2.8,1.1,4.2C110.6,54.8,110.8,58.7,110.9,62.9z"/>
	</g>
</g>
<path fill-rule="evenodd" clip-rule="evenodd" fill="#F4F2F0" d="M68.4,97.2c-0.1-0.1-0.1-0.2-0.2-0.2C68,96.9,68,96.7,68,96.6
	c0-0.1,0.1-0.2,0.3-0.2c0.2,0.1,0.3,0.1,0.5,0.2c0.3,0.1,0.5,0.4,0.4,0.7c-0.1,0.5-0.3,0.8-0.8,0.9c-0.5,0.2-1,0.2-1.5,0.2
	c-0.3,0-0.6-0.1-0.8-0.3c-0.4-0.2-0.8-0.5-1.1-0.9c-0.5-0.6-0.8-1.3-0.9-2.1C64,95,64,94.8,64,94.6c0-0.2,0.1-0.3,0.1-0.5
	c0-0.2,0.1-0.5,0.2-0.7c0,0,0-0.1,0.1-0.1c0.2-0.7,0.8-1,1.3-1.3c0.5-0.3,1.1-0.4,1.6-0.5c0.3-0.1,0.7,0,1.1,0c0.1,0,0.2,0.1,0.3,0
	c0.5,0,1,0.1,1.4,0.3c0.5,0.1,1,0.3,1.5,0.5c0.2,0.1,0.4,0.2,0.6,0.3c0.1,0.1,0.3,0.2,0.4,0.2c0.8,0.5,1.4,1.2,2,1.9
	c0.5,0.7,0.9,1.4,1.1,2.2c0.2,0.6,0.2,1.3,0.1,1.9c-0.1,0.4-0.2,0.8-0.4,1.2c-0.1,0.3-0.3,0.5-0.5,0.7c-0.2,0.1-0.3,0.3-0.5,0.4
	c-0.4,0.3-0.8,0.6-1.2,0.7c-0.3,0.1-0.6,0.2-0.9,0.3c-0.3,0.1-0.5,0.1-0.8,0.1c-0.4,0-0.7,0-1.1,0c-0.5,0-1.1-0.2-1.6-0.3
	c-0.9-0.3-1.7-0.6-2.6-0.9c-0.5-0.2-1-0.4-1.4-0.7c-1.2-0.7-2.4-1.4-3.6-2.1c-0.4-0.2-0.9-0.4-1.3-0.7c-0.5-0.2-1-0.5-1.6-0.7
	c-0.6-0.3-1.2-0.5-1.9-0.6c0,0-0.1,0-0.1,0c-0.7-0.2-1.4-0.3-2.1-0.5c-0.4-0.1-0.8-0.1-1.2-0.1c-0.7,0-1.4,0-2.1,0.2
	c-0.5,0.2-1,0.4-1.2,1c0,0.1-0.1,0.1-0.1,0.2C49,97.4,49,97.9,49,98.4c0,0.7,0.3,1.4,0.9,1.9c0.2,0.2,0.5,0.4,0.7,0.6
	c0.6,0.4,1.3,0.6,2,0.5c0.5,0,0.9-0.3,1.2-0.7c0.2-0.2,0.3-0.4,0.3-0.7c0-0.2,0-0.4-0.2-0.6c-0.2-0.2-0.3-0.3-0.6-0.3
	c-0.3-0.1-0.5,0-0.6,0.3c0,0,0,0.1,0,0.1c0,0.1-0.1,0.2-0.2,0.2c-0.1,0-0.2-0.1-0.3-0.2c-0.2-0.4-0.1-0.9,0.2-1.1
	c0.3-0.2,0.6-0.3,1-0.3c0.5,0.1,0.9,0.4,1.2,0.9c0,0,0,0.1,0.1,0.1c0.1,0.4,0.1,0.8,0.1,1.3c-0.1,0.9-0.8,1.5-1.6,1.6
	c-0.7,0.1-1.3,0-1.9-0.2c-0.6-0.2-1.1-0.5-1.5-0.9c-0.3-0.2-0.5-0.5-0.7-0.8c-0.1-0.1-0.2-0.3-0.3-0.4c-0.1-0.5-0.2-0.9-0.3-1.4
	c-0.1-0.6,0-1.1,0.2-1.6c0.1-0.3,0.3-0.7,0.6-0.9c0.1-0.1,0.2-0.2,0.4-0.3c0.4-0.2,0.9-0.4,1.3-0.5c0.3-0.1,0.7-0.2,1-0.2
	c0.1,0,0.2,0,0.3-0.1c0.1,0,0.2,0,0.4,0c0.2,0,0.4,0,0.6,0c0.1,0,0.2,0,0.3,0c0.3,0.1,0.7,0.1,1,0.1c0.8,0,1.6,0.2,2.3,0.6
	c0.1,0.1,0.3,0.1,0.5,0.2c0.7,0.3,1.4,0.7,2.2,1c0.7,0.3,1.4,0.7,2.1,1.1c0.5,0.3,1.1,0.6,1.6,0.9c0.5,0.3,1.1,0.6,1.6,0.9
	c0.7,0.4,1.5,0.7,2.2,1c0.7,0.3,1.5,0.6,2.3,0.8c0.7,0.2,1.4,0.3,2.2,0.2c0.7-0.1,1.3-0.2,1.9-0.5c0.5-0.2,0.9-0.5,1.2-0.9
	c0.3-0.3,0.4-0.7,0.5-1.1c0.2-0.7,0.2-1.3,0-2c0-0.2-0.1-0.3-0.1-0.4c-0.3-0.8-0.8-1.5-1.4-2.1c-0.6-0.5-1.2-1-1.9-1.3
	c-0.8-0.4-1.7-0.7-2.7-0.9c-0.4-0.1-0.9-0.1-1.4-0.1c-0.2,0-0.4,0-0.7,0c-0.8,0-1.5,0.4-2,1c-0.4,0.4-0.6,0.9-0.4,1.5
	c0.1,0.3,0.2,0.7,0.2,1c0.1,0.3,0.3,0.6,0.5,0.8c0.5,0.7,1.3,0.9,2.1,0.9c0.2,0,0.3,0,0.5-0.1C68.2,97.5,68.3,97.4,68.4,97.2z"/>
</svg>
