<?xml version="1.0" encoding="utf-8"?>
<!-- Generator: Adobe Illustrator 18.1.1, SVG Export Plug-In . SVG Version: 6.00 Build 0)  -->
<!DOCTYPE svg PUBLIC "-//W3C//DTD SVG 1.1//EN" "http://www.w3.org/Graphics/SVG/1.1/DTD/svg11.dtd">
<svg version="1.1" id="_x2014_ÎÓÈ_1" xmlns="http://www.w3.org/2000/svg" xmlns:xlink="http://www.w3.org/1999/xlink" x="0px"
	 y="0px" viewBox="0 0 120 120" enable-background="new 0 0 120 120" xml:space="preserve">
<g>
	<path fill-rule="evenodd" clip-rule="evenodd" fill="#404045" d="M56.5,33.9c0.2,0.3,0.9,0.5,1.3,0.3c-0.4-0.8-2.1-1-3.2-0.8
		C54.7,34,55.9,33.6,56.5,33.9z"/>
	<path fill-rule="evenodd" clip-rule="evenodd" fill="#404045" d="M56.3,37.7c1.4-0.2,2.5-0.8,3.7-1.1c0.6,0,1.2,0.1,1.1-0.7
		C59.4,36.3,56.9,36.5,56.3,37.7z"/>
	<path fill-rule="evenodd" clip-rule="evenodd" fill="#404045" d="M47.1,37.3c-0.7-0.2-2.2-1-2.5-0.4C44.8,37.6,46.7,38,47.1,37.3z"
		/>
	<path fill-rule="evenodd" clip-rule="evenodd" fill="#404045" d="M54.2,37.8c-0.9-0.3-3.1-0.2-3.9,0C50.8,38.6,53.5,38.3,54.2,37.8
		z"/>
	<path fill-rule="evenodd" clip-rule="evenodd" fill="#404045" d="M63.9,45.4c-0.1-0.2-0.8-0.3-0.8,0.1
		C63.3,45.6,63.8,45.6,63.9,45.4z"/>
	<path fill-rule="evenodd" clip-rule="evenodd" fill="#404045" d="M38.7,46c-1.3-0.6-3.1-1.2-4.3-1.4C35.1,45.5,37.3,46.3,38.7,46z"
		/>
	<path fill-rule="evenodd" clip-rule="evenodd" fill="#404045" d="M50.5,45.1c-0.8,0.1-1.4-0.2-1.7,0.2
		C49.6,45.2,50.2,45.7,50.5,45.1z"/>
	<path fill-rule="evenodd" clip-rule="evenodd" fill="#404045" d="M53.1,45.3c-0.9,0.1-1.8-0.3-2.3,0C51.8,45.4,52.5,45.6,53.1,45.3
		z"/>
	<path fill-rule="evenodd" clip-rule="evenodd" fill="#404045" d="M60,46.4c0.2-0.4,0.1-0.1,0.6-0.1c-0.3-0.6,1,0.1,1.2-0.4
		c-0.7,0-1-0.4-1.8-0.3c-0.2,0.3,0.1,0.5-0.1,0.8C59.9,46.4,60,46.4,60,46.4z"/>
	<path fill-rule="evenodd" clip-rule="evenodd" fill="#404045" d="M56.1,45.9c-3.2-0.1-7.2-0.4-10.4-0.4c-0.2,0-0.3,0.1-0.4,0.2
		C48.4,46.3,53.2,46,56.1,45.9z"/>
	<path fill-rule="evenodd" clip-rule="evenodd" fill="#404045" d="M57.3,45.9c-0.3-0.1-0.9-0.3-1,0.1C56.5,46.1,57.2,46.3,57.3,45.9
		z"/>
	<path fill-rule="evenodd" clip-rule="evenodd" fill="#404045" d="M65.6,46.5c-0.6,0-1.1-0.7-1.8-0.3C64.2,46.3,65,46.7,65.6,46.5z"
		/>
	<path fill-rule="evenodd" clip-rule="evenodd" fill="#404045" d="M58.1,46.4c0.2,0,0.3,0,0.5,0c0-0.2,0-0.3,0-0.5
		C58.4,46,58,45.8,58,46C58.2,46.1,58.2,46.2,58.1,46.4z"/>
	<path fill-rule="evenodd" clip-rule="evenodd" fill="#404045" d="M54.8,46.5c0.3-0.1,0.8,0.2,0.9-0.1C55.5,46.2,55,46.3,54.8,46.5z
		"/>
	<path fill-rule="evenodd" clip-rule="evenodd" fill="#404045" d="M53.8,46.6c0.4,0,0.7,0,0.8-0.2C54.3,46.4,53.8,46.2,53.8,46.6z"
		/>
	<path fill-rule="evenodd" clip-rule="evenodd" fill="#404045" d="M51.3,46.7c0.4,0,1,0.2,1-0.2C52.1,46.4,51.5,46.3,51.3,46.7z"/>
	<path fill-rule="evenodd" clip-rule="evenodd" fill="#404045" d="M51.1,46.6c-1.4,0-2.7,0-3.8,0.3C48.7,46.9,50.2,47,51.1,46.6z"/>
	<path fill-rule="evenodd" clip-rule="evenodd" fill="#404045" d="M34.9,46.7c1.1,0.5,2.9,1.5,4.1,1.2c-1.3-0.5-2.8-1.4-4.1-1.5
		C34.9,46.4,34.9,46.5,34.9,46.7z"/>
	<path fill-rule="evenodd" clip-rule="evenodd" fill="#404045" d="M35.7,48.3c0,0.1-0.2,0.2-0.1,0.3c1,0.4,2,0.9,3.3,1.1
		C38.4,48.8,36.6,48.5,35.7,48.3z"/>
	<path fill-rule="evenodd" clip-rule="evenodd" fill="#404045" d="M27.1,48.2c-1.2,0.1-2.3,0.4-2.9,1C25.3,49,26.8,49.2,27.1,48.2z"
		/>
	<path fill-rule="evenodd" clip-rule="evenodd" fill="#404045" d="M57.5,49.7c-2-0.1-5-0.4-6.8,0.1C52.8,50.1,55.5,50,57.5,49.7z"/>
	<path fill-rule="evenodd" clip-rule="evenodd" fill="#404045" d="M59.9,49.7c-0.3,0.1-0.9-0.2-1,0.1C59.1,50,59.8,50,59.9,49.7z"/>
	<path fill-rule="evenodd" clip-rule="evenodd" fill="#404045" d="M78.6,50.7c-0.5,0.7-2,0.9-1.6,2.1c1.1-0.2,1.3-1.3,1.8-2
		C78.8,50.7,78.7,50.7,78.6,50.7z"/>
	<path fill-rule="evenodd" clip-rule="evenodd" fill="#404045" d="M78,53.1c1.2-0.3,1.6-1.4,2.3-2.2C79.2,51.3,78.4,52,78,53.1z"/>
	<path fill-rule="evenodd" clip-rule="evenodd" fill="#404045" d="M81.5,51.1c-1,0.4-1.9,0.9-2.3,1.9c0.3,0.3,0.5-0.1,0.8-0.1
		c0,0.3,0,0.5,0.3,0.5c0.1,0,0.2,0,0.3,0c0.2-0.8,1.1-0.9,1.3-1.7c-0.8,0-1,0.6-1.6,0.7C80.7,52,81.6,51.7,81.5,51.1z"/>
	<path fill-rule="evenodd" clip-rule="evenodd" fill="#404045" d="M83.2,51.9c-0.9,0.2-2,0.8-2,1.5c0.5,0.3,1,0.8,1.6,0.3
		c0.1,0.1,0,0.4,0.3,0.4c1.2-0.4,1.8-1.3,2.5-2.2c-1.3,0.1-1.5,1.4-2.6,1.6c0.1-0.5,0.6-0.5,0.7-0.9c-0.6-0.1-1,0.7-1.4,0.4
		C82.4,52.4,83.1,52.5,83.2,51.9z"/>
	<path fill-rule="evenodd" clip-rule="evenodd" fill="#404045" d="M28.7,49.9c-1.3,0.3-2.5,0.7-3.4,1.4
		C26.3,51.2,28.1,50.9,28.7,49.9z"/>
	<path fill-rule="evenodd" clip-rule="evenodd" fill="#404045" d="M36.4,50.4c0.4,0.7,1.7,0.9,2.5,0.9
		C38.5,50.7,37.3,50.2,36.4,50.4z"/>
	<path fill-rule="evenodd" clip-rule="evenodd" fill="#404045" d="M56.7,51.1C54.9,51,53,50.8,52,51.5c3.4-0.3,6.7,0.2,9.5,0
		C60.4,51.1,58.5,51.2,56.7,51.1z"/>
	<path fill-rule="evenodd" clip-rule="evenodd" fill="#404045" d="M88.5,52.4c-1.4,0.5-2.5,1.2-3.2,2.4
		C86.4,54.6,87.4,53.2,88.5,52.4z"/>
	<path fill-rule="evenodd" clip-rule="evenodd" fill="#404045" d="M83.9,54.5c0.1,0,0.2,0.1,0.2,0.2c0.8-0.4,2.2-1.5,2.1-2.2
		C85.3,53.1,84.4,53.6,83.9,54.5z"/>
	<path fill-rule="evenodd" clip-rule="evenodd" fill="#404045" d="M56.3,52.2c-1.3,0-2.8-0.2-3.9,0.2c2.3,0.4,4.9-0.4,7.3,0.2
		C58.9,51.8,57.5,52.2,56.3,52.2z"/>
	<path fill-rule="evenodd" clip-rule="evenodd" fill="#404045" d="M89.1,57.8c0.7,0.1,0.8-0.4,1-0.9c0.9-1,2.2-1.5,3.1-2.4
		c-0.1,0-0.2-0.2-0.3-0.1C91.4,55.2,89.4,56.1,89.1,57.8z"/>
	<path fill-rule="evenodd" clip-rule="evenodd" fill="#404045" d="M53.3,54c1.2,0.1,3.1,0,4.3-0.3C56.5,53.2,54.2,53.5,53.3,54z"/>
	<path fill-rule="evenodd" clip-rule="evenodd" fill="#404045" d="M55.6,55.6c-0.8-0.1-2-0.4-2.8-0.2c0,0.2,0,0.3,0.1,0.4
		C53.6,55.8,55.3,56.2,55.6,55.6z"/>
	<path fill-rule="evenodd" clip-rule="evenodd" fill="#404045" d="M16.6,56c-1.5,1.6-3.9,2.8-4.7,4.8c1.7-1.6,3.3-3.4,5.4-4.6
		C17.2,56,16.9,56,16.6,56z"/>
	<path fill-rule="evenodd" clip-rule="evenodd" fill="#404045" d="M51.9,58.8c-0.4-0.4-2.4-0.5-2.9,0C49.7,58.9,51.4,59.2,51.9,58.8
		z"/>
	<path fill-rule="evenodd" clip-rule="evenodd" fill="#404045" d="M48.4,60c1,0.4,3.5,0.3,4.5,0.2c-1.1-0.5-3.3-0.5-4.5-0.5
		C48.4,59.8,48.4,59.9,48.4,60z"/>
	<path fill-rule="evenodd" clip-rule="evenodd" fill="#404045" d="M53.9,61.4c-1.6-0.7-3.9-0.5-5.9-0.6c0,0.1-0.2,0.2-0.1,0.3
		C49.4,61.6,52.5,61.5,53.9,61.4z"/>
	<path fill-rule="evenodd" clip-rule="evenodd" fill="#404045" d="M46.8,62.1c1.9,0.9,4.2,0.1,6.1,0.4c0.8,0.1,1.5,0.7,2.2,0.2
		c-2-1-5.9-0.5-8.3-0.9C46.8,61.9,46.8,62,46.8,62.1z"/>
	<path fill-rule="evenodd" clip-rule="evenodd" fill="#404045" d="M46.3,63.4c1.5,0.7,4.2,0.4,6.5,0.6c1.2,0.1,2.2,0.6,3,0.2
		c-2.4-0.9-6.4-0.8-9.4-1.2C46.3,63.2,46.3,63.3,46.3,63.4z"/>
	<path fill-rule="evenodd" clip-rule="evenodd" fill="#404045" d="M51.2,64.5c-1.4-0.1-2.8-0.2-4-0.3c-0.1,0-0.1,0.1-0.2,0.1
		c-0.1,0.2-0.1,0.2,0,0.3c2.5,0.6,5.8,0.1,8.5,0.9C54.8,64.6,52.8,64.7,51.2,64.5z"/>
	<path fill-rule="evenodd" clip-rule="evenodd" fill="#404045" d="M51.7,66.4c1.2,0.1,2.6,0.6,3.2,0c-1.9-0.5-5.4-0.7-7.5-1
		c0,0.1,0,0.2,0,0.3C48.4,66.6,50.2,66.3,51.7,66.4z"/>
	<path fill-rule="evenodd" clip-rule="evenodd" fill="#404045" d="M83.1,67.6c-0.1,0-0.2-0.2-0.3-0.1c-0.3,0.7-1.1,0.9-1.2,1.8
		C82.4,69.1,82.7,68.3,83.1,67.6z"/>
	<path fill-rule="evenodd" clip-rule="evenodd" fill="#404045" d="M54.1,67.2c-1.9-0.4-4.9-0.1-6.6-0.7c-0.1,0-0.1,0.1-0.2,0.1
		c0,0.1,0,0.2,0,0.3c1.4,1,3.9,0.4,6,0.7c0.8,0.1,1.4,0.7,2.2,0.4C55.5,67.4,54.6,67.3,54.1,67.2z"/>
	<path fill-rule="evenodd" clip-rule="evenodd" fill="#404045" d="M94.9,69.9c-0.1,0.3-1-0.1-0.8,0.4C94.6,70.5,95.3,70.2,94.9,69.9
		z"/>
	<path fill-rule="evenodd" clip-rule="evenodd" fill="#404045" d="M94.3,71.2c0.6,0.1,0.9-0.1,1.2-0.4
		C95.1,70.9,94.5,70.8,94.3,71.2z"/>
	<path fill-rule="evenodd" clip-rule="evenodd" fill="#404045" d="M91.1,77.7c1,0.2,1.8-1.5,3-0.7c0.6-0.4,1.6-0.5,2.3-0.7
		c0-0.3,0-0.4,0.1-0.6C94.6,76.3,92.1,76.2,91.1,77.7z"/>
	<path fill-rule="evenodd" clip-rule="evenodd" fill="#404045" d="M24.3,75.1c0-0.1-0.1-0.1-0.2-0.1c-0.8,0.9-0.8,2.8-1.5,3.8
		c-0.2-0.8,0.3-2.1-0.3-2.3c-0.7,1.1,0,2.7,0,4.2c0,0.8-0.7,1.8,0,2.3c0.3-0.3,0.3-1,0.7-1.1C22.3,79.5,23.9,77.3,24.3,75.1z"/>
	<path fill-rule="evenodd" clip-rule="evenodd" fill="#404045" d="M89.4,79.9c-0.9,0.6-2.1,0.8-2.8,1.5c1.6-0.7,3.4-1.1,4.8-2
		c-0.5-0.2-0.9,0.4-1.3,0.1c1-0.3,2-0.9,3.1-1.2c0.3-0.1,0.7,0.2,0.7-0.3c-2.3-0.1-3.5,1-5,1.8C88.9,79.8,89.4,79.6,89.4,79.9z"/>
	<path fill-rule="evenodd" clip-rule="evenodd" fill="#404045" d="M28.1,78.2c-0.5,1.9-1.9,4.1-1.4,6.3c0.5,0,0.8-0.1,1.2-0.3
		c0-0.7-0.6-0.8-0.8-1.3c0.3-1.8,1.1-2.9,1.3-4.7C28.4,78.2,28.3,78.2,28.1,78.2z"/>
	<path fill-rule="evenodd" clip-rule="evenodd" fill="#404045" d="M29.8,79.7c0-0.1,0-0.3-0.2-0.2c-0.2,0.2-0.5,0.3-0.7,0.7
		c-0.5,1-1.2,5.5,0.1,5.7c0.4-0.5-0.3-0.7-0.3-1.2C28.8,83.2,29,80.8,29.8,79.7z"/>
	<path fill-rule="evenodd" clip-rule="evenodd" fill="#404045" d="M33.6,85.6c-0.3-0.2-0.5-0.5-0.9-0.6c0.2-1.8,0.6-3.2,1.1-4.6
		c-1.5,0.6-1.1,3.2-1.8,4.7c-0.5,0-1,0-1.1-0.4c0.2-1.8,0.8-3.1,1.1-4.7c-0.1,0-0.2,0-0.3,0c-0.9,1.2-0.7,3.6-1.6,4.8
		c-0.6,0.2-0.6-0.6-1-0.3c-0.3,1,0.8,0.7,1.1,1.1c0,0.6-0.2,1.3,0.4,1.3c0.5-0.2-0.1-0.9,0.3-1.3c1.1-0.2,1,0.7,1.7,0.9
		c0.3-0.3,0.5-0.8,1.1-0.8c-0.2,0.5-0.2,0.9,0.3,1.1c0.4-1.1,0.6-3,0.7-3.9C33.7,83.1,34,84.7,33.6,85.6z"/>
	<path fill-rule="evenodd" clip-rule="evenodd" fill="#404045" d="M35.2,86.8c0.1,0.2,0.2,0.3,0.2,0.5c0.4,0.1,0.4-0.1,0.7-0.1
		C36.3,86.1,35.5,85.8,35.2,86.8z"/>
	<path fill-rule="evenodd" clip-rule="evenodd" fill="#404045" d="M37.8,87.3c-0.1,0.1-0.1,0.4-0.1,0.7c0.4,0.2,0.7,0.1,0.8-0.3
		C38.4,87.5,38.2,87.4,37.8,87.3z"/>
	<path fill-rule="evenodd" clip-rule="evenodd" fill="#404045" d="M41.8,87.7c0,0.3,0,0.4,0.1,0.6c0.4,0,0.9,0,0.9-0.4
		C42.7,87.6,42,87.5,41.8,87.7z"/>
	<path fill-rule="evenodd" clip-rule="evenodd" fill="#404045" d="M114.7,56.2c-0.7-0.2-2.2-0.2-3-0.1c-1.9,0.1-3.7,1.4-5.3,1.4
		c-0.4-1.5-4.4-3.7-5.2-4.1c-1-0.6-2.2-1.4-3.4-2c-1.9-0.8-4-1.9-5.9-2.4c-0.6-0.2-3.5-1.1-4.3-1.3c-1.6-0.5-5.9-1.1-9.2-0.7
		c9.6,0.8,17.7,4.2,22.4,7.6c0.8,0.6,3.6,3,3.8,3.8c-1,0.4-5.5,1.7-6.6,2.1c-0.4,0-2.4,1.2-3.4,1c0.5-1.1,1.7-1.5,2.3-2.6
		c-1.3,0.6-3.1,1.7-3,3c-0.6-0.2-1,0.6-1.5,0.2c1.2-1.7,3.1-2.6,4.3-4.2c-2.3,0.7-3.2,2.9-5.1,4.1c-0.3,0.3-0.3,1-1,0.9
		c0.5-1.4,1.6-2.3,2.7-3.2c0.5-0.5,0.9-1,1.4-1.4c0.5-0.4,1.4-0.8,1.2-1.6c-2.2,1.2-3.3,3.6-5.5,4.8c0.3-2.7,3.5-3.4,5-5.4
		c-2.4,0.7-3.5,2.7-5.4,4c-0.7-1,0.8-1.8,1.6-2.5c0.4-0.3,0.8-0.8,1.2-1.1c0.4-0.3,1.2-0.5,1-1c-2,0.7-2.7,2.6-4.6,3.4
		c0-0.8-0.6-1-0.7-1.6c0.7-1.1,1.9-1.7,2.8-2.7c-1.5-0.2-2.1,2.1-3.5,1.9c0.3-1.2,2.1-1.7,2.9-2.7c-1.8,0-2.3,2-3.8,1.9
		c0.5-1,1.8-1.1,2.3-2.1c-1.5,0.4-2.4,1.5-3.7,2.2c2.4,1.5,4.4,3.9,4.3,7.3c-1.8,0.7-8.6,3.5-10.2,4.1c-2.8,1-5.7,2.3-8.6,3.1
		c-0.3,0.2-5.3,1.3-7.9,1.8c0.9-1,3.3-0.4,4.4-1.1c-0.7-0.6-2,0.4-2.9-0.1c1-0.6,2.9-0.2,3.7-1c-0.6-0.4-1.1,0.2-1.7,0.2
		c3.2-1.5,4.3-5.1,4.9-6.8c1.3-3.6,2.6-8.7,4.3-11.9c0.5,0,1.1,0.2,1.4-0.1c0-0.6-1.1-0.2-1.4-0.5c1.5-3.2,2.4-7,4.4-9.4
		c0.6-0.7,1.1-1.6,1.3-2.2c0.3-0.7,0.4-1,0.4-2.9c-0.9-1.9-0.9-2.2-2.7-4c-1.2-1-2.6-2-3.8-2.5c-7.2-3-21.5-4.1-21.8-3.8
		c-0.5,0-0.9,0-1.4,0c0.4-0.3,0.7-0.6,0.6-0.7c-0.3,0.3-0.8,0.5-1.1,0.7c-6.4,0.1-11,0.8-16.2,2.5c-0.8,0.3-1.6,0.8-2.4,1.3
		c-2.2,1.4-3.6,2.5-4.3,4.8c-0.5,1.6-0.4,3,0.6,4c0.9-0.7,0.4-1.3,0.3-2c-0.3-3.4,1.7-4.5,3.6-5.9c2.5-1.9,7.1-2.6,10.2-2.8
		c-1.4,0.6-2.2,1.7-3.1,2.8c-0.2-1.3,0.7-1.4,1-2.2c-2.2,0.9-10.6,2.2-10,7.2c0.1,1.3,1,1.9,1.6,2.7c3.1,2.5,9.8,3.2,12.3,3.6
		c1.2,0.2,8.5,0.6,12,0.6c2.2,0,4.8-0.2,7.1-0.4c3.3-0.4,6.3-0.6,8.7-1.6c0.4-0.2,2.1-0.7,2.6-0.9c1.8-0.9,2.3-1.4,3-3
		c0-0.8,0.1-1.3-0.1-1.9c-1.7,0.9-2.5,2.7-4.4,3.4c0.1-0.6,0.7-0.5,1.1-0.8c0.7-1.4,2.4-1.9,3-3.5c-1.1,0-1.4,1.4-2.4,1.2
		c0.3-0.7,1.5-1.1,1.2-2c-0.4-0.1-0.5-0.1-0.9-0.4c-0.7,0.3-1.1,1.6-2,1.3c-0.1-0.7,1.3-1.1,0.8-1.6c-0.7-0.2-1,1.7-2,1.2
		c0.1-0.9,1-1,1.1-1.9c-1.1,0.1-1.3,2.1-2.5,1.4c0.2-0.7,1.2-1,1-1.7c-1.1-0.1-1.3,2.1-2.2,1.1c0.2-0.8,1.5-1,1.2-1.9
		c-1.4,0.2-1.3,1.8-2.5,2.2c-0.3-0.8,0.9-1.1,0.9-2c-0.8-0.1-0.7,0.8-1.3,1c-1.8-0.7-4-1-6-1.5c1.8-0.2,4.3,0.3,6.1,0.8
		c-1.5-1.5-4.8-1.3-7.3-1.8c-0.1-0.2-0.1-0.5-0.3-0.6c-1.5-0.1-3.5-1.2-4.7-0.4c0.5,0.5,2.1,0.1,2.6,0.7c-0.6-0.1-1.4-0.2-2.2-0.2
		c0.2,0.8,1.8,0.3,2.3,0.8c-0.3,0.6-1.8,0.3-2.2-0.1c-0.9,0-2.7-0.1-3.3-0.7c-2.9-0.4-5.5,0-8.6,0c2.5-1.3,6.4-1,9.7-0.9
		c-1.3-0.5-4.1-0.7-6.2-0.6c-1.5,0.1-2.9,0.9-3.8,0.8c-0.4-0.1-1-0.3-1-0.8c3.3-0.5,7.6-0.4,8.1-0.4c3.9-0.1,4.6,0,8.7,0.4
		c4.8,0.8,11.9,2.3,14.4,3.6c2,1.5,3.8,2.4,5,4.9c0.2,0.4,0.4,1.5,0.2,2c-0.6,1.7-3.1,2.7-4.7,3.4c-6.3,2.6-26.7,3.6-39.2,0.7
		c-1.7-0.4-3.3-1.3-4.8-2c-0.3-0.6-0.8-1-1.7-1.1c-0.6,0.2,0.2,0.9-0.3,1c-3.7,0.2-7.3-0.1-9.6,1.9c-4.8,4-4,7.6-3,9.9
		c-5.8,3.5-11.7,6.8-14.3,14c0.1,0.2,0.6,0,0.4,0.4c-1.3,4,0.4,7,2.2,9.9C8,79.9,13,84.7,19.9,88.1c1.4,0.7,11.5,3.5,12.9,3.7
		c1.1,0.2,7.4,1.1,9,1.3c6.2,0.8,14.9,0.5,16.3,0.5c9.2-0.1,17.2-2.1,25.1-4.6c0.9-0.3,4.2-1.7,5.1-2.1c1.8-0.8,6.1-3.1,6.6-3.6
		c2.3-1.9,4.4-3.7,6.6-5.8c1.6-1.6,7.1-10.7,6.8-11.5c1-0.1,2.6-0.4,3.6-0.6c2.2-0.5,4.3-0.8,5.7-2.5
		C118.2,60.7,118.2,57.2,114.7,56.2z M36.2,35.8c-0.4-0.6,0.6-0.6,0.8-1C37,35,36.6,35.8,36.2,35.8z M36,31.8c0.4-0.5,1.4-1,2.2-0.7
		C37.7,31.6,36.8,31.7,36,31.8z M38.2,30.4c-0.7-0.1-0.8,0.3-1.5,0.2c0.4-0.5,1-0.8,1.8-0.9C38.4,30,38.3,30.2,38.2,30.4z
		 M38.9,30.9c0.5-0.4,0-1.8,1.1-1.5c-0.2,0.8,0,1.2,0,2C39.5,31.3,39.2,31.1,38.9,30.9z M41,36c-0.2-0.4,0.1-0.6,0.3-0.9
		C41.5,35.3,41.5,36.2,41,36z M76.6,33.1c0.1,0.4-0.5,1.1-1.1,1.2C75.7,33.8,76.3,33.6,76.6,33.1z M75.4,35.6c0.2,0,0.4,0.1,0.5-0.1
		c0.1,0,0.1,0.1,0.2,0.1l0,0.2c-0.3,0.1-0.7,0-0.8,0.3C74.9,36.1,75.4,35.8,75.4,35.6z M74.7,36.5c-0.2,0.3-0.3,0.8-0.8,0.8
		C74,36.8,74.4,36.7,74.7,36.5z M42.6,31.6c0,0.3-0.2,0.4-0.5,0.4C42.1,31.7,42.3,31.6,42.6,31.6z M54.8,40.7
		c-0.1-0.1-0.3-0.1-0.5-0.1c0.1-0.9,0.8-1,1.5-1.1C55.9,40.3,54.9,40,54.8,40.7z M56,40.7c0.3-0.6,1-1.1,1.7-0.9
		C57.3,40.3,56.8,40.7,56,40.7z M59.2,40.7c0-0.4,0.4-0.3,0.8-0.3C60.2,40.9,59.4,40.9,59.2,40.7z M60.2,39.3l-0.3,0
		c-0.1-0.3,0.2-0.2,0.3-0.5C60.4,39,60.2,39,60.2,39.3z M61.2,40.9c0-0.4,0.4-0.3,0.7-0.3C61.9,40.9,61.5,40.8,61.2,40.9z M62,40.4
		c-0.1-0.4,0.2-0.6,0.5-0.6C62.5,40.2,62.3,40.4,62,40.4z M61.3,37.9c0.6-0.2,0.8-0.9,1.5-1C62.6,37.5,62,37.8,61.3,37.9z
		 M63.3,40.7c0-0.6,0.8-0.7,1.2-0.5C64.3,40.6,63.9,40.8,63.3,40.7z M63.2,38.5c0.2-0.3,0.4-0.5,0.8-0.4
		C64,38.5,63.7,38.5,63.2,38.5z M63.3,37.4c0.3-0.8,1-1,2-1.1C64.7,36.8,63.9,36.7,63.3,37.4z M64.7,38.2c0.2-0.5,0.7-0.7,1.2-0.9
		c-0.1-0.3-0.2-0.1-0.5-0.1c0.2-0.4,0.8-0.4,1.2-0.5C66,37.2,66,38.9,64.7,38.2z M66.2,40.4c0.1-0.7,0.8-0.8,1.4-0.9
		C67.3,40,66.9,40.3,66.2,40.4z M67.3,37.2c0.3,0.2-0.1,0.6-0.4,0.6C66.9,37.3,67.2,37.4,67.3,37.2z M67.3,38.7
		c0.1-0.5,0.6-0.5,1-0.8C68.8,38.3,67.9,39.1,67.3,38.7z M68.2,37.4c0.2-0.4,0.5-0.8,1.1-0.8C69.3,37.3,68.7,37.3,68.2,37.4z
		 M68.9,38.6c0.2-0.6,0.5-1.2,1.3-1.1C69.9,38.1,69.6,38.6,68.9,38.6z M70.5,39.3c-0.3,0-0.3-0.2-0.6-0.3c0.1-0.3,0.5-0.3,0.8-0.3
		C70.8,39.1,70.5,39,70.5,39.3z M71.2,39.4c0.3-0.7,0.5-1.4,1.4-1.4C72.2,38.5,72.1,39.4,71.2,39.4z M72.9,38.8c0-0.5,0.3-0.8,0.6-1
		C73.7,38,73.3,38.6,72.9,38.8z M73.8,35.9c0,0.4-0.2,0.5-0.4,0.8C73,36.6,73.3,35.7,73.8,35.9z M73.3,36.8
		c-0.2,0.4-0.4,0.6-0.8,0.7C72.5,36.9,73,36.9,73.3,36.8z M72.3,36c0.1,0,0.1,0.1,0.2,0.1l0,0.2c-0.4-0.1-0.3,0.3-0.7,0.2
		C71.8,36.1,72.2,36.2,72.3,36z M71.4,33.5c0.2-0.2,0.6-0.1,0.7,0.1C72.1,34.1,71.2,33.9,71.4,33.5z M71.8,37
		c-0.2,0.5-0.4,0.9-1.1,0.9C71,37.4,71.3,37.1,71.8,37z M71.1,36.4c-0.1,0.5-0.5,0.5-1.1,0.5C70.1,36.5,70.5,36.1,71.1,36.4z
		 M70.3,33.9c-2-0.1-4.2,0.1-6.3-0.5C66,33.3,68.5,33.1,70.3,33.9z M68.5,32.8c-0.6,0.3-2.1-0.1-2.1-0.3
		C66.9,32.4,68.1,32.5,68.5,32.8z M66.5,31.9c-0.9,0.3-1.9-0.1-2.9-0.1C63.9,31.6,65.8,31.7,66.5,31.9z M62.1,32.3
		c1.2,0,2,0.2,3,0.3c-1,0.3-1.8,0-2.8,0.2C62.2,32.7,62,32.7,62.1,32.3z M61.1,32.5c0,0.5-0.3,0.2-0.6,0.1
		C60.6,32.4,61,32.6,61.1,32.5z M59.3,30.3c-1.3,0.5-2.9-0.3-4.5-0.5c-1.1-0.1-2.5,0.1-3.9-0.2C53.7,29.1,56.6,29.6,59.3,30.3z
		 M56.5,31.1c-0.7,0.1-1.9-0.3-2.4-0.7C55.1,30.5,55.5,31,56.5,31.1z M52.2,29.1c-1.3-0.1-2.3,0.1-3.6,0
		C49.4,28.8,51.5,28.3,52.2,29.1z M45,34.2c-0.9,0.2-2.3,1.5-1,2.3c0.5-0.2,0.2-0.7,0.3-1.3c0.5-0.4,1.3-0.5,1.4-1.2
		c1.2,0,3.1,0.2,4.2-0.2c-0.1-0.7-1-0.6-1.5-0.9c-0.3-0.2,0-1-0.5-0.9c0.2-0.3,0.7-0.3,1.2-0.3c0.2,0.2,0,0.1,0,0.5
		c1.7,0.4,3.6,0.3,5.4,0.3c1.1,0,1.9,0.7,2.9,0.6c-0.6-0.8-2.6-1.4-3.8-1.1c-1.3-0.7-4-1.2-6-0.8c-0.9,0.2-1.2,1.2-2,0.8
		c0.4-1.6,2.8-0.9,3.8-1.8c3,0,4.9,1.1,7.5,1.6c0.4,0-0.2-0.5,0.1-0.5c0.9,0.1,1.7,0.8,2.2,0c0.3,0.2,0.9,0.2,1.3,0.4
		c-0.2,0.5-0.8-0.1-1.4,0.1c0.3,1.3,1.6,1.5,2.7,2.1c-1.1,0.6-2.1-0.9-2.9-0.2c0.6,0.7,1.8,0.8,3.1,0.9c0.4,0,0-0.5,0.2-0.5
		c1.4,0.3,2.7,0.8,4.5,0.9c-0.3,1.1-1.9,0.7-2.8,1c-0.3-0.6-2.1-0.8-2.2,0.1c0.3,0.4,0.8-0.1,1.3,0c-1.7,0.7-4.3,2.3-6.5,2.5
		c-0.4,0-0.8-0.2-1.3-0.2c-2,0-4.4,1.2-6.5,0.1c-0.2,0.1-0.4,0.1-0.6,0.2c-2.1-1.2-5-1.1-5.8-3.5c0.1-0.6,0.6-0.7,0.7-1.2
		C43.8,34.4,44.6,34.1,45,34.2z M47.4,32.9c-0.7,0.1-0.4-0.9,0-0.8C47.3,32.4,47.3,32.6,47.4,32.9z M42.6,29.1
		c0.3-0.6,0.9-0.7,1.4-1C44.3,28.4,43.1,29.1,42.6,29.1z M108.7,58c-1.1,2.1-3.4,3.9-4.7,6.2c-0.5,0-0.8,0.3-1.5,0.2
		C104.3,61.9,106.4,59.8,108.7,58z M103.9,66.6c-0.6,0.3-1.2,0.5-2.1,0.5C102.2,66.7,103,66.5,103.9,66.6z M106.4,58.9
		c0.3,0,0.1,0.1,0.1,0.2c-1.5,1.9-3.4,3.5-4.8,5.5c-0.5,0-0.9,0.2-1.5,0.2C101.7,62.3,104.1,60.7,106.4,58.9z M105.4,58.9
		c-1.6,1.3-3.1,2.8-4.7,4.6c-0.8,0.9-1.2,1.6-2.5,1.8C100.2,62.6,102.3,60.2,105.4,58.9z M101.9,60.1l0.3,0
		c-0.6,1.2-1.8,1.8-2.6,2.7c-0.8,0.9-1.4,2.2-2.6,2.7c-0.1-0.4,0.7-1.3,1.2-1.8c0.6-0.6,1.3-1.1,1.6-1.8
		C100.7,61.5,101.2,60.7,101.9,60.1z M100,60.8c0.2,0.3-0.5,0.8-0.9,1.2c-0.4,0.5-0.7,1.1-1.2,1.3c0.1,0.3-0.2,0.3-0.1,0.6
		c-0.9,0.5-1.3,1.8-2.5,2C96.7,64,98,62,100,60.8z M98.1,60.8l0.3,0c-0.1,1.1-1.2,2-2,2.9c-0.7,0.9-1.3,2.2-2.5,2.4
		C94.9,64,97,62.9,98.1,60.8z M85.2,66.1c4-1.8,7.7-3.9,12.3-5c-0.7,0.9-1.5,1.6-2.3,2.6c-0.6,0.8-1.2,2.2-2.1,2.7
		c-0.6,0.4-1.7,0.4-2.7,0.7c-3.3,0.9-6.4,2.1-9.8,2.7c0.1-1.1,1.1-1.4,1.4-2.4c-0.8,0-1.2,0.7-1.5,1.2c-0.3,0.5-0.5,1.4-1.2,1.5
		c-0.2-0.9,0.9-1.3,1.2-2c-0.3-0.4-1,0.4-1.4-0.1C81,67.2,82.7,66.3,85.2,66.1z M84.5,74.5c-0.7,0-1.1,0.7-1.9,0.3
		c0.4-0.6,1.2-0.8,1.7-1.3c-0.7-0.3-1.5,1-2.2,0.8c0.3-0.7,1.2-1,1.7-1.6c-0.9-0.2-1.4,1-2.6,0.9c0.2-0.3,0.5-0.3,0.6-0.7
		c-0.3-0.1-0.5-0.3-1.1-0.3c1.3-1.8,4.7-1.9,7.2-2.7c0.7-0.2,0.9-0.7,1.8-0.6c-1.2,2.5-2.9,4.4-5.2,5.7C84,74.9,84.6,74.8,84.5,74.5
		z M80.7,76.6c-0.2,0.7-1,0.6-1.5,0.9C79.4,76.9,80.1,76.9,80.7,76.6z M79,73.9c0.6-0.5,1.3-0.7,2.2-0.8
		C80.7,73.6,79.8,73.8,79,73.9z M80.4,75.6c-0.1-0.2,0.5-0.8,1.1-0.8C81.4,75.4,80.8,75.4,80.4,75.6z M81.9,70.3
		c1.3-0.5,2.8-0.8,4.4-1C84.9,69.8,83.6,70.3,81.9,70.3z M80.7,70.9c-0.4,0.3-1.2,0.3-1.8,0.5C79.4,71,80.1,71,80.7,70.9z
		 M77.1,76.9c0.4-0.5,0.9-1,1.8-1C78.6,76.5,77.8,76.7,77.1,76.9z M78.2,77.8c-0.2,0.3-0.8,0.5-1.1,0.3
		C77.3,77.8,77.7,77.8,78.2,77.8z M75.7,75.1c0.4-0.5,1.1-0.6,1.8-0.7C77,74.7,76.3,74.9,75.7,75.1z M76.7,77.5
		c-0.1,0.3-0.5,0.3-0.8,0.3C76,77.5,76.5,77.7,76.7,77.5z M74.8,76.4c-0.6,0.6-1.3,1.1-2.1,1.4C73.2,77.3,74,75.9,74.8,76.4z
		 M73.3,76c0.1-0.4,0.7-0.4,1-0.7C74.4,75.6,73.8,76,73.3,76z M72.5,73.6c-2.7,0.2-3.9,2.1-6.1,2.8c0.5-0.9,1.6-1.1,2.5-1.6
		c0.5-0.3,0.9-0.9,1.4-1.2c0.4-0.2,0.8-0.1,1.4-0.2c1.9-0.4,4.1-1.8,6.5-1.8C76.7,72.5,73.8,72.2,72.5,73.6z M62.9,86
		c0.1-1,1.4-1.6,1.8-2.7c0-0.1-0.2-0.1-0.3-0.1c0.6-1.1,1.5-1.4,1.8-2.6c-0.7-0.1-1.1,1.2-1.8,1.5c0.3-0.7,0.6-1.3,1-1.9
		c0.9,0.1,1.7,0,2.4-0.1c-0.5,0.5-1.2,0.8-1.8,1.3c0.8-0.4,1.6-0.8,2.3-1.4c0,0.1,0.1,0.2,0.2,0.2c-1,1-2.2,1.8-3.5,2.5
		C65.3,84.1,63.5,84.8,62.9,86z M56.1,85.1c-1.2,0.2-2.7,0.6-3.7,0.5c-0.1,0-0.4-0.3-0.6-0.3c-0.4,0-0.7,0.3-1.1,0.3
		c-1.8,0-3.5-0.5-5.2-0.8c1.3-0.3,2.6,0.3,4.4,0.3c5.2-0.1,10.5-0.8,13.3-3.4c0.2,0,0.2,0.1,0.2,0.2C61.9,83.9,59.4,84.6,56.1,85.1z
		 M60.7,86c0.1-0.2,0.3-0.4,0.4-0.6C61.3,85.6,61.1,86.2,60.7,86z M57.2,86.8c0-0.3,0.3-0.1,0.4-0.3C57.9,86.7,57.4,87.2,57.2,86.8z
		 M56.3,86.2C56,86.5,55.4,87,55,86.9C55.3,86.6,55.7,86.3,56.3,86.2z M52.1,86.3l0.9,0c-0.2,0.3-0.7,0.3-0.7,0.9
		c-0.4-0.1-0.8,0-1,0.1C51.4,86.7,52.6,87.1,52.1,86.3z M50.3,86.3c-0.4,0.2-0.7,1.2-1.4,0.8C49.2,86.7,49.6,86.3,50.3,86.3z
		 M40.5,76.5c-0.3,0.7-0.6,1.4-1.2,1.7c-0.1-1,1-1.6,1.6-2.2C41.3,75.9,40.6,76.4,40.5,76.5z M41.1,77.4c-0.1,0.5-0.6,1.4-1.3,1.6
		C39.6,78.2,40.5,77.3,41.1,77.4z M39.1,77.1c-0.5-0.6,0.4-1.6,1.1-1.6C40,76.2,39.4,76.5,39.1,77.1z M40.5,80.4
		c-0.7-1.4,1-2.1,2-2.8c0.1,0.6-1.2,1.6-1.8,2.2c0,0.6,0.3,0.9,0.5,1.4c0.7-0.4,0.7-1.5,1.6-1.7c0.1,1.2-1.2,1.3-0.9,2.3
		c0.5,0.1,0.2-0.7,0.8-0.5c-0.4,0.5-0.3,0.6,0,1.3c-2.6-0.5-4.6-1.6-5.4-3.8C38.5,79.1,38.7,81.4,40.5,80.4z M42.1,79.3
		c0,0.4-0.1,0.5-0.5,0.4c0-0.2,0.2-0.2,0.1-0.5L42.1,79.3z M43.3,84.1c-1.9,0.1-4.4-1-5.3-2.5C39.6,82.6,41,83.7,43.3,84.1z
		 M42.7,80.9c0.1-0.3,0.4-0.4,0.8-0.3C43.5,81,43.1,81,42.7,80.9z M42.3,77.1c0.4-0.5,0.9-1,1.7-1.1C43.8,76.8,43,76.9,42.3,77.1z
		 M42,76.2c0.3-0.2,0.6-0.4,0.9-0.5C42.7,75.9,42.5,76.2,42,76.2z M44.3,79.7c0.1,0.4-0.4,0.3-0.7,0.3C43.7,79.9,44,79.8,44.3,79.7z
		 M44.2,79.3c0.4-0.3,0.5-0.9,1.3-0.8C45.2,79,44.9,79.3,44.2,79.3z M44.6,81.1c0.3,0.3-0.5,0.5-0.9,0.4
		C43.6,81,44.4,81.4,44.6,81.1z M44.2,80.9c0.1-0.6,0.8-0.9,1.3-0.6C45.4,80.8,44.8,80.8,44.2,80.9z M46.1,81c0,0.4-0.4,0.4-0.8,0.4
		C45.4,81.1,45.6,80.9,46.1,81z M45.7,79.7c0-0.3,0.3-0.3,0.6-0.3C46.1,79.5,46,79.7,45.7,79.7z M45.8,81.8
		c-0.1,0.4-0.7,0.3-1.1,0.4C44.7,81.6,45.5,81.9,45.8,81.8z M53,74.4c0.6-1.1,1.4-2,2.4-2.7C55.1,72.7,54.1,73.8,53,74.4z
		 M56.9,73.8c-0.6,0.9-1.3,1.7-2.1,2.3C55,75.2,56.1,74.4,56.9,73.8z M52.2,79.3c0.4-0.8,1.1-1.2,1.7-1.8c0.2,0.1,0,0.5,0.4,0.4
		c-0.1,0.5-0.5-0.1-0.7,0.2C53.9,79,53,79.4,52.2,79.3z M48.2,82.1c0,0.4-0.5,0.3-0.8,0.3C47.4,82,47.9,82.1,48.2,82.1z M47.2,81.2
		c0-0.5,0.2-0.6,0.7-0.5C47.8,81,47.6,81.2,47.2,81.2z M47.9,81.6c0.1-0.3,0.5-0.2,0.9-0.2C48.8,81.8,48.3,81.6,47.9,81.6z
		 M48.5,80.9c0.1-0.4,0.5-0.5,1-0.7C49.4,80.8,49,81,48.5,80.9z M48.2,80.1c0.1-0.4,0.4-0.7,0.8-0.7C49.1,80,48.6,80,48.2,80.1z
		 M48.6,78.2c0.5-0.4,0.8-1.2,1.7-1.2C49.8,77.4,49.3,77.9,48.6,78.2z M50.4,79.3c-0.2,0.2-0.3,0.4-0.6,0.4
		C49.9,79.4,50,79.2,50.4,79.3z M50.7,81.8c-0.1,0.2-1.1,0.5-1.2,0.1C49.7,81.7,50.3,81.8,50.7,81.8z M50.2,81.4
		c0.2-0.4,0.9-0.3,1.3-0.5C51.4,81.4,50.8,81.4,50.2,81.4z M51.1,80.5c0.2-0.6,0.8-0.7,1.5-0.7C52.4,80.3,51.7,80.4,51.1,80.5z
		 M50.6,77.6c0.1-0.5,0.6-0.5,0.8-0.8C51.6,77.1,51.1,77.6,50.6,77.6z M53.1,80.5c0,0.4-0.4,0.5-0.8,0.4
		C52.3,80.6,52.7,80.5,53.1,80.5z M53.8,74.8c0.3-0.3,0.6-0.6,0.8-1C54.8,74.1,54.3,74.7,53.8,74.8z M52.4,70.3
		c-1.3,0-2.3-0.2-3.5-0.3C49.6,69.8,52,69.7,52.4,70.3z M51.9,68.9c0.6-0.5,2.1-0.3,2.9,0.1C53.7,69.3,53,68.9,51.9,68.9z
		 M54.3,71.6c-0.4,1.1-1.7,2.4-2.5,3.6c-1.7-0.7-4.3-0.7-4.9-2.5C49.1,71.7,51.3,71.2,54.3,71.6z M47.1,76.5
		c0.5,0.2-0.1,0.6-0.5,0.6C46.5,76.7,46.9,76.7,47.1,76.5z M53.4,83.4c0.1-0.4,0.7-0.2,0.9-0.1C54.2,83.6,53.7,83.4,53.4,83.4z
		 M61.1,80.5c0.2-0.5,0.7-0.6,1-1C62.3,79.9,61.5,80.3,61.1,80.5z M68.5,77.2c-0.3,0.5-1.1,0.5-1.4,0.9c0.1,0.4,0.4,0.2,0.7,0.1
		c-0.4,0.8-1.4,1-2,1.5c-0.4-0.1,0-0.4-0.1-0.8c1-0.6,1.4-1.9,2.6-2.2C68.6,76.9,68.1,77.2,68.5,77.2z M65.2,77.3
		c-0.2-0.4,0.6-1.1,1-0.8C66,77,65.4,77,65.2,77.3z M66.8,79.6c1.1-0.8,2.4-1.4,3.5-2.1c0.2,0.5-0.8,1-1.3,1.3
		C68.4,79.2,67.6,79.6,66.8,79.6z M71.9,77.8c-0.5,0.7-1.4,0.9-2,1.4C69.9,78.6,70.9,77.9,71.9,77.8z M77.4,75.2
		c0.4-0.4,1-0.6,1.5-0.7C78.5,74.8,78,75.1,77.4,75.2z M78.7,69.1c0.3,0.2-0.4,1.3-1,1.3C77.8,69.7,78.4,69.5,78.7,69.1z M77,69.8
		c0.3,0.3-0.4,0.6-0.5,0.9C76.2,70.4,76.9,70.1,77,69.8z M76.4,69.4c-0.3,0.7-0.6,1.4-1.4,1.6C75.4,70.4,75.7,69.7,76.4,69.4z
		 M74.5,70.6c-0.3,0.2-0.3,0.8-0.8,0.8C73.8,71.1,74,70.7,74.5,70.6z M72.9,70.9c0.1,0.3-0.2,1.1-0.7,1.1
		C72.2,71.4,72.8,71.4,72.9,70.9z M72.1,70.9c-0.2,0.6-0.7,1-1,1.5C71,71.8,71.7,71.1,72.1,70.9z M65.3,72.1
		c-0.2,0.2-0.5,0.2-0.9,0.2C64.5,72,64.9,72.1,65.3,72.1z M66.6,72.4c1.9,0,2.8-1.1,4.4-1.3c-0.2,0.7-0.9,0.9-0.9,1.8
		c-2.3,0.9-4.1,2.2-6,3.5c-0.6,1.5-1.8,2.3-3.1,3c0.8-1.1,2.1-1.8,2.9-3c-2.7,1.2-3.7,4.2-6.6,5.3c0.9-1.5,2.5-2.3,3.6-3.7
		c-1.4,0.4-2.7,2-3.8,3.2c-0.3,0.3-0.8,1-1.4,0.6c0.9-1.5,2.4-2.4,3.5-3.7c-1.7,0.2-2.3,2.6-4.2,3.1c0-0.2,0.2-0.3,0.5-0.2
		c0.4-1.7,2.1-2.1,2.9-3.5c-2.1,0.6-2.5,3-4.8,3.4c0.5-1.5,2.6-2.3,3.5-3.8c-1.8,0.1-2.2,2.6-4,3c0.8-1.6,2.5-2.1,3.4-3.7
		c-1,0.1-1.1,1.1-2,1.2c1.1-1.7,2.5-3.2,3.9-4.6c0.7,0.1,0.8,0.8,1.7,0.6c-0.2-0.5-0.9-0.6-1.1-1.1C61.3,72.8,64.6,73.7,66.6,72.4z
		 M65.3,68.2c0.1-0.2,0.9-0.1,1,0C66.2,68.5,65.4,68.3,65.3,68.2z M76.4,46.7c-0.4,0.2-0.9,0.1-1.1,0.5c0.1,0.2,0.2,0.4,0.6,0.4
		c-0.4,1.3-0.7,2.7-1.7,3.3c-0.2,0.4,0.4,0.1,0.2,0.5c-0.9,1.9-1.8,3.8-2.5,5.8c-1.2-0.6-2.4-0.4-3.8-0.7c1.1-0.7,2.7-0.8,4.1-0.9
		c-0.2-1-2-0.5-2.9-0.9c0.8-0.6,2.2-0.6,3.3-1c-0.3-0.8-1.8-0.5-2.5-0.9c0.8-0.5,1.8-0.4,3-0.3c-0.4-1.1-2.3-0.7-3.4-1.1
		c0.9-1.1,2.6-0.2,3.9-0.4c0.2-0.5-0.4-0.3-0.3-0.7c0.5-0.1,0.5-0.6,0.9-0.7c-0.1-0.4-0.8-0.3-1-0.6c0.6-0.4,1.7-0.2,2-0.8
		c-0.3-0.7-1.6-0.4-2.4-0.7c0.4-0.6,1.3-0.1,2.1-0.1c0.3-0.5-0.4-0.6-0.1-1c0.2-0.3,0.7,0.3,0.8-0.2c0-0.4-0.5-0.3-0.7-0.6
		c0.4-0.4,1.3-0.1,2-0.2C76.9,45.8,76.4,45.9,76.4,46.7z M73.3,48c-1.2,0.7-3,0.6-4.6,0.3C69.9,47.6,71.6,47.5,73.3,48z M67.8,46.9
		c1-0.7,2.6-0.4,3.9-0.2C70.8,47.5,69,46.6,67.8,46.9z M68.8,48.8c-1.2,1-4.2,0.3-5.7-0.3C65.1,48.6,67.1,48.6,68.8,48.8z
		 M73.2,49.5c-1.2,0.7-3,0.5-4.5,0.2C69.7,49.1,71.8,49.2,73.2,49.5z M71.7,46.2c0.2-0.5,2.1-0.7,2.3,0
		C73.4,46.4,72.5,46.3,71.7,46.2z M77.1,43.4c0.1-0.5-0.2-0.6-0.2-0.9c0.6-0.1,0.8-0.7,1.3-1c0.4,0.9-0.8,2.2-1.4,3
		c-0.8-0.6-1.4,0.3-2.5,0C74.9,43.8,76.4,44,77.1,43.4z M74.1,43.7c-0.6,0.3-1.3,0.5-2.2,0.5C72.5,43.8,73.3,43.7,74.1,43.7z
		 M73.5,44.8c-0.4,0.5-1.1,0.4-1.9,0.3C72,44.6,72.8,44.7,73.5,44.8z M67.8,45.7c0.8-0.5,2.3-0.6,3.5-0.3
		C70.6,46.1,68.7,45.9,67.8,45.7z M70.9,44.5c-0.4,0.1-0.7,0.4-1.3,0.3C69.8,44.4,70.3,44.4,70.9,44.5z M37.6,43.1
		c0.5,0.1,5.6,1.3,9,1.2c6.3,1,14,0.7,19.6,0.3c0.3,0.4,1.1,0.3,1.6,0.5c-0.6,0.3-1.3,0.5-2.1,0.6c0.4,0.3,1.1,0.4,1.8,0.4
		c-0.5,0.3-1.2,0.4-1.9,0.5c1.2,0.6,2.4,0.4,3.7,0.8c-2.1,1.3-5.5-0.3-7.6-0.3c0.5,1,2.9,0.2,3.4,1.2c-5.7-0.1-11-0.4-16.2-0.2
		c2.7,0.6,6.8,0.3,10,0.3c1.1,0,2.5-0.1,3.1,0.6c2.9,0.1,5.2,0.8,7.7,1.3c-2.8,1.4-6.2-0.6-8.9-0.6c0.5,0.2,1.2,0.2,1.2,0.7
		c1.7,0,3.1,0.3,4.6,0.5l0,0.6c1.2-0.3,2.3-0.2,3.5,0.3c-2,1.3-5.7-0.6-7.9-0.1c1.4,0.5,4.1-0.1,4.6,1.3c1.2-0.1,2.6-0.3,3.6,0.3
		c-2.2,1.4-5.4,0.5-8.3,0c0.9,1,3.7,0.3,4.4,1.6c0.9-0.3,1.8-0.1,2.7,0.2c-1.7,1-3.7,0.9-5.9,0.5c1.8,0.8,3.6,1,5.7,1.4
		c-1.9,1.5-5,0-7.2,0c1.7,0.7,3.9,1.1,6,1.5c-1.2,1.2-3.6,0.2-5.4,0c1.5,0.6,3.2,1,4.9,1.3c-1.3,1.4-4,0.5-5.6,0.2
		c1.4,1.1,4.2,1,6.4,1.3c-2,1.2-4.5,0.6-6.8-0.2c0.1,0.7,1.1,0.6,1.7,0.8c0.9,0.2,1.9,0.4,2.5,0.9c0.4,0.1,1-0.1,1.3,0.2
		c-1.3,1-3.3-0.3-5-0.3c1.4,0.9,3.6,1.3,5.5,1.5c-1.7,1.2-4.5-0.4-6.2-0.2c1.3,0.8,3.6,0.7,4.9,1.6c0.5-0.3,1.4-0.1,1.9-0.4
		c0-0.4-0.4-0.5-0.4-0.9c0.3,0,0.6,0,0.7-0.1c0.3-0.3-0.4-0.4-0.1-0.8c0.2-0.2,0.7,0,0.8-0.2c0-0.7-1.2-0.3-1.7-0.6
		c0.3-0.3,1-0.2,1.4-0.4c0.2-0.5,0-0.8,0.5-1c-0.2-0.5-1.2-0.2-1.7-0.3c0.5-1,2.1-0.1,2.7-0.8c-0.6-0.2-1.4-0.3-2.1-0.5
		c0.7-0.4,1.5-0.7,2.6-0.7c-0.1-0.7-1.4-0.3-1.8-0.7c0.7-0.6,1.8-0.6,2.9-0.7c-0.4,1-2.3,7-2.4,7.3c-0.2,0.8-0.8,1.5-1,2.3l-0.8,0
		c-0.2-0.2-0.1-0.5-0.1-0.8c-1.7,0.1-3.6-0.1-5.3-0.6c-0.3-0.1-0.6-0.4-0.7-0.4c0.4,0.1-0.6-0.3-0.6,0.1c0,0.5,2.7,1,3.3,1.2
		c1.3,0.4,2.6,0.5,3.2,1.2c-2.2,0.1-3.8-0.9-5.4-1c0.5,0.9,1.9,1,3,1.4c-0.9,0.3-2.3-0.7-3-0.2c0.4,0.9,2.2,0.5,3,0.9
		c-0.8,1.1-2.1,0.1-3.2,0c-0.3,0-0.1,0.6,0.1,0.6c-0.8,0.5-2,0.4-2.6,1.1c-1.7-0.1-3.1,0.1-4.5-0.3c-0.2-0.5,0.5-0.2,0.5-0.6
		c0.5,0.3,1.7,0.6,2.3,0.4c-0.7-0.5-1.8-0.3-1.7-1.2c-2-0.5-4.7-0.3-6.8-0.6c-0.7-0.1-1.3-0.7-1.8-0.3c0.2,0.6,0.4,1.2,1.2,1.3
		c-2.9,0.5-8.5-4.4-10.3-9.3c-1.4-4.6-3-7.8-4.1-12.6c0-0.4-0.7-3-1.2-4.1c0.7,0.2,1.8,0.4,2.7,0.8c0.8,0.3,1.7,1.4,2.4,0.6
		c-1.6-0.8-3.7-1.7-5.6-2c-0.3-0.4-0.4-1-0.8-1.3C33.7,40.9,35.3,42.8,37.6,43.1z M36.4,57.3c-0.7,0.1-0.7-0.5-0.7-1.1
		C36.2,56.3,36.2,56.9,36.4,57.3z M35.1,57.1c-0.3-0.3-0.4-0.7-0.4-1.3C35,56.1,35.1,56.5,35.1,57.1z M33.7,55.7
		c0.6,0.4,0.6,1.3,0.8,2C33.6,57.7,33.7,56.2,33.7,55.7z M34.1,60.1c-0.4,0-0.3-0.5-0.3-0.8C34,59.4,34.1,59.7,34.1,60.1z
		 M31.5,43.7c-0.4-0.5-0.7-1.1-0.7-2C31.2,42.2,31.4,42.9,31.5,43.7z M29.2,42c0.9,0,0.5,1.3,0.9,1.8C29.3,44.2,29,42.6,29.2,42z
		 M28.8,46.4c0.6,0.2,0.1,0.8,0.2,1.5C28.7,47.6,28.5,46.9,28.8,46.4z M29.2,48c0.5,0.1,0.5,1.1,1.2,0.7c0.5,2,4.1,3.2,2.3,5.5
		c-0.4,0.2-0.8-0.2-1.3,0.1c-0.4,0-0.2-0.6-0.6-0.6c-0.4,0-0.2,0.5-0.5,0.6c-0.4-0.2-0.4-0.7-0.8-1c-0.3,0-0.4,0.3-0.7,0.3
		c-3-0.5-4.8-2.2-6.8-3.7c-0.1-1.3,0.1-2.1,0.8-2.7c0.4-0.1,0.2,0.3,0.6,0.3c0.3-0.1,0.3-0.5,0.5-0.8c0.4,0,0.4,0.5,0.8,0.6
		c0.3-0.1,0.2-0.5,0.4-0.7c0.5,0.1,0.3,0.9,0.8,1.2c0.3-0.1,0.3-0.6,0.4-1c0.4,0.1,0.4,0.6,0.7,0.7c0.4,0.1,0.6-0.1,0.9-0.1
		c0,0.5,0.5,0.6,0.7,0.9C29,48.5,28.8,47.9,29.2,48z M32.4,57.1c-0.8-0.1-0.8-1-0.9-1.8C32.4,55.4,32.2,56.5,32.4,57.1z M30.6,55
		c0.4,0.3,0.6,1.3,0.6,1.6C30.7,56.4,30.7,55.7,30.6,55z M30.5,59.4c-0.5,0-0.3-0.6-0.4-0.9C30.5,58.6,30.4,59,30.5,59.4z
		 M29.1,54.2c0.8,0.2,1,1.5,1,2.1C29.2,56.1,28.9,54.9,29.1,54.2z M29.4,59c-0.2-0.1-0.3-0.3-0.3-0.6C29.4,58.4,29.4,58.7,29.4,59z
		 M27.8,54l0.3,0c0.1,0.6,0.3,1.1,0.4,1.7C28.1,55.4,27.9,54.8,27.8,54z M28.1,56.8c-0.4,0-0.4-0.3-0.3-0.6
		C27.9,56.3,28.1,56.4,28.1,56.8z M27.5,55.5c-0.6-0.2-0.5-1.1-0.6-1.8l0.3,0C27.3,54.2,27.4,54.8,27.5,55.5z M22.8,51.7l0.3,0
		c0.1,1.4,0.7,2.9,0.7,4.1c-0.5,0-0.3-0.6-0.2-0.8C23.1,54.1,22.9,53,22.8,51.7z M22.8,55.2c-0.7-0.9-0.8-2.6-0.9-4.3
		c0.2,0,0.2,0.1,0.3,0.1C22.2,52.6,23,53.9,22.8,55.2z M24,52.2c0.2,0,0.2,0.2,0.5,0.1c-0.3,1.1,0.2,1.8,0.2,2.9
		C24.1,54.6,23.8,53.2,24,52.2z M24.6,55.6c0.4,0,0.3,0.6,0.8,0.6c-0.1,0.2-0.8-0.1-1-0.2C24.3,55.7,24.6,55.8,24.6,55.6z
		 M24.8,52.7l0.3,0c0.2,1.2,0.7,2.1,0.8,3.4C25.2,55.3,24.9,54.1,24.8,52.7z M25.8,53.2l0.3,0c0.3,0.6,0.4,1.3,0.5,2.1
		C26,55,26.1,53.9,25.8,53.2z M23.4,46.1l0-0.6C23.9,45.4,23.9,46.2,23.4,46.1z M24,42.2l0.5,0c0.2,0.5,0.2,1.5-0.6,1.2
		C23.9,43,23.8,42.4,24,42.2z M24.7,45.3c0.4,0,0.2,0.6-0.1,0.6C24.5,45.6,24.6,45.5,24.7,45.3z M25.5,43.2
		c-0.3-0.2-0.6-0.9-0.2-1.2l0.3,0C25.9,42.3,25.7,42.9,25.5,43.2z M25.8,44.8c0.3,0.1,0.5,0.9,0.2,1.2
		C25.4,45.9,25.6,45.1,25.8,44.8z M28.4,46.2c-0.4,0-0.2-0.9-0.1-1C28.8,45.1,28.4,46,28.4,46.2z M27.8,40.2c0.4,0,0.7,0.1,0.7,0.5
		c0,0.4-0.3,0.4-0.7,0.4C27.6,41,27.6,40.4,27.8,40.2z M27.6,42c1-0.4,1.1,0.9,0.9,1.4C27.7,43.3,27.5,42.8,27.6,42z M27.3,46.2
		c-0.5,0-0.5-0.9-0.3-1.3C27.3,45.2,27.4,45.7,27.3,46.2z M26.9,43.1c-0.2-0.3-0.6-0.5-0.5-1.1c0.3,0.1,0.3-0.2,0.6-0.1
		C27,42.3,27.2,42.9,26.9,43.1z M27,40.4c0,0.3,0,0.7-0.1,0.8c-0.5,0.1-0.5-0.4-0.8-0.5c-0.4,0-0.5,0.3-0.8,0.4
		c-0.4,0.1-0.1-0.4-0.4-0.4c-1.1,0.7-2.2,1.1-3.8,1.5C22,40.7,24.6,39.8,27,40.4z M12.6,55.3c-0.1,0.5-0.6,0.5-0.8,0.9
		C11.4,55.6,12.1,55.2,12.6,55.3z M6.7,62.4c0.1-0.1,0.4-0.2,0.5-0.3c0.1-0.2-0.1-0.4-0.1-0.6c0.1-0.4,0.6-0.8,1-1.2
		c1-1.4,1.7-3.1,3.3-3.7c0,0.3-0.2,0.2,0,0.5c1.6-0.9,2.5-2.6,4.6-2.9c-1.3,1.3-3,2.1-4.1,3.7c1.4-0.3,2.2-1.9,3.5-2.8
		c0.8-0.6,1.8-0.5,2.6-1.2c-1.2-0.8-2.8-0.1-4,0.7c0.5-1,2.8-2.6,4.1-1.9c-0.2-1.2-1.1-2.8-0.7-5c0.1-0.1,0.3-0.1,0.5-0.1
		c0.4-3.1,2.3-4.7,5.4-5c-0.1,0.5,0,0.9,0.1,1.3c-1.1,0.7-2.2,1.4-3.4,1.9c-2.3,2.9-1,7.5,1.2,9.6c-1.2-0.2-1.8-1.7-2.7-2.5
		c0.2,2.2,2.8,3.2,4.2,4.7c-1.1,0.8-2.2,1.7-3.3,2.8c-0.8,0.8-1.8,1.6-2.5,2.4c-1.3,1.6-1.4,4.4-3.4,5.3c-0.2,0.8-0.3,1.8-1,2
		c-0.2-3.1,1.8-4.3,3.1-6.1c-1.1,0.1-1.6,1.9-2.6,2.4l0-0.6c-0.9,0.4-0.5,2.2-1.4,2.6c-0.3-3.3,2.9-4.8,4.4-6.8
		c-1.4,0.5-2.6,2.2-3.7,3.4c-0.3,0.1-0.3-0.2-0.6-0.1c-0.4,0.3-0.8,0.6-0.9,1.2c-0.1,0-0.1,0-0.1-0.1c0.7-2.4,2.7-3.3,4-4.9
		c-1.3,0.2-2.3,2.3-3.5,2.6c1.1-2.6,3.3-4,5.3-5.7c-1-0.4-1.3,1-2.2,1.1c-1.5,1.7-3,3.2-4.5,4.9c0.2-1.3,1.5-2.5,1.9-4
		c-1.2,0.4-1.4,1.9-2.5,2.4c1.9-3.5,5.3-5.3,8.4-7.5c-0.7-0.6-1.4,0.6-1.9,1c-1.3,0.7-2.2,1.8-3.3,2.6l-0.6,0
		c-0.9,0.5-1.6,2-2.4,2.2c0.3-1.5,1.5-2,2.2-3.2c-2.4,1.3-4.1,4.4-4.9,7.8C6.1,64.9,6.3,63.2,6.7,62.4z M21.1,49.2
		c-0.3-0.6-1.2-1.3-0.7-2.2c0.7,0.2,0.6,1.2,1.2,1.4c-0.3,2.1-0.1,3.8,0.2,5.9c-0.4,0.2-0.8-0.5-1-0.8c0-0.2,0.3,0,0.4-0.2
		C21.1,51.8,20.4,50.6,21.1,49.2z M20.4,52.1C20,51.6,20,51,20.1,50.2C20.6,50.5,20.1,51.6,20.4,52.1z M17.9,75.2
		c-0.4,1.1-1,2.8-0.7,3.8c0.5-0.2,0.1-1.3,0.5-1.6c0.3,1.1,0.2,2.6,0.4,3.7c-2.2-0.4-1.7-4.2-1.1-6.2c0-0.3-0.3,0-0.2,0.2
		c-0.6-1.3,0.8-2.5,1.2-3.5c1.1,0.5,1.9,1.2,3.1,1.6c-0.5,1.5-1.5,2.9-2,4.4c-0.2,0.5,0,1.2-0.6,1.5c0-2.2,0.1-4.8,1.3-6.1
		C18.8,73.2,18.2,74.3,17.9,75.2z M15.5,75.5c0.1,0.5,0.4-0.4,0.5,0c0.2,0.8-0.1,2-0.5,2.6c-1.6-2.5,0.6-5.3,1.8-7.2
		C17.5,72.3,15.7,73.6,15.5,75.5z M16.2,79.7c-0.6-0.1-0.5-1-0.3-1.4C16.3,78.5,16,79.3,16.2,79.7z M15.1,73.9
		c-0.7-1.7,0.4-3.5,1.1-4.5c0.6,0.1,0.5,0.7,0.9,1C16.4,71.5,15.7,72.6,15.1,73.9z M14.7,77.1c0.1,0.5,0,1.1,0.2,1.5
		c-0.4-0.3-0.9-0.5-1.2-0.9c-0.3-1.7-0.3-3.5,0.6-4.6c0.7,1.3-0.1,3.1-0.4,3.9C14,77.4,14.3,76.9,14.7,77.1z M14.7,70.3
		c-0.3,1.3-0.6,2.5-1.2,3.4c-0.8-2.4,1.1-3.8,1.8-5.4c0.5-0.1,0.6,0.3,0.8,0.5C15.7,69.3,15.6,70.2,14.7,70.3z M15.1,66.8l0.3,0
		c0.1,1.6-1.2,2.4-2,3.4C13.3,68.3,14.6,68,15.1,66.8z M12.6,73.2c0.7,0.7,0.4,2.5-0.5,2.9C12.1,74.8,12.1,74,12.6,73.2z M12.9,70.2
		c0.3,1.1-0.2,2.2-0.6,2.9C11.7,72.2,12.3,70.6,12.9,70.2z M11.4,72.3c0.8,0.5,0,2.4,0.3,3.2c-0.4-0.3-0.7-0.6-0.9-1
		C11.2,73.9,10.6,73,11.4,72.3z M10.8,72.5c-0.2-1.3,0.1-3.3,1-4.1C12,69.4,12,72,10.8,72.5z M10.4,71.2c-0.3,0-0.2-0.7-0.1-0.8
		C10.7,70.5,10.3,70.8,10.4,71.2z M7.7,66.4C7.6,65.7,8.1,65.7,8,65C8.2,65,8.2,66.5,7.7,66.4z M7.5,69.2C7.2,69.1,7,69,7,68.7
		c0.5-0.3,0.5-1.1,0.8-1.7C8.2,67.3,7.7,68.7,7.5,69.2z M6.7,67.7c0-2.1,0.6-4.1,1.5-5.6c0.1,0,0.2,0,0.2,0.1
		C7.7,63.9,7.5,66.1,6.7,67.7z M9,67.4c0.2,0.6,0,2.2-0.8,2.6C7.9,68.9,8.6,68,9,67.4z M8.7,65c-0.3-0.9,0.3-1.9,0.8-2.4
		C9.8,63.2,8.8,64.3,8.7,65z M10.2,63.8c0.3,1.1-1,2.6-1.6,3.5C8.4,65.8,9.6,64.8,10.2,63.8z M9.4,68.8c0.6,0.8,0.3,2.5-0.5,3.1
		C7.8,71.1,9,69.6,9.4,68.8z M9.6,71.7c0.3,0.2,0.2,0.7,0.8,0.7l0,1.3c-0.6-0.2-0.7-0.8-1-1.2C9.2,72.1,9.5,71.9,9.6,71.7z
		 M10.3,69.7c-0.5-0.1-0.1-1.3-0.1-1.6c0.2,0,0.1,0.3,0.5,0.2C10.7,68.9,10.7,69.5,10.3,69.7z M46.4,91.5c0.1-0.4,0.5-0.7,1-0.8
		C47.3,91.3,46.9,91.5,46.4,91.5z M48.9,91.7c0.4-0.3,0.5-1,1.3-1C50,91.3,49.4,91.5,48.9,91.7z M50.4,91.8c0.1-0.6,0.9-0.5,1.3-0.9
		C51.8,91.3,51,91.8,50.4,91.8z M55.7,91.7c-0.4-0.4,0.4-0.5,0.5-0.7C56.5,91.3,55.8,91.5,55.7,91.7z M69.6,90.2
		c0.2-0.4,0.6-0.5,0.9-0.7C70.4,89.9,70.3,90.3,69.6,90.2z M102.9,72.9c-1.8,0.9-2.3,3.2-4.2,4c-2,2.4-5,3.8-7.4,5.7
		c-0.3,0-0.3,0.2-0.7,0.1c-0.3,0.3-0.7,0.5-1,0.9c-0.9-0.2-1.2,0.3-1.5,0.6C86.7,84.3,85,85,84,86c-0.4,0.1-0.2-0.5-0.6-0.5
		c-0.8,0.2-1.2,0.8-1.9,1.1c-0.2,0,0-0.3-0.2-0.4c-1.2,0.4-2.1,0.3-3.1,1.3c-0.4,0.1-0.1-0.5-0.4-0.5c-1,0.3-1.5,1.2-2.5,1.5
		c0-0.4,0.4-0.2,0.3-0.7c-1.2-0.2-2.4,0.3-3.2,1.1c-0.3-0.2-0.6-0.4-0.9-0.6c-1.7,0.2-2.5,1.5-4,2c0.2-1,1.3-1,1.6-1.9
		c-0.8,0.1-1.8,1-2.6,1.5c-0.2-0.2-0.1-0.6-0.4-0.6c-0.8,0.5-1,1.5-2.1,1.6c0.3-0.7,1-1,1.4-1.6c-1.2-0.5-1.7,0.8-2.5,1.2
		c-0.5-0.5,0.3-0.6,0.4-1.1c-1-0.4-1.6,1.2-2.7,0.8c-0.8,0.5-1.5,1.1-2.5,1.4c0.7-0.9,1.8-1.3,2.6-2.1c-0.8-0.2-2,0.9-2.7,0.8
		c-0.3-0.5,0.5-0.6,0.6-0.9c-1.4-0.2-2.4,1-3.9,1.2c0.1-0.5,0.7-0.4,0.7-0.9c-0.7-0.5-1.7,0.7-2.5,0.9c-0.4-0.2-0.5-0.4-0.3-0.9
		c-1-0.1-1.2,0.7-2.1,0.6c-0.6,0,0.2-0.2,0-0.6c-1.4-0.2-2,1.2-3,0.6c0-0.4,0.5-0.5,0.3-0.8c-1.1,0.3-1.9,0.9-2.7,1.5
		c-0.3-0.3,0.5-1,0.2-1.4c-0.6-0.1-0.7,0.4-1.2,0.4c-0.5,0.1-1.2-0.3-1.6-0.3c-0.7,0.1-1.1,0.9-1.9,0.6c0-0.4,0.7-0.3,0.7-0.7
		c-0.5-0.5-0.9,0.1-1.5,0.2c0-0.3,0.4-0.2,0.4-0.6c-1.1-0.5-1.6,1.1-2.7,0.7c0.1-0.6,1.3-0.1,1.3-0.9c-1-0.4-1.8,0.6-2.9,0.6
		c0-0.5,0.9-0.2,1-0.7c-0.4-0.5-1.4,0.2-2,0.2c0-0.3,0-0.4-0.2-0.5c-0.8,0-1.2,0.4-1.9,0.5c-0.1-0.7,0.7-0.4,1-0.8
		c-0.3-0.5-1.5,0.1-1.6-0.6c-0.5,0-0.9,0.1-1.3,0.3c-0.4-0.6-1-0.5-1.7-0.3c-0.1-0.4,0.2-0.5,0-0.7c-0.7-0.1-0.9,0.7-1.4,0.3
		c-0.5,0,0.1-0.4-0.2-0.6c-0.4-0.1-0.6,0.1-0.8,0.2c-1.7-0.8-3.8-0.5-4.8-1.9c-0.5,0.2-0.8,0-1.3-0.2c0.1-0.3-0.1-0.4-0.1-0.7
		c-0.6-0.3-1.3,0-1.9,0c-0.3-0.2-0.1-0.8-0.4-0.9c-0.5-0.2-0.3,0.4-0.7,0.3c-0.4-0.4-1-0.5-1.1-1.1c-1.8-0.8-3.6-2.1-5.1-3.3
		c-0.5-0.4-1-1.1-1.6-1.7c-1-1.1-1.7-2-2.7-3.1c-1.6-3.2-4.1-6-2.9-11.1c0.6-0.4,0.7-1.3,1.2-1.8C6,62.8,5.1,64,5.2,65
		c0,0.4,0.4,0.5,0.5,1.1c0.1,0.5-0.1,1.2,0.1,1.6c0.1,0.5,0.6,0.8,0.4,1.7c0.4,0.3,0.8,0.6,0.8,1.4c0.1,0.3,0.5,0.3,0.7,0.5
		c2.2,3.7,4.7,7,8.4,9.2c0.1,0.3,0.4,0.4,0.4,0.7c0.8,0,1.1,0.4,1.5,0.9c1.3,0.7,2.8,1.4,4.3,2c1.5,0.6,3,1.6,4.5,1.4
		c-1.9-1.3-5.6-2.2-7.6-3.8c-0.3-1.6-0.3-3.3,0.5-4.7c0.5,1.5-0.2,4.1,1.1,4.9c0.5-0.2-0.1-0.8-0.1-1.2c0.3-3,1.5-4.9,2.6-7.1
		c-1.8,0.8-1.8,3.5-2.7,5.2c-0.5-1.9-0.1-4.8,1.1-5.6c0.5,0,0.6,0.2,1,0c0.2-0.6-0.6-0.4-0.7-0.7c-0.9,0.1-2.2-0.6-3.1-1.3
		c-1.3-1-2.8-3.5-2.8-4.5c0-0.5,0.6-2.1,0.9-2.7c1.2-2.7,3.9-5,5.9-6.5c1.2,0.4,2.2,0.9,3.1,1.6c0.3,0.1,0.4-0.1,0.7-0.1
		c1.8,1.1,3.9,1.7,6,2.2c3,0.8,6,2.2,6.8,4.7c0.1,0.3,0,1,1.9,2.7c0.8,0.6,2,0.9,2.8,1.5c-0.6,0.6-1.6-1-2.5-0.4
		c0.8,0.9,2.5,1.1,3.8,1.6c-0.1,0.5-0.9,0.3-1.3,0.6c-0.1-1-1.6-0.7-2.4-1.1c-0.1,0.6,1.3,0.9,2,1.1c-2.7,1.5-6.5,1.9-7.8,4.9
		c-1.3,0-2.9-0.8-3.8-0.4c0.3,1.1,2.5,0.4,3.4,0.9c-0.6,1.8,0.9,3.3,1.7,3.4c0.1,0.4-0.3,0.4-0.4,0.7c0.3,0.9,5.3,5.1,7.9,6.1
		c5.4,2.1,12.7,2.7,19.1-1.6c-0.5-0.8,0.4-1.3,0.8-1.8c0.3,0.1-0.1,0.8,0.4,0.7c0.7-1,1.6-1.9,2.3-2.9c-1.1,0.4-1.4,1.5-2.4,2
		c1-2.1,3.3-2.9,4.9-4.4c0.2,0,0.2,0.1,0.3,0.1c0.5-0.2,1-1,1.6-0.6c-0.3,0.3-0.8,0.3-1.2,0.5c-0.2,0.4,0.6,0.3,0.2,0.5
		c-1.3,1.1-2.6,2-3.9,3.1c0.1,0.3,0.2,0.5,0.6,0.5c0.6-0.6,1-1.5,1.8-1.9c0.6,0.2,1,0.1,1.4-0.2c0-0.5-0.2-0.9,0.3-1
		c0.3,0.1-0.2,0.3,0,0.6c0.7,0.1,0.9-0.5,1.3-0.8c1.6-0.2,8-2.2,10.9-4.4c3.1-0.5,4.6-2.8,6.8-4.4c-0.7-0.1-0.8,0.5-1.4,0.5
		c1-2.8,3.2-4.2,6.4-4.6c0,0.4-0.6,0.2-0.7,0.5c1.4,0.5,2.8-1,4.5-0.9c-1.2,0.9-2.8,1.2-4.2,1.8c2.1,0.4,3.4-1.6,5.4-1.3
		c-1.2,1-3.1,1.3-4.6,1.9c1.5,0.3,2.6-0.8,4.3-0.8c-0.8,0.6-2,0.9-2.8,1.5c0.8,0,2.1-0.4,3.1-0.6c-1.4,1.4-4.4,1.1-6.1,2.2
		c1.8-0.2,3.9-1,6.1-1.2c-1.7,1.2-4.7,1-6.3,2.3c0,0.2,0.2,0.2,0.2,0.4c0.7-0.5,2.5-1.5,3.4-0.8c0.8-0.5,1.6-1,2.8-0.9
		c-1.3,0.8-3.4,1.4-5.3,2c-0.5,0.1-1.3-0.1-1.4,0.6c0.9,0.2,1.7-1,3-0.5c1-0.7,2.5-0.9,4.1-1c-2,1.6-5.7,1.3-7.7,2.8
		c0.9,0.3,2.1-1.1,3-0.5c2.1-0.6,4.1-1.4,5.9-2.3c-0.2-0.3-0.5,0.2-0.9,0.1c0.1-0.2,0.4-0.2,0.1-0.5l-1.2,0c1.1-0.5,2.1-1.1,3.6-1.2
		C103.4,72.2,103,72.4,102.9,72.9z M100.5,71.5c0.8-0.7,2.2-0.8,3.1-1.4c-1-0.3-1.9,0.8-3.1,0.3c1.2-0.9,3.2-1,4.5-1.8
		C105.3,70.6,102.7,71.5,100.5,71.5z M104.9,68.5c-1.3,0.1-2.3,0.6-3.6,0.7c0.8-0.7,2.2-0.7,2.9-1.5c-1.3,0.1-2.9,0.8-4.5,1
		c1.6-0.8,3.6-1.2,5.6-1.6C105.9,67.4,105.1,68,104.9,68.5z M116.3,62.4c-1.5,1.1-3.4,1.2-5.4,1.8c0-0.8,0.8-0.7,1-1.3
		c-1.3-0.2-1.5,1.9-3.3,1.6c0.9-1.5,2.4-2.3,3.6-3.4c-1-0.7-1.6,1.1-2.5,1.3c-0.8,0.8-1.2,2-2.6,2.1c1-2,3-2.9,4.1-4.7
		c-2.1,0.5-3.1,3.3-5,4.4c1-2.7,4.2-4.2,6-6.4c-0.9-0.2-1.5,0.7-2.1,1.2c-0.6,0.5-1.2,1.1-1.8,1.7c-1.1,1.2-1.9,2.9-3.6,3.3
		c1.3-1.6,3.8-5.7,6-6.5c1.2-0.4,3.7-0.3,4.8,0.3c0.8,0.5,0.8,1.6,1.4,2.5C116.8,61.1,116.3,61.5,116.3,62.4z"/>
	<path fill-rule="evenodd" clip-rule="evenodd" fill="#404045" d="M25.1,83c-0.2-0.9-0.5-2.1-0.5-3.3c0.1-1.3,1.1-2.5,0.9-3.2
		c-1.4,1.4-1.9,4.4-1.9,6.9c0.2,0.3,0.4,0,0.8,0c-0.1,0.5,0.1,0.7,0.3,0.8c0.4,0,0.3-0.5,0.8-0.4c0-2.5,0.9-4.9,1.9-6.7
		C25.8,78.1,25.8,80.9,25.1,83z"/>
</g>
</svg>
