<?xml version="1.0" encoding="utf-8"?>
<!-- Generator: Adobe Illustrator 18.1.1, SVG Export Plug-In . SVG Version: 6.00 Build 0)  -->
<!DOCTYPE svg PUBLIC "-//W3C//DTD SVG 1.1//EN" "http://www.w3.org/Graphics/SVG/1.1/DTD/svg11.dtd">
<svg version="1.1" id="_x2014_ÎÓÈ_1" xmlns="http://www.w3.org/2000/svg" xmlns:xlink="http://www.w3.org/1999/xlink" x="0px"
	 y="0px" viewBox="0 0 120 120" enable-background="new 0 0 120 120" xml:space="preserve">
<g>
	<path fill-rule="evenodd" clip-rule="evenodd" fill="#404045" d="M72.5,25.5c-0.8-0.5-1.2,0.5-0.8,1C72.4,26.6,72.5,26.1,72.5,25.5
		z"/>
	<path fill-rule="evenodd" clip-rule="evenodd" fill="#404045" d="M58.7,29.4c0.4,0,0.4,0.3,0.9,0.3c0.4-0.3,0.4-1.1,0.5-1.8
		C59.4,28.1,58.8,28.4,58.7,29.4z"/>
	<path fill-rule="evenodd" clip-rule="evenodd" fill="#404045" d="M66.1,29c0.4-0.1,0.4-0.5,0.4-1c-0.4-0.3-1-0.1-1.1,0.3
		C65.4,28.7,65.6,29,66.1,29z"/>
	<path fill-rule="evenodd" clip-rule="evenodd" fill="#404045" d="M61.2,29.5c0.5-0.1,0.8-0.9,0.5-1.4
		C60.8,27.6,60.2,29.3,61.2,29.5z"/>
	<path fill-rule="evenodd" clip-rule="evenodd" fill="#404045" d="M63.4,30.4c0.1-0.9-0.6-1-0.3-1.9c-1.4-0.9-0.9,1.4-0.6,2
		C63,30.6,63.1,30.4,63.4,30.4z"/>
	<path fill-rule="evenodd" clip-rule="evenodd" fill="#404045" d="M65.1,29.9c0-0.2,0-0.4,0-0.6C63.8,28.2,63.6,30.6,65.1,29.9z"/>
	<path fill-rule="evenodd" clip-rule="evenodd" fill="#404045" d="M63.4,31.4c0.2,0.3,0.9,0.3,1.3,0.1
		C65.1,30.4,63.2,30.3,63.4,31.4z"/>
	<path fill-rule="evenodd" clip-rule="evenodd" fill="#404045" d="M65.1,31.9c0.1,0.5,0.1,1.2,0.9,1C66.5,32.3,65.8,31.4,65.1,31.9z
		"/>
	<path fill-rule="evenodd" clip-rule="evenodd" fill="#404045" d="M63.2,32.6c0,0.6,0.3,0.9,0.9,0.9C64.6,32.6,63.9,32,63.2,32.6z"
		/>
	<path fill-rule="evenodd" clip-rule="evenodd" fill="#404045" d="M51.9,43.9c0.7-0.2,0.4-1.5-0.1-1.7C51.2,42.5,51,43.7,51.9,43.9z
		"/>
	<path fill-rule="evenodd" clip-rule="evenodd" fill="#404045" d="M53.7,44.5c0.2-0.5,0.2-1.6-0.4-1.7c-0.3,0.4-0.7,0.7-0.6,1.4
		C52.8,44.5,53.2,44.6,53.7,44.5z"/>
	<path fill-rule="evenodd" clip-rule="evenodd" fill="#404045" d="M58.2,44.9c1.7-0.3-0.6-2.8-0.6-0.9
		C57.6,44.2,57.7,44.7,58.2,44.9z"/>
	<path fill-rule="evenodd" clip-rule="evenodd" fill="#404045" d="M55.4,44.5c0.1-0.5-0.4-0.6-0.3-1.1c-0.7-0.1-0.8,0.4-1,0.8
		C54.4,44.4,54.9,44.9,55.4,44.5z"/>
	<path fill-rule="evenodd" clip-rule="evenodd" fill="#404045" d="M56.5,45c0.5-0.1,0.7-0.4,0.8-0.6C57.6,42.4,54.7,44.2,56.5,45z"
		/>
	<path fill-rule="evenodd" clip-rule="evenodd" fill="#404045" d="M52.5,45.5c-0.4-0.3-1.3-1-1.7-0.3C50.8,46.2,52.4,46.5,52.5,45.5
		z"/>
	<path fill-rule="evenodd" clip-rule="evenodd" fill="#404045" d="M70.3,45.6c-0.3-0.3-0.8,0-1.1,0.1c0,0.3,0,0.7,0.1,0.9
		C70,46.7,70.3,46.3,70.3,45.6z"/>
	<path fill-rule="evenodd" clip-rule="evenodd" fill="#404045" d="M68.9,47.6c0.2-1.4-1.3-0.9-1.1,0.1
		C68.2,47.9,68.6,47.8,68.9,47.6z"/>
	<path fill-rule="evenodd" clip-rule="evenodd" fill="#404045" d="M67.1,48.1c-0.2,0-0.1-0.3-0.3-0.4C66,47.6,65.8,48.3,66,49
		C66.8,49,67,48.6,67.1,48.1z"/>
	<path fill-rule="evenodd" clip-rule="evenodd" fill="#404045" d="M64.7,48.7c-0.7,0-0.8,1-0.5,1.7C65.3,50.7,65.6,48.9,64.7,48.7z"
		/>
	<path fill-rule="evenodd" clip-rule="evenodd" fill="#404045" d="M63.1,50.2C62,50,62.2,51,62.2,51.9C63.3,52.5,63.5,51,63.1,50.2z
		"/>
	<path fill-rule="evenodd" clip-rule="evenodd" fill="#404045" d="M95.4,62.4c0.4-0.2,0.6-0.8,0.4-1.3c-0.7-0.1-1,0.3-1,0.9
		C95,62.2,95.1,62.4,95.4,62.4z"/>
	<path fill-rule="evenodd" clip-rule="evenodd" fill="#404045" d="M26.9,65.1c0.5,0.2,0.7,0,1-0.3c-0.2-0.6-0.2-1.1-0.3-1.7
		c-0.3-0.1-0.6-0.3-0.9,0C27,63.8,26.7,64.6,26.9,65.1z"/>
	<path fill-rule="evenodd" clip-rule="evenodd" fill="#404045" d="M94.2,66.7c0.2-0.2,0.1-0.7,0.1-1c0.2,0,0.3,0.1,0.5,0.1
		c0.1-0.4,0.5-0.4,0.4-1c-0.6-0.3-1.2-0.1-1,0.8c-0.5,0-0.8,0.3-0.8,0.8C93.5,66.6,93.7,66.8,94.2,66.7z"/>
	<path fill-rule="evenodd" clip-rule="evenodd" fill="#404045" d="M25.8,67.6C27.7,66.6,24.5,66.2,25.8,67.6L25.8,67.6z"/>
	<path fill-rule="evenodd" clip-rule="evenodd" fill="#404045" d="M27.7,68.4c-1-0.2-1,0.9-0.5,1.3c0.7-0.1,0.7-0.8,0.9-1.3
		c0.3-0.1,0.3,0.2,0.6,0.1c0.2-0.3,0.2-1.1-0.1-1.3C27.8,67.1,27.7,67.7,27.7,68.4z"/>
	<path fill-rule="evenodd" clip-rule="evenodd" fill="#404045" d="M30.7,67.5c-0.7-0.4-1.3,0.5-1,1.1C30.3,68.6,30.7,68.2,30.7,67.5
		z"/>
	<path fill-rule="evenodd" clip-rule="evenodd" fill="#404045" d="M92.5,68.5c0.3-0.2,0.6-0.4,0.5-1c-0.5-0.3-1.1,0-1.1,0.5
		C92.1,68.2,92.2,68.5,92.5,68.5z"/>
	<path fill-rule="evenodd" clip-rule="evenodd" fill="#404045" d="M24.2,68.4c0.5,0.1,0.6-0.2,0.5-0.6C24.3,67.8,24.2,68,24.2,68.4z
		"/>
	<path fill-rule="evenodd" clip-rule="evenodd" fill="#404045" d="M25.8,68.4c-0.2,0-0.4,0-0.6,0c-0.3,0.3-0.1,0.7,0,1
		C25.8,69.5,25.9,69,25.8,68.4z"/>
	<path fill-rule="evenodd" clip-rule="evenodd" fill="#404045" d="M29.6,70.4c0-0.2,0.3-0.1,0.5-0.1c0.1-0.2,0.1-0.4,0.1-0.8
		c0.3,0.1,0.4,0.4,0.9,0.4c0.4-0.3,0.2-0.7,0.1-1.1c-1.1-0.1-1.3,0.6-2.2,0.8C29.1,70,29.3,70.3,29.6,70.4z"/>
	<path fill-rule="evenodd" clip-rule="evenodd" fill="#404045" d="M32.9,71.3c0.1-0.4-0.1-0.6-0.1-0.9c-0.4,0-0.6,0.2-0.9,0.3
		c0,0.2,0,0.4,0,0.6C32.1,71.5,32.8,71.5,32.9,71.3z"/>
	<path fill-rule="evenodd" clip-rule="evenodd" fill="#404045" d="M36,73c0-0.5-0.6-0.5-1-0.5c-0.1,0.1-0.1,0.4-0.1,0.8
		C35.1,73.4,36.1,73.5,36,73z"/>
	<path fill-rule="evenodd" clip-rule="evenodd" fill="#404045" d="M38,74.2c0.3-0.3,0.1-0.8,0-1.1c-0.5-0.1-0.6,0.1-0.9,0.3
		c-0.1,0.5,0.1,0.6,0.3,0.9C37.6,74.2,37.8,74.2,38,74.2z"/>
	<path fill-rule="evenodd" clip-rule="evenodd" fill="#404045" d="M76.5,76.4c0.2-1.4-1.6-0.8-0.9,0.3
		C75.9,76.6,76.3,76.5,76.5,76.4z"/>
	<path fill-rule="evenodd" clip-rule="evenodd" fill="#404045" d="M80.7,76.8c0.5-0.1,0.8-0.3,0.9-0.8
		C81.3,74.9,79.9,76.1,80.7,76.8z"/>
	<path fill-rule="evenodd" clip-rule="evenodd" fill="#404045" d="M48.2,76.8c-0.3-0.7-1.2-0.9-1.3,0.1c0.3,0.1,0.4,0.5,0.9,0.5
		C47.9,77.2,48.1,77,48.2,76.8z"/>
	<path fill-rule="evenodd" clip-rule="evenodd" fill="#404045" d="M71.3,77.8c0.1-0.5-0.3-0.5-0.4-0.9c-0.6-0.1-0.8,0.2-0.8,0.8
		C70.4,77.8,71,78.1,71.3,77.8z"/>
	<path fill-rule="evenodd" clip-rule="evenodd" fill="#404045" d="M51.8,78.4c0.5-0.1,0.8-0.4,0.8-1C51.9,76.6,51,77.9,51.8,78.4z"
		/>
	<path fill-rule="evenodd" clip-rule="evenodd" fill="#404045" d="M75.4,78.5c0.3-0.1,0.4-0.4,0.4-0.9
		C75.1,76.7,74.1,78.6,75.4,78.5z"/>
	<path fill-rule="evenodd" clip-rule="evenodd" fill="#404045" d="M47.4,78.2c-0.2-0.7-1.3-0.4-1,0.5C46.6,78.8,47.4,78.6,47.4,78.2
		z"/>
	<path fill-rule="evenodd" clip-rule="evenodd" fill="#404045" d="M47.9,79.3c0.4,0,0.8-0.1,0.8-0.5C48.6,77.7,47.1,78.7,47.9,79.3z
		"/>
	<path fill-rule="evenodd" clip-rule="evenodd" fill="#404045" d="M55.3,79.9c0.6,0,0.8-0.8,0.5-1.3c-0.2,0-0.4,0-0.6,0
		C54.9,79,55,79.8,55.3,79.9z"/>
	<path fill-rule="evenodd" clip-rule="evenodd" fill="#404045" d="M60.3,79.2c-0.1-0.6-1.6-0.5-1.3,0.4
		C59.4,79.9,60.3,79.9,60.3,79.2z"/>
	<path fill-rule="evenodd" clip-rule="evenodd" fill="#404045" d="M50.5,79.8c0.1-0.5-0.1-0.6-0.3-0.9c-1-0.2-1.2,0.5-0.8,1
		C49.8,79.9,50.3,80,50.5,79.8z"/>
	<path fill-rule="evenodd" clip-rule="evenodd" fill="#404045" d="M51.9,92.8c0,0.2-0.2,0.2-0.1,0.5c0.2,0.2,0.6,0.2,0.8,0
		C52.5,92.9,52.3,92.7,51.9,92.8z"/>
	<path fill-rule="evenodd" clip-rule="evenodd" fill="#404045" d="M53.1,95.1c-0.2,0.2-0.3,0.4-0.3,0.9
		C53.7,96.2,53.7,95.1,53.1,95.1z"/>
	<path fill-rule="evenodd" clip-rule="evenodd" fill="#404045" d="M98,57c-1.3-0.4-3.4-0.3-4.1-1.9c-0.4-1.1-0.1-2.3-0.4-3.4
		c-0.3-1.5-1.2-2.6-1.8-3.9c-1-2.4-1.6-4.2-3.1-5.9c-0.7-0.8-1.9-1.9-3-2.1C85,40,85.5,41.4,85.2,42c0.2-1.8-0.8-3.5-1.3-5
		c-0.3-0.9-0.4-1.8-0.6-2.2c-0.2-0.3-0.8-0.4-1.1-0.6c-1.1-0.8-2.3-2.5-3.6-3c-1.2-0.6-2.7-0.5-3.7-1.4c-0.2-6-5.2-11.8-11.6-8.4
		c-0.1-2.8,1.1-5.2,2.9-6.5c1.4-0.2,2.8-1.1,2.9-2.2c-0.4-0.8-2,0-2.8,0c-2.3,1.9-4.3,5.1-4.1,8.6c-2.4-0.4-3.8,0.1-5.5,1
		c-2.6,1.4-4,2.3-4.7,5.2c-0.2,0.8-0.7,1.6-0.8,2.4c0,0.8,0.3,1.7,0.4,2.5c-2.3,0.6-3.8,1.9-5.5,3c-1.8-0.1-3.6,0.7-5.2,1.1
		c-0.5,1,0.4,2.4-0.1,3.7c-1.5,0.5-4-0.3-5.5,0.3c-0.6,2-0.1,4.2,0.5,5.8c-2.3,1.6-6.5,1.2-6.7,4.3c-0.1,0.6,0.3,1.2,0.4,1.8
		c0.1,0.6,0,1.3,0.3,1.9c0.3,0.6,0.8,0.8,0.8,1.4c0,1.3-2.4,2.2-3.4,2.7c-1.4,0.5-2.9,0.8-4.1,1.4c-0.6,2.2-2.5,3.1-3.8,4.6
		c-0.1,1,0.7,1.3,1,1.9c-0.1,1-1.2,1.8-1.3,2.9c-0.1,1.4,1.5,3.2,2.2,4.4c3.3,5.9,10.5,22.6,11.1,24c0.5,0,8.4,4.1,9.1,4.4
		c1.4,0.6,2.4,1.3,4.3,1.1c0.4,0.2,1.1,0.3,1.7,0.4c1.6,0.2,3.3,0.8,5,1c0.9,0.1,1.9-0.1,2.9,0c0.8,0.1,1.5,0.4,2.3,0.5
		c1.9,0.2,4.8,0.3,6.7,0.1c2.9-0.2,9.3-0.8,9.8-1c1.4-0.5,9.2-1.3,14.7-7.7c1.4-4.1,2.5-8.5,4.3-12.2c0.6-3.8,2.1-6.7,3.4-9.7
		c1-3.2,2.2-7,3.6-9.5c0.7-1.3,1.3-2.3,1.7-3.4C99.6,61.2,99.1,58.8,98,57z M90.9,59.5c0.9-0.2,1.1,0.8,0.6,1.3
		c-0.4,0-0.4-0.3-0.8-0.4C90.7,60,90.8,59.8,90.9,59.5z M91,62.5c-0.6,0.1-0.7-0.3-1-0.5C90,60.6,91.8,61.7,91,62.5z M89.2,62.9
		c1.5-0.1,1.3,1.3,0.8,2.2C89.4,64.7,88.8,63.7,89.2,62.9z M89,66.7c-0.3-0.5-0.5-1.7-0.5-2.2C88.9,65,89.3,66,89,66.7z M85.8,45.6
		c-0.2-0.3-0.8-0.2-1.1-0.4c0.1-0.5,0.2-1,0.3-1.5c0.5-0.1,0.4,0.4,0.4,0.8c1.6,0.8,2.3,3.2,2.5,5.3c0.7,7.6-2.5,15.1-7.2,17.3
		c1-2.2,3.1-3.4,3.7-6c2.4-1.7,1.7-6.7,3.2-9.4C86.8,49.7,86.6,47.8,85.8,45.6z M87.2,67.9c-0.2-0.7-0.3-2.2,0.4-2.4
		C88.2,65.8,88.1,67.9,87.2,67.9z M85.5,69.7c-0.2-0.8-0.1-2.3,0.4-2.8c0.2,0,0.2,0.1,0.4,0.1C86.6,67.9,86.4,69.4,85.5,69.7z
		 M84,69.8c0.1-0.8-0.1-1.8,0.5-2.2C85.2,68.1,84.8,69.6,84,69.8z M81.7,68.9c0.3-0.2,0.6-0.4,0.9-0.6c0.4,0.7,0,2.5-1.1,2.4
		C81.6,70.1,81.8,69.6,81.7,68.9z M78.8,49.6c0.4-0.3,0.9-0.5,1.7-0.5C80.5,50,79.3,49.3,78.8,49.6z M80.3,54.7
		c-0.4-0.1-0.2,0.3-0.6,0.3c-0.2-0.4-0.1-1.4,0-1.8H80C80.5,53.2,80.4,54.3,80.3,54.7z M79.1,61.8c0.8-0.3,1.8,3.3,0.8,3.8
		C79.8,64.8,78.2,62.1,79.1,61.8z M79.8,66.5c0.4,0,0.1,0.8,0.5,0.8c-0.6,0.7-1.3,1.4-2.2,1.9C77.9,68,80.2,67.8,79.8,66.5z
		 M80.7,69.4c0.7,0.9-0.4,2.1-1.7,1.9C79.5,70.5,80.1,69.9,80.7,69.4z M82,62.8c-0.7-0.8-0.9-2.1-1.1-3.3
		C81.4,60.4,82.1,61.2,82,62.8z M81.7,52.1c-0.1,0.5-0.2,0.9-0.6,1C80.7,52.7,81.2,51.7,81.7,52.1z M82.1,45.4
		c0-0.3,0.3-0.3,0.6-0.3C82.8,45.6,82.3,45.6,82.1,45.4z M82.9,49.7c0.6,0.3-0.1,1.3-0.5,1.4C82.3,50.4,82.7,50.2,82.9,49.7z
		 M84,47.9c0.2,0.3,0.1,1.3-0.4,1.3C83.5,48.6,83.9,48.3,84,47.9z M83.4,60.5c-0.5-0.1-0.6-1.1-0.4-1.5
		C83.4,59.2,83.4,59.9,83.4,60.5z M83,41.5c-0.1,0.5-0.8,0.8-1.1,0.5C82,41.5,82.5,41.5,83,41.5z M83.1,43.7
		c-0.5,0.8-1.7,0.9-2.8,1.1C81,44.2,81.9,43.8,83.1,43.7z M81.3,47.8c-0.8,0.4-1.9,0.6-2.9,0.9C78.2,47.7,80.6,47.4,81.3,47.8z
		 M78.6,54.2c0.4,0.4,0.4,1.6-0.1,1.8C78.2,55.2,78.6,55,78.6,54.2z M78.8,65.6c-0.4-0.5-0.7-1.1-0.9-1.8
		C78.8,63.9,78.8,64.7,78.8,65.6z M71.7,62.3c-0.2-0.6,0.2-1.4,0.8-1.7C72.9,61,72.6,62.5,71.7,62.3z M72.6,69.7
		c-0.4,0.1-0.4-0.3-0.4-0.6C72.4,69.1,72.6,69.3,72.6,69.7z M71.7,53.7c0.4-0.2,0.6-0.3,1-0.1c0.1,1.3,0.8,2.1,0.6,3.7
		c-0.4,0.1-0.8,0.1-1.1,0.3c-0.2-0.9-0.4-1.9,0.3-2.3C72.3,54.6,71.5,54.6,71.7,53.7z M72.7,66.4c0.9,0.3,1.3,1.7,1.1,2.5
		C72.6,68.7,72.4,67.4,72.7,66.4z M73.5,60.9c-0.1-0.7,0-1.3,0.5-1.5C74.5,59.7,74,60.9,73.5,60.9z M74,56.7
		c-0.1-1.5,0.1-2.1,0.1-3.2C74.7,53.9,75.9,56.8,74,56.7z M75.5,58.6c0.5,0.2,0.1,1.2-0.5,1v-0.8C75.1,58.7,75.5,58.8,75.5,58.6z
		 M75,67.1c0.3,0.1,0.4,0.4,0.4,0.9c-0.2,0.1-0.2,0.4-0.6,0.3C74.3,67.8,74.7,67.5,75,67.1z M75.1,65c0.6,0.6,0.9,1.4,1.1,2.3
		C75.7,66.7,75.3,65.4,75.1,65z M75.6,55.7c-0.1-0.6-0.5-1.5-0.3-2h0.4c-0.2,0.4-0.1,1,0.3,1.1c0.6-0.1,0.6-0.8,1.1-1
		C77.5,54.8,76.5,55.5,75.6,55.7z M76,42c0.6,0.1,1.3,0.2,1.4,0.9C76.8,42.7,76.1,42.6,76,42z M77,43.9c-0.3-0.3-1.2-0.1-1.1-0.8
		C76.4,43.2,76.9,43.4,77,43.9z M76.4,40.8c0.7,0.1,1.1,0.4,1.4,0.9C77.2,41.5,76.4,41.6,76.4,40.8z M76.6,56.4
		c1.2-1.6,1.2,1.7,0,1.7V56.4z M78,66.6c-0.3,0.2-0.5,0.5-1,0.4c-0.3-1-0.2-1.7-0.3-3C77.6,64.4,77.9,65.5,78,66.6z M77.8,40.4
		c-0.8-0.1-1.4-0.3-1.5-1c0.4-0.3,1.1,0,1.4,0.1C77.6,40,77.9,40,77.8,40.4z M77.3,38.4c-0.1,0.3-0.6,0.1-0.9,0.1V38
		C76.9,38,77,38.3,77.3,38.4z M75.8,34.7h0.5c0,0.1,0,0.2,0.1,0.3C76.3,35.5,75.7,35.2,75.8,34.7z M77.2,44.6
		c0.1,0.5-0.1,0.9-0.3,1.1c-0.8,0-1.1-0.5-1.5-0.9C75.3,43.5,76.5,44.6,77.2,44.6z M75,45.5c0.7,0.1,0.8,0.6,1.3,0.9
		c0,0.6-0.4,0.7-0.5,1.3c-0.6-0.1-0.7-0.7-1-1c-0.7,0-0.2,0.8-0.1,1.1c-0.3,0-0.3,0.3-0.5,0.4c0,0.6,0.6,0.6,0.5,1.3
		c-0.5,0.1-0.5-0.3-0.9-0.4c-0.5,0.6,0.4,0.8,0.3,1.5c-0.3,0.2-0.5,0.5-1,0.4c-0.3,0-0.2,0.3-0.5,0.4c-1.1,2.1-3.4,2.9-5,4.4
		c0,0.2,0.2,0.3,0.5,0.3c0.5-0.3,0.6-0.9,1.3-1c-0.5,1.5-3.1,2.2-4.3,3.4c-0.4,0.1-0.4-0.2-0.6-0.3c-1.8,1-3.2,2.4-5.5,2.9
		c-0.1-0.9,0.8-0.7,0.8-1.5c-1.3,0.2-1.5,2.7-3.7,2.4c0.1-0.8,0.7-1,0.9-1.8c-0.9,0-1.3,1.7-1.9,2.4c-0.8-0.1-1.3,0.4-1.9,0.1
		c0-0.6,0.6-0.7,0.8-1.3c-1.5-0.3-1.1,2.5-2.9,2.3c-0.1-0.9,1.6-0.8,0.9-1.9c-1.5,1.2-2.4,2.8-5.3,2.5c-0.3-0.3,0.3-0.5,0.1-1
		c3-1.8,6.8-2.8,10-4.3c2.2,0.6,3-1.3,4.8-1.5c2.4-1.5,5.3-3,7.7-4.8c0-0.3,0.2-0.5,0.1-0.9C71.9,50.5,73.4,47.9,75,45.5z
		 M51.1,68.1c-0.4-0.1-0.3,0.4-0.8,0.3c-0.1-0.6,0.3-0.8,0.4-1.3C51.3,67,51.1,67.7,51.1,68.1z M58,69.1c1.1-1.8,3.9-1.1,5.2-2.7
		c-0.2-0.4-0.4,0.1-0.8,0c0.3-0.9-0.2-0.8-0.6-1.1c0.3-1.5,0.6-3,1.4-3.9c-0.1,0.9-1.5,3-0.5,4.3c0.8,0.1,2-0.1,2.3-0.1
		c-0.3,0.5-1,0.6-1.5,0.9c0,0.3,0,0.6,0.3,0.6c-1.9,1.4-5.4,1.3-5.8,4.3c0,0.3,0.3,0.3,0.5,0.4c0.5,0,0.5-0.5,0.6-0.8
		c1.2,1,3,0.3,4.2-0.1c0.1-0.5-0.3-0.5-0.3-0.9c0.2,0,0.4,0,0.4-0.1c0.6,0,0.2,1.1,0.9,1.1c0.4,0,0.8-0.1,0.8-0.5
		c0.1-0.8-0.4-0.2-0.5-0.6c0-0.4,0.5-0.4,0.9-0.4c0,1.1,0.6,1.4,0.9,2.2c-0.4,0.1-0.2-0.4-0.5-0.4c-0.7,0.5-1.3,1.1-2.3,1.3
		c-0.3-0.1-0.6-0.3-0.9-0.5c-2.1-0.3-3.9,0.9-6,0.4c-2.7,0.6-5.3,0.4-8.3,0.6c0-0.3-0.5-0.2-0.5-0.5c0.3-0.5,1-0.6,1.1-1.3
		C52.2,71.3,54.7,69.5,58,69.1z M55.1,67.5c-0.4,0-0.5-0.3-0.8-0.4c0.2-1.2,0.8-2,1.4-2.8C55.9,65.3,54.8,66.1,55.1,67.5z
		 M57.5,63.4c-0.3,1.2,0.1,3-1,3.7C55.4,65.8,56.5,64.2,57.5,63.4z M59.9,64.6c-0.1,0.6,0.2,1.8-0.8,1.7c-0.2-1.4,0.6-2.8,1.1-3.8
		c0.1,0.1,0.2,0.1,0.3,0.3C60.4,63.2,60.1,63.8,59.9,64.6z M62,61.5c-0.4,1.2-0.3,3.9-1.7,4.4C60.4,63.9,61.1,62.6,62,61.5z
		 M57.7,65.8c0.1-1.7,0.4-3.2,1.8-3.6C58.9,63.4,59.1,65.5,57.7,65.8z M66.4,63.9c-0.8,0.1-1.1,0.6-1.9,0.6
		c-0.3-1.4,0.5-2.7,1.3-3.3C65.8,62.1,65,63.6,66.4,63.9z M68.6,63.3c0.5-0.1,0.1,0.7,0.3,1c-1.4,0.7-2.3,1.8-3.9,2.3
		C66.3,65.6,67.6,64.6,68.6,63.3z M67.4,61.3c-0.2,0.4-0.4,0.9-0.6,1.3C65.9,62.4,66.9,60.8,67.4,61.3z M63.3,64.8
		c-0.8-0.9,0.3-3.1,1.3-3.4C63.9,62.3,63.8,63.8,63.3,64.8z M66.5,69.1c0.4-0.2,0.3,0.9,0.1,0.9C66.2,70.1,66.1,69.2,66.5,69.1z
		 M67.6,70.9c0.5-0.7-0.9-2.2,0.5-2.3c-0.7,1.4,1.4,2.3,1,0.3c0.1,0.7,0.5,1,0.8,1.8c-1-0.2-1.8,0.4-2.3,1c-0.5-0.1-0.9-0.4-1.1-0.8
		C66.9,70.4,67,71,67.6,70.9z M69.7,56.3c0.5,0,0.4,0.7,0.1,0.9C69.1,57.2,69.6,56.7,69.7,56.3z M69.8,63.6v-1
		C71,61.2,71.2,63.6,69.8,63.6z M71.1,55.3c-0.3,0.1-0.3-0.3-0.5-0.3c0-0.3,0.2-0.5,0.5-0.5V55.3z M71.4,56.1
		c0.1,0.3,0.2,0.8,0.1,1.3c-0.1,0.2-0.6,0-0.6,0.3c-0.8-0.4,0-1,0-1.7C71.2,55.9,71.2,56.1,71.4,56.1z M71.1,71.1
		c-0.5-0.6-0.4-2-0.8-2.8C71.3,68.6,72.2,70.4,71.1,71.1z M46.9,66.7c-0.1-0.1,0.2-0.9,0.8-0.8C47.8,66.6,47.1,66.4,46.9,66.7z
		 M45.4,64.4c-0.6,0-0.7-0.6-1.5-0.4c0-0.5,0.3-0.8,0.5-1c0.5,0.5,1,0.1,1.7,0.4C46,64,45.7,64.2,45.4,64.4z M45.3,71.6
		c-0.1-0.4,0.1-0.5,0.3-0.8C46.1,70.8,45.7,71.7,45.3,71.6z M41.2,63.7c-0.5-1.3,0.5-2.3,1.1-2.9C43.1,61.9,42,63.3,41.2,63.7z
		 M41.5,71.4c-0.1-0.5,0.1-0.9,0.3-1.1C42.2,70.3,41.9,71.5,41.5,71.4z M39.6,63.1c-0.2-1.1,0.7-2.8,1.7-2.8
		C41,61.6,40.5,62.5,39.6,63.1z M40.8,70c0,0.5-0.1,0.7-0.3,1c-0.6,0-0.5-0.6-0.5-1.1C40.4,69.9,40.7,69.9,40.8,70z M37.3,70.4
		c-0.6-0.1-0.5-1.7-0.1-2c0.2,0,0.3,0.2,0.5,0.1C37.6,69.3,37.7,70.1,37.3,70.4z M35.9,61.4c0.3-1.2,1.2-1.8,1.6-2.9h0.4
		C37.6,59.8,36.8,60.7,35.9,61.4z M36.5,68.1c-0.3-0.1-0.1-0.8,0.3-0.6C36.9,67.9,36.6,67.9,36.5,68.1z M37.5,44.8
		c0.5-0.1,0.2,0.7,0.3,1C37.4,45.7,37.6,45.1,37.5,44.8z M38.3,49.3c-0.4,0.7-0.5,1.7-1.4,1.9C37.1,50.4,37.5,49.7,38.3,49.3z
		 M37.4,52.8v-0.5h0.4C37.8,52.6,37.7,52.8,37.4,52.8z M37.3,54.8c-0.8-0.1-0.1-0.7-0.1-1.1C37.4,53.8,37.2,54.4,37.3,54.8z
		 M35.7,51.1c0.1-0.7,0.7-2,1.7-2.3C36.9,49.6,36.6,50.7,35.7,51.1z M36.1,52.8c0-0.4,0.1-0.8,0.6-0.8
		C36.8,52.5,36.6,52.8,36.1,52.8z M36,53.5c0.4,0.2,0.3,0.8,0,1C35.5,54.5,35.8,53.7,36,53.5z M37,62.2c0.1-1.1,0.7-1.7,1.3-2.4
		C38.7,60.4,37.7,61.8,37,62.2z M38,51.4c0-0.8,0.6-0.9,0.8-1.5C39.4,50.2,38.5,51.2,38,51.4z M38.5,45c0.6,0.3,0.2,1.4,0.4,1.8
		C38.2,46.7,38.6,45.3,38.5,45z M38.7,52.3c0.2,0,0.2,0.1,0.4,0.1c0,0.4-0.2,0.6-0.5,0.6C38.3,52.7,38.5,52.5,38.7,52.3z M38.8,70
		c0.3,0.3,0.4,0.7,0.4,1.3C38.7,71.3,38.5,70.4,38.8,70z M39,59c0.4-0.1,0.4,0.2,0.8,0.1c0,0.3-0.3,0.2-0.3,0.5
		C39.2,59.6,39,59.4,39,59z M40.2,50.2c0.1,0.8-0.4,1.7-1.1,1.3C39.3,50.9,39.4,50.3,40.2,50.2z M39.8,45.6c0.6,0.1,0.5,1.6-0.1,1.5
		C39.4,46.7,39.7,46,39.8,45.6z M39.7,54.8c0-0.4,0.2-0.6,0.3-0.9C40.5,53.9,40,54.8,39.7,54.8z M41.7,54.3c0.1-0.4,0.3-0.8,0.5-1.1
		C42.5,53.5,42.2,54.3,41.7,54.3z M42.1,63.6c0.5-0.1,0.5,0.6,0,0.5C41.9,63.8,42.1,63.9,42.1,63.6z M42.7,70
		c0.7,0.1,0.3,1.5,0.1,1.8C41.9,71.7,42.6,70.5,42.7,70z M43,63.8c-0.2-1.9,0.9-2.5,1.7-3.4c0.2,0,0.2,0.1,0.3,0.3
		C44,61.5,44.2,63.3,43,63.8z M44.4,68c-0.4,0.3,0,1.3-0.6,1.4C43.8,68.7,43.5,67.8,44.4,68z M45.8,59.6c-0.4,0.1-0.4-0.2-0.6-0.3
		c-0.6,0.5-1.2,1-1.7,1.7c-0.3-0.2-0.1-1,0-1.3c0.3-0.2,0.7-0.2,0.8-0.5c0-0.4-0.6-0.2-0.8-0.4c0.3-1.4,2.6-1.7,3.8-1
		C46.9,58.6,46.2,58.9,45.8,59.6z M44.3,54.2c0.3,0.3,0.1,1.1-0.1,1.3C43.4,55.4,44.1,54.4,44.3,54.2z M66.5,36.9
		c0.4,0,0.5,0.2,0.8,0.4c-0.8,1-2.8,1.3-4.3,1.1C63.9,37.6,65.8,37.9,66.5,36.9z M63.1,35.7c0.3,0.1,0.7,0.2,0.6,0.6
		C63.1,36.4,62.8,36.2,63.1,35.7z M66,42.9c0.2-0.4,0.1-1.1,0.3-1.5C66.7,41.4,66.7,43.1,66,42.9z M64.8,42.1
		c-0.3-0.5-0.4-1.4,0.5-1.3C65.6,41.3,65.4,42.1,64.8,42.1z M64.5,43.7c0.2-0.3,0.1-0.8,0.8-0.6C65.3,43.6,64.8,43.6,64.5,43.7z
		 M63.4,42.5c0.5,0.4,0.5,1.8-0.3,1.9C63.5,43.8,63.3,43.1,63.4,42.5z M62.7,42.6c-0.7-0.2-0.7,0.4-0.8,0.9c-0.4-0.5-0.2-2.3,1-2
		C63,42,62.8,42.3,62.7,42.6z M60.8,36.2c-0.9,0.3-0.7-1.1-0.4-1.3C60.8,35.1,60.8,35.7,60.8,36.2z M60.6,34.1
		c0-0.8,0.8-1.5,1.4-1.4c-0.3,0.4-0.6,0.8-0.8,1.4H60.6z M59.5,35.1c-0.4-0.8,0.3-1.5,0.5-2.2C60.6,33.4,59.7,34.5,59.5,35.1z
		 M60.4,37.3c0.2,0.4,0.5,0.7,1.1,0.8c-0.3,0.6-1-0.2-1.5-0.1C59.9,37.5,60.3,37.6,60.4,37.3z M61,41.7c0.6,0.6-0.3,1.5-0.6,1.9
		C60.2,43.1,60.6,42.1,61,41.7z M62,44.1c0.6,0.1-0.1,0.7-0.1,1c-0.5-0.1-0.5,0.2-1,0.1C60.7,44,62.1,45,62,44.1z M61.8,49.3
		c1.7-0.9,3.5-1.6,5.1-2.3c1-0.8,2-1.7,3-2.4c0.3,0.1,0.1,0.7,0.5,0.8c0.8,0.1,0.9-0.6,1.1-1c0.6-0.1,0.9,0.1,1.3,0.3
		c-2.7,4.2-6.7,7-11.4,9.1c0.1-0.9,0.7-2.2-0.1-2.7c-0.7,0.7-1,2.4-1,3.4c-0.8-0.3-0.2-1.9,0-2.7c-1.2-0.3-1.5,1.9-1.4,2.9
		c-0.3,0.2-1.1,0.2-1.4,0c0.1-1.1,1.5-1.9,0.9-2.8c-1.4,0.3-1.2,2.1-1.8,3.2c-0.6,0.2-0.8,0-1.3-0.1c0-1,0.6-1.3,0.8-2.2
		c-0.4-0.5-1,0-1.5-0.4C53,53,53.9,55.8,52,55.9c0.1-1.6,0.9-2.4,1.4-3.6c-1.8-0.5-2.5,1.1-3.2,2.2c-0.1,0.8,0.1,1.9-0.6,2
		c-0.9-1.9,1.1-3,1.7-4.2c-1.6,0.3-2.9,2-2.7,4.6c-0.5,0.1-0.6-0.1-0.9-0.3c0.2-1.7,0.9-2.9,2-3.6c0.1-0.4-0.1-0.5-0.3-0.8
		c-1.4,0.1-1,2.5-2.5,2c0-0.9,0.8-1,1.1-1.5c0.1-0.3-0.1-0.3-0.1-0.5c-0.9,0-1.1,0.5-1.5,0.9c-0.3-0.4-0.7-0.8-0.8-1.4
		c2.9-0.9,5.2,0.5,8.8-0.1c0.3-0.1,0.8-0.2,1.1-0.3c1.6-0.5,3.7-0.8,5-1.3C61,50,61.3,49.6,61.8,49.3z M73.7,42.6
		c-0.9,0-1.5,0-2-0.1c0-1,0.8-1.3,2-1.1C73.5,41.9,73.4,42.1,73.7,42.6z M73.2,43.5c0,0.7-1.4,0.1-1.7-0.1
		C72.2,43.2,72.6,43.5,73.2,43.5z M67.9,36.8v-0.5c1.8,0.2,2.4-1.2,3.7-1.8C70.9,35.6,69.3,37.2,67.9,36.8z M68.8,39.7
		c0.3,0.5,0,0.9,0,1.3C68.2,40.8,68.9,40.2,68.8,39.7z M67.4,40.6c-0.1-0.4,0.1-0.6,0.5-0.5C67.9,40.5,67.8,40.6,67.4,40.6z
		 M53.8,55.6c0.2-0.8,0.4-1.6,0.9-2.2C54.9,54.1,54.6,55.4,53.8,55.6z M51.1,56.2c-0.7-0.6,0.2-1.6,0.4-2.2
		C51.7,54.6,51.3,55.7,51.1,56.2z M46.8,56.8c-0.8-0.1-0.5-1.1,0-1.3C47.4,55.7,46.9,56.6,46.8,56.8z M46.3,53.5
		c-0.2,0.6-0.4,1.2-1,1.4C45,54.3,45.6,53.6,46.3,53.5z M72.7,32.1c-0.1-0.7,1-1.4,1-2.4C74.1,30.2,73.9,32.3,72.7,32.1z M62.2,22.1
		c-0.1,0.7,0.2,1,0.3,1.5c-0.7,0.1-0.6-0.5-0.8-0.9H61c-0.3,3.9,5.6,2,6.6,0.1c0.1-0.6-0.1-0.9-0.5-1c-0.4,0-0.5,0.2-0.5,0.6
		c-0.4,0-0.3-0.6-0.8-0.5c-0.5,0-0.7,0.2-0.6,0.6c-1-0.4-1.3,0.8-1.9,1.1c-0.1-0.3-0.2-0.6-0.1-1c1.7-2.4,7-1.8,8.3,0.6
		c0,0.5-0.7,0.3-0.6,0.8c0,0.2,0.1,0.2,0.1,0.4c0.6,0.2,0.6-0.2,0.9-0.4c1,1,2.3,3.4,1.7,4.8c-0.5-0.2-0.1-1.1-0.9-1
		c0.1-0.3,0.5-0.4,0.6-0.8c-0.1-0.4-0.6-0.4-1-0.5c-0.4,0.2-0.3,1.2,0.3,1.1c-0.5,0.6-0.2,1.4,0.4,1.7c-0.6,0.8-0.7,1.6-1.3,2.3
		c0.9,0.5,1.5,2.3,0.1,2.7c-0.1-0.7,0.2-0.9,0.1-1.5c-0.4-0.2-1-0.1-1.4-0.4c-0.4,0.1-0.6,0.5-0.6,1c-0.5-0.1-0.5,0.2-1,0.1
		c0.1-0.3,0.3-0.6,0-0.9c-0.6-0.1-0.9,0.2-0.9,0.8c0,0.4,0.5,0.2,0.9,0.3c0,0.4,0.1,0.9-0.1,1.1c-1,0.2-1.3-0.3-1.8-0.5
		c-0.1,0-0.1,0.1-0.3,0.1c-0.3,0.1-0.1,0.7-0.1,1c-0.9-0.1-1-0.1-1.5,0.3c-0.1-0.2-0.4-0.3-0.3-0.8c0.6,0.2,1.8,0,1.3-1.1
		c-1,0-1.3,0.6-2.2,0.8c-0.1-0.3-0.3-0.4-0.3-0.9c-1.1,0-0.5,1.6-1.5,1.7c-0.4-1.6,1.7-5-1.1-5.1c-0.1,0.9,0.8,0.8,0.6,1.8
		c-0.5,0-0.7-0.4-1-0.6c-1.5,0.1-1,2.2-2.2,2.7c-0.3,0.4,0.3,0.9,0,1.3c-0.9-1.5,0.6-3.8,1.8-4.6c0-0.5-0.1-0.8-0.4-0.9
		c-1.3,0.7-1.5,2.4-2.4,3.4c0-0.9,0.5-1.4,0.6-2.2c-0.1-0.3-0.5,0.2-0.9,0c0.7-1.2,1.5-2.3,1.9-3.8c-0.6-0.3-0.9,1.1-1.7,0.6
		c0.1-0.9,1.2-0.8,1.3-1.8c-1.4,0-2.3,1.7-3.2,2.7c-0.6-2,2.4-2.5,2.8-4.3c0.6,0.1,1-0.1,1.1-0.5c0-0.5-0.3-0.8-0.6-0.9
		c-1.3,0.3-2,1.3-2.9,2c-0.3,0.1-0.2-0.2-0.3-0.4c-1.1,0.4-1.5,1.4-2.2,2.2C54.2,23.8,57.7,22.2,62.2,22.1z M55.8,32.1
		c-0.3-1.1,0.9-1.8,1.3-2.7c0.1,0,0.2,0,0.3,0.1C56.8,30.4,56.2,31.1,55.8,32.1z M56.3,34.1c-0.5-0.2-0.2-1.3,0-1.5
		C56.5,33,56.7,33.8,56.3,34.1z M55.1,29.6c-0.1,0.6-0.6,0.9-0.6,1.5C54.1,30.7,54.4,29.7,55.1,29.6z M53,27.6c-0.1,1,0.4,1.4,1,1.9
		c0,0.6-0.6,0.6-0.8,1c-0.2,1.4,0.7,1.7,0.5,2.8c0.3,0.6,1.5,1,1.1,1.9C52.7,34.3,51.7,30.2,53,27.6z M50.9,37
		c0.1,0.7-0.2,1.2-0.9,1.1C50.1,37.6,50.2,37,50.9,37z M50.4,41.2c0.5,0.4-1.2,1.6-0.4,2.4c0.5,0.1,0.6-0.1,0.9-0.3
		c-0.3-1,0.3-1.5,0.9-1.9c2.5,0.9,6,0.1,8.4,0.5c-0.1,1-1.4,1.3-0.8,2.7c0.1,0.3,0.6-0.2,1,0c0.1,1-1.2,0.9-1.7,0.5
		c-1.4,0.6-3.6,0.6-5.1,0.1c-1.4,2.6,5.1,0.2,6.2,1.7c0.6,0.1,0.2-0.9,1-0.6c-0.3,1.8-3.3,3.4-5.7,2.8c-2.4,0.4-5.9,0.7-7.5-0.5
		c-0.5-0.1-0.7,0.2-1.1,0.3c-0.1-0.4-0.6-0.4-0.6-0.9c0.8-1.3,2.5-0.4,3.8-1c0.2-0.3,0.3-0.5,0.1-0.9c0.5,0,0.8-0.3,0.9-0.6
		c0-0.7-0.8-0.6-0.8-1.4c-0.7-0.2-0.6,0.5-1,0.5C48.5,43,49.4,42,50.4,41.2z M49.5,34.3c0.2,0.5-1.1,1.6-1.8,2
		C47.4,35.3,48.8,34.9,49.5,34.3z M47.8,39.6c0.2,0,0.2,0.1,0.4,0.1c-0.2,0.9-0.7,1.5-1.1,2.2c-0.4,0.1-0.3-0.3-0.6-0.4
		C46.6,40.5,47.4,40.2,47.8,39.6z M46.2,38.8c-0.1,0.6-0.7,0.8-1,1.1C44.8,39.3,45.7,39,46.2,38.8z M45.1,38.3
		c-0.2,0.4-0.6,1.1-1,0.9C44.4,38.8,44.5,38.3,45.1,38.3z M44.3,37.5c-0.2,0.6-0.4,1-1.1,1c-0.1-0.1-0.1-0.2-0.3-0.3
		C42.8,37.5,43.5,37.5,44.3,37.5z M41.1,41.5c1.9,2.6,5.7,3.1,8.5,4.3c-1,0.4-2.7,0-3.8,0.3c-0.4-0.2-0.3-0.8-0.8-0.9
		c-0.4,0.1-0.4,0.4-0.8,0.5c-1.1,0-1.6-0.6-2.8-0.5c-1.8-1-4-1.6-4.8-3.6C38,41.5,39.5,41.4,41.1,41.5z M33.3,49.2
		c0.8-0.7,2.2-2,3.6-1.4c-0.5,1.2-1.2,2.1-2,3c-0.5,0.1-0.1-0.5-0.4-0.6c-0.4,0-0.5,0.2-0.8,0.4C33.2,50.5,33,50,32.4,50
		C32.5,49.4,32.7,49.2,33.3,49.2z M34.2,66.1c0.2,0.1,0.4,0.3,0.5,0.5c-0.2,0.6-0.2,1.3-1,1.3C33.3,67.2,33.9,66.5,34.2,66.1z
		 M34.6,60c-0.1,0.5-0.4,0.8-0.6,1.1C33.6,60.7,34.2,60.1,34.6,60z M34.3,58.7c0.1-0.5,0.4-0.8,0.5-1.3h0.4
		C35.2,58.2,34.9,58.6,34.3,58.7z M35.5,60.8c-0.1,0.4-0.4,0.6-0.6,0.9C34.6,61.4,35.1,60.8,35.5,60.8z M33.3,51.9
		c-0.5,0.1-0.2-0.5-0.1-0.6C33.5,51.2,33.6,51.8,33.3,51.9z M32.2,50.7c0.5-0.1,0.5,0.6,0.3,0.8C32,51.6,32,50.9,32.2,50.7z
		 M33.2,57c0.2,0.1,0.3,0.2,0.3,0.4c-1.3,1.1-2,2.9-3.4,3.9C30.9,59.6,31.8,58,33.2,57z M32.3,65c-0.6-0.2-0.3,0.4-0.8,0.4
		c-0.1-0.5,0.1-0.7,0.3-1c1.3,0.2,0.7,1.6,0.3,2.3C31.6,66,32.5,65.7,32.3,65z M31.2,62.8c0.6,0.4,0.1,1.5-0.5,1.5
		C30.3,63.7,30.9,63.2,31.2,62.8z M30.2,63.1c0-0.9,0.5-1.2,0.8-1.8C31.4,61.8,30.8,62.9,30.2,63.1z M29.5,58.4
		c-0.8,1.1-2.5,2-4.1,1.9C26.6,59.4,28.2,59.1,29.5,58.4z M29.1,60c0.4,2.1-0.2,3.8,0.8,5.1c1.3,0.3,0.6,2.6,2.2,2.7
		c1.5,1.3,2.7,2.9,4.7,3.7c1.6,1.7,4.5,2.1,6.4,3.6c1.6,0.2,3.1,0.2,4.6,0.4c1.7,0.2,3.4,1.1,5,1.1c0.5,0,1-0.3,1.5-0.4
		c2-0.2,4.2,0.7,6.4,0c1.1,0.3,2.4,0,3.6-0.1c8.7-0.8,16.7-1.6,22.4-5.6c1-0.9,1.8-2,3-2.5c2.4-2.3,3.1-6.4,4.3-9.5
		c1.2,0.2,1.9,0.9,2.7,1.7c-0.3,0.9-0.2,2.2,1.1,1.9c-0.4,0.6-1.1,0.9-1,1.9c-0.3,0.2-0.7,0.1-0.9,0.4c0.4,1.4-0.9,1.8-0.9,3.2
		c-0.2,0.2-0.7,0.1-1.1,0.1c-0.2,0.9-0.8,1.4-1.4,1.9c-0.4-0.5-0.9-0.9-1.4-1.3c-1.1,0-0.5,1.2-0.1,1.5c-0.1,0.6-0.9,0.5-0.5,1.3
		c-0.6,0.2-1.1,0.8-0.8,1.5c-0.3,0.3-0.8,0.3-1,0.6c-0.2-0.2-0.1-0.8-0.4-0.9h-0.9c-0.2,0.5-0.2,1.2-0.5,1.5
		c-0.1,0.4,0.4,0.3,0.4,0.8c-0.2,0.6-0.6,1.2-1.1,0.8c-0.1-0.5,0.5-0.5,0.1-0.9c-0.2-0.4-0.7-0.1-1,0c-0.2,0.7,0.5,0.5,0.4,1.1
		c-0.2,0.3-0.4,0.6-1,0.5c0.1-0.6-0.2-0.8-0.5-1c-0.4,0.1-0.4,0.6-0.4,1.1c0.1,0.3,0.9-0.1,0.8,0.5c-1.6-0.2-2.6,0.6-3.9,1
		c0.5-1-0.6-1.2-1-1.7c-0.5,0.4-1.2,0.5-1.5,1.1c0,0.4,0.4,0.3,0.5,0.5c0.4,0.1,0.5-0.2,0.6-0.4c0.1,0.4,0.6,0.4,0.8,0.8
		c-0.6,0.4-1.1,0.2-2,0.4v-1c-0.2-0.2-0.7-0.1-1.1-0.1c-0.4,0.1-0.4,0.8-0.4,1.4c0.3,0.5,1.1-0.2,1,0.8c-0.8-0.4-2.2-0.2-3.4-0.3
		c0.2-0.7-0.1-1.1-0.9-1.1c-0.4,0.6-0.6,1.4-1.3,1.8c-0.4-0.1,0.1-1.2-0.9-1c-0.5,0.3-0.2,0.9,0,1.3c-0.2,0.1-0.5,0.1-0.5,0.4
		c-0.6-0.2-1.3-0.3-1.3-1.1h-0.8c-0.4,0.5-0.6,1.2-1,1.8c-0.6-0.1-1.2-0.3-1.7-0.5c-0.1-0.6,0.4-0.4,0.4-0.9c0.3,0,0.4,0.2,0.8,0.1
		c0.6-0.2,0.4-1.3-0.4-1.1c-0.3,0-0.3,0.4-0.3,0.8c-1-0.1-1.3,0.4-1.5,1c-0.8,0-1-0.5-1.7-0.3c-0.4-0.6-0.7-1.8-1.7-1.4
		c-0.2,0.8,0.4,0.9,0.4,1.5c-0.2,0.6-1,0.7-1.7,0.9c0-0.4-0.2-0.9-0.9-0.9c-0.6,0.4-0.3,1.5-0.5,2.2c-0.3,0.2-0.9-0.2-1-0.5
		c1.1-0.2,0.1-1.3,0.1-1.9c-0.5-0.1-0.7,0.1-0.9,0.3c-0.1,0.5,0.2,0.6,0.1,1.1c-1-0.3-1.5-1.2-2.8-1.1c0.1-0.6,0.2-1.1-0.1-1.5
		c-0.4,0.1-1,0.1-1.1,0.5c0.1,0.4,0.5,0.5,0.5,1c-0.4,0.1-0.7,0.3-1.3,0.3c-0.1-0.4,0.2-0.4,0.1-0.9c-0.1-0.1-0.3-0.2-0.6-0.1
		c-0.6,0-0.4,0.6-0.6,0.9c-0.9-0.2-1,0.4-1.1,0.9c-1.3-0.7-1.8-2.1-3.6-2.3c-0.3-1.2-1.4-1.6-2-2.4c-0.5,0-0.4,0.6-1,0.5
		c0-0.5,0-0.9-0.3-1.1c-0.5,0-0.9,0.2-1,0.6c0,0.5,0.9,0.1,0.8,0.8c-0.6,0.4-0.5-0.3-1.1-0.3c0.1-0.6,0.2-1.1,0.5-1.5
		c0-0.5-0.4-0.6-0.6-0.9c-0.1,0-0.1,0.1-0.3,0.1c-0.3,0.1,0,0.7-0.1,1c-0.4,0-0.6,0.1-0.8,0.4v0.5c0.1,0.3,0.5,0.4,1,0.4
		c-0.3,0.9,0.5,1.9-0.5,2.4c-0.6-1.2-1.3-3-3-3.4c0-0.6,0.9-0.2,0.9-0.9c0.1-0.3-0.3-0.3-0.3-0.5c-0.9,0.2-1.9,0.2-2.7,0.5
		c0-0.3-0.4-0.4-0.4-0.8c-0.6-0.1-0.5,0.5-1,0.5c-0.1-0.3-0.4-0.3-0.6-0.5c0.4-0.6-0.2-1-0.5-1.3c-0.1-0.5,0.5-0.3,0.5-0.8
		c0.1-0.4-0.2-0.5-0.4-0.6c-0.4-0.1-0.3,0.3-0.6,0.4c0,0.4,0,0.6,0.3,0.8c-0.1,0.5-0.9,0.3-0.8,1c-0.1,0.4,0.3,0.4,0.6,0.4
		c0.1,0.6,0.1,0.9,0.4,1.4c-0.5,0-0.3,0.5-0.9,0.4c0-2.9-1.6-4.1-4.1-4.6c-0.2-0.6,0.2-1.2-0.4-1.5c-0.4,0.3-0.8,0.6-1.5,0.6
		c-0.5-1.1-1.8-1.5-2.9-2c0.4-0.8,0.9-1.4,1.4-2.2c-0.3-1-0.7-1.7-1.3-2.4C25,62.4,26.6,60.7,29.1,60z M91.6,71.3
		c-0.2,0.2-0.7,0.2-0.9,0c0.2-0.4,0.7-0.6,0.4-1.1c0.2-0.1,0.5-0.2,0.8-0.3C91.9,70.5,91.5,70.6,91.6,71.3z M86,77
		c-0.3,0-0.5,0-0.6-0.1c0-0.3,0.4-0.3,0.5-0.5C86.3,76.5,86.1,76.7,86,77z M67.9,81.9c0.1-0.4,0.4-0.7,0.8-0.8
		C69,81.5,68.3,82.2,67.9,81.9z M44.3,78.5c-0.2,0.2-0.7,0.2-0.9,0c-0.1-0.4,0.1-0.5,0.3-0.8C44,77.9,44.2,78.1,44.3,78.5z
		 M24.6,60.6v1.3c-0.6,0.4-1.1,0.9-2,1C23.2,62.2,23.5,61,24.6,60.6z M47.2,103.1c-0.9-0.8-0.1-2.6-1-3.3c0.4-0.8,0.3-2-0.5-2.3
		c-0.1-0.7,0.3-0.9,0.3-1.5c0-0.4-0.7-0.1-0.9-0.4c-0.1-0.6,0.4-0.5,0.5-0.9c-0.7-1.1,0.1-1.6-0.4-2.8c-0.6-0.1-0.3,0.6-0.9,0.5
		c-0.5-0.7,0.3-1,0.6-1.3c-0.5-1.1-1.1-2-1.8-2.9c0.5,0,1-0.1,1.1-0.5c-0.1-0.7-1.2-0.5-1.5-1c0.1-0.6,1.3,0.5,1.5-0.4
		c-0.2-0.8-1.1-0.8-1.9-0.9c-0.1-0.3-0.2-0.6-0.1-1c0.3,0.1,1.2,0.3,1.3-0.1V84c-0.2-0.9-2.3,0.1-2.2-1.3c0.4-0.1,1.5,0.4,1.4-0.8
		c-0.7-0.4-2.1-0.3-3-0.1c0.2,1.1,1.3,1.4,1.3,2.8c1.1,1.5,1.4,4,2,6.1c1,3.6,2.6,7.4,2.8,11.8c-2.1,0.1-3.9-1.1-5.7-1.8
		c-0.2-1.6-0.6-2.9-0.5-4.7c-0.7-0.4-1.2-1-1.4-1.9c0.3-0.3,1.1-1.3,0.3-1.7c-0.4-0.1-0.5,0.2-0.5,0.5c-1.2-0.6,0.3-1.8-0.3-2.8
		c-0.5-0.2-0.7,0.4-1,0.1c-0.1-0.6,0.5-0.4,0.6-0.8c-0.2-0.8-0.7-0.4-1.1-0.5c-0.3-0.5,0-1,0.1-1.4C36,86.9,35,86.9,35,85.9
		c-0.1-0.5,0.9,0,0.8-0.6c-0.3-0.7-1.9-0.6-1.4-1.7c0.6-0.1,0.9,0.7,1.5,0.3c0.2-1.5-2.2-0.4-2.2-1.8c0.8-0.1,0.9,0.5,1.5,0.5
		c0.2-0.1,0.3-0.2,0.4-0.4c0-1.2-1.6-0.7-2.3-1.1c0.1-0.6,0.8,0.1,1.4-0.1c0.1-0.4-0.1-0.5-0.1-0.8c-0.9,0.1-1.8-0.5-2.5-1
		c-0.5,0.1-0.6,0.6-0.8,1c0,0.6,0.6,0.5,1,0.8c2,6.5,5.3,11.8,6.7,18.9c-2.6-0.4-2.8-1.4-3.5-3.6c-0.1-0.4-0.6-1.5-0.6-1.7
		c-2-4.4-3.7-9.1-6-13.2v-0.9c-0.1-0.4-0.6-0.4-0.8-0.6c-0.2-0.7,0.6-0.4,0.6-0.8c0-0.7-1.1-0.4-1.5-0.8c0.1-0.4,0.8-0.3,0.9-0.8
		c-0.1-1.2-1.9,0.1-1.7-1.3c0.3-0.2,1,0.2,1.3,0.4c0.2-0.2,0.3-0.4,0.3-0.9c-1.3-0.4-2.5-1.1-3.3-0.1c3.8,7.1,7.9,13.9,10.4,22.4
		c-0.8-0.1-1.3-0.6-1.9-0.9c0.1-0.5-4.7-10.1-6.9-14.6c-0.8-1.8-1.8-3.4-2.7-5.1c-0.9-1.7-2-3.2-2.8-4.8c-0.3-0.6-0.9-1.9-0.9-2.4
		c-0.1-1.8,2.2-4,0.5-5.3c0.4-1.1,2.2-2,1.7,0c0.3,0.6,1.1,0.6,1.4,1.1c0,1.8-1.9,1.7-1.7,3.7c0.9,0.1,2.3,0.2,2.9,0.9
		c0.3,1.4-1,2.4,0.1,3c2.5-2.4,7.3-0.5,6.1,3.7c0.1,0.3,0.4,0.5,0.8,0.5c1.5-2.5,5.9-1.4,7.2,0.5c0.1,1.2,0.3,2.3,1,2.8
		c0.6,0.1,0.7-0.4,0.9-0.8c2.5-1.2,6.2-0.7,7.4,1.4c-0.7,0.8,0.2,2.2-0.9,2.8c2.9,4.9,3.5,12,3.8,19.2
		C49.7,103.8,49,102.9,47.2,103.1z M91,88.2c-1.4,1.1-1.1,3.8-2.8,4.6c0-2.3,1-4.6,2-6.2c1.6-6.8,4-11.7,6.7-17.4
		C95.4,76,92.8,81.6,91,88.2z M97.2,68.5c-1.8,2.4-2.9,5.6-4.2,8.5c-0.3,0.7-1.3,2.4-1,3.2c-2.3,3.7-2.9,8-4.6,12.4
		c0,0-1.4,4.8-1.8,5.6c0.6-0.4,2-3,2.1-3.2H88c-0.4,3-3.1,4-5.6,5.3c-1.4,0.7-3.2,1.9-4.7,2c0.5-0.4,2.3-9,4.3-12
		c-0.1-0.8-0.1-1.1,0.1-1.8c0.3-0.2,0.9-0.1,1-0.5c-0.3-0.8-0.6-1.5,0-2.2c0.6,0,1.3,0,1.5-0.4c0.1-0.7-0.7-0.4-1-0.6
		c0-0.8,1.3-0.3,1.5-0.9c0.1-0.7-0.7-0.5-0.8-1v-0.5c0.4-0.5,1.6-0.1,1.5-1c-0.7-0.4-1.8,0.3-2.5,0.3c-2.5,6.4-3.8,14.1-6.5,20.3
		c-1.7,0.2-3,1.4-4.8,1c-0.3-1.4,1.4-2.8,0.6-4.3c0-0.6,0.7-0.4,0.8-0.9c-0.5-1.1-0.4-2,0.5-2.5c-0.4-1-0.3-1.4,0.5-1.9
		c0.2-0.4-0.1-0.6-0.3-1c0-0.5,0.7-0.4,0.8-0.9c-0.1-0.5-0.6-1-0.3-1.7c0.7,0,1.3,0,1.3-0.6c-0.2-0.7-0.8,0.3-1.1-0.1
		c0.1-0.4,0.3-0.7,0.4-1c0.8-0.2,1.8,0.3,1.8-0.9c-0.2-0.4-1.2,0.1-1.4-0.3c0.2-0.9,2.2,0,2.2-1.1c-0.2-0.7-1-0.2-1.5-0.1
		c-0.3-0.4,0.1-0.8,0.1-1.3c0.6-0.2,1.3-0.3,1.9-0.5c0-0.7-0.9-0.5-1.4-0.4v-0.8c-0.4,0.1-0.6-0.1-0.9-0.1c-1.1,1.2-1,3.7-1.9,5.1
		c-0.2,5.7-2.3,10.5-3.4,15.6c-1.6,0-3.8,0.8-5.3,0.5c0.5-1.2,0.8-2.6,0.6-4.2c0.1-0.3,0.5-0.4,0.8-0.6c0.1-0.8-1-0.4-0.6-1.4
		c0.5,0,1.1,0,1.1-0.8c0-0.5-0.9-0.1-1-0.5c0-0.7,0.7-0.1,1.3-0.3c0.1-0.9-0.2-1.3-1-1.3c0.3-0.2,0-0.9,0.3-1.1
		c0.4,0,1.3,0.6,1.4-0.1c0.1-0.6-0.8-0.3-1.3-0.4v-0.8c0.6,0,1.1,0.3,1.4-0.3c0-0.9-1.1-0.2-1.3-0.6c0.1-1.2,1.7,0,1.9-1
		c0.2-0.9-1.4-0.1-1.4-0.9c0.4-0.4,1.8,0.2,1.5-0.8c-0.4-0.5-1.2,0-1.5-0.1c0.1-1.2,2.1,0.2,2.3-0.8c-0.2-0.9-1-0.5-1.9-0.5
		c0-0.3,0-0.7,0.1-0.9c0.3-0.2,1.1,0.1,1.8,0c0.1-0.4,0.1-0.2,0-0.6c-0.2-0.4-0.8-0.2-1.3-0.3c-0.2-0.3,0.2-1-0.1-1.4
		c-0.4-0.1-0.5,0.1-0.8,0.1c-0.5,2-1.2,4.1-1.5,6.7c-0.4,3.5-0.8,6.9-1.4,10.2c-0.2,0.8-0.6,1.6-0.4,2.7c-0.9,0.5-4.6,0.6-6.2,0.4
		c0.4-2.1-0.2-4.5,0.1-6.7c0.3-0.5,1-0.4,0.8-1.4c-0.1-0.5-0.4,0-0.8,0c-0.1-0.5-0.2-1.4,0-1.9c0-0.6,0.3,0.3,0.8,0
		c0.3-1-0.6-0.6-0.8-0.6c-0.2-0.5,0.1-1,0-1.8c0.3,0,0.7,0.1,0.8-0.3c0.3-1-0.9-0.5-0.8-1.4c0.2-0.7,1.7,0,1.5-1
		c-0.3-0.7-1.3,0.3-1.4-0.3c0.1-0.7,1-0.1,1.4-0.6c0-0.4-0.2-0.7-0.1-1.3c0-0.5-0.9-0.3-1-0.8c0-0.8,0.9,0.3,1.1-0.5
		c0-1.2-1.7-0.6-2.3-0.3c-0.3,6.3,0.1,12.2-0.5,18.7c-1.5,0.3-2.9-0.2-4.4-0.3c-0.7-3.9-0.7-8.9-1.3-12.6c0.4-0.1,0.2,0.5,0.6,0.4
		c0.3-0.2,0.6-0.5,0.4-0.9c0-0.4-0.7-0.2-1.1-0.3c-0.1-0.3-0.3-0.6-0.3-1.1c0.6,0,0.7,0.6,1.3,0.1c0.2-1.6-1.7-0.2-1.5-1.8
		c0.5-0.3,1,0.4,1.5,0c0.1-0.8-0.3-0.9-1-0.9c0.4-0.8-0.1-1.3-0.6-1.5c-0.1-0.5,0.7-0.1,0.6-0.5c0.1-1-1.1-0.6-1.7-0.9
		c0-0.2,0-0.4-0.1-0.4c0.6-1.6,2.4-2.4,4.2-2.4c1.8,0,3.2,1.7,3.9,2.8c0.5-0.1,0.6,0.1,0.9,0.3c0.7-1.6,2.2-2.3,3.8-3
		c2.9-0.2,4.9,0.7,6,2.7c0.6-0.2,0.7-0.7,0.9-1.3c1.5-1.8,5.3-3.3,8-1.9c0.2,0.3,0.3,0.8,0.5,1h0.9c0.3-3.5,5.1-5.1,7.9-2.9
		c0.6,0,0.7-0.9,0.5-1.4c0.5-2.8,2.6-5.2,6-3.9c0.3-0.1,0.3-0.5,0.5-0.8c-0.3-0.7-0.8-1.2-0.8-1.9c0.1-1.7,2.4-1.6,3.7-2.3
		c-0.7-2.7,0.7-4.6,3.4-4.7c-0.6,1.3-1.5,2-2.3,3.2C97.4,67.5,97.1,67.3,97.2,68.5z M99.6,63.7c0.2-1.6-1.1-2.6-2.2-3.3
		c0.1-2.5-2.9-1.8-3.6-3.4c1.1-0.1,2.1,0.9,3.3,1c1.1,1.5,1.7,3.7,3.4,4.6C100.5,63.1,100.3,63.7,99.6,63.7z"/>
	<path fill-rule="evenodd" clip-rule="evenodd" fill="#404045" d="M91.6,76.1c0-0.4,0.5-0.9,0.1-1.3c-1,0.2-0.7,1.8-1.5,2.2
		c-1.1,4.2-2.6,8-4.6,11.3c-0.8,3.9-4.1,12-4.1,12c0.4-0.3,1.3-1.3,1.3-0.7c-0.1-0.2,4.1-10.9,5.9-15.1c-0.3-0.5-0.3-1,0-1.5
		c0.5,0.3,0.8,0.2,1.1-0.1c0.1-0.7-0.3-1-0.5-1.4c0.3-0.7,0.8-0.7,1.4-0.9c0.3-0.7-0.8-0.6-0.4-1c-0.1-0.7,1-0.2,1.1-0.6
		c0.1-0.7-0.5-1-0.1-1.7c0.7,0.1,1.1-0.1,1.3-0.5C92.6,76.2,92,76.3,91.6,76.1z"/>
</g>
</svg>
