<?xml version="1.0" encoding="utf-8"?>
<!-- Generator: Adobe Illustrator 18.1.1, SVG Export Plug-In . SVG Version: 6.00 Build 0)  -->
<!DOCTYPE svg PUBLIC "-//W3C//DTD SVG 1.1//EN" "http://www.w3.org/Graphics/SVG/1.1/DTD/svg11.dtd">
<svg version="1.1" id="logo_x27_s" xmlns="http://www.w3.org/2000/svg" xmlns:xlink="http://www.w3.org/1999/xlink" x="0px" y="0px"
	 viewBox="0 0 142 89" enable-background="new 0 0 142 89" xml:space="preserve">
<g id="_x31_1">
	<g>
		<path fill-rule="evenodd" clip-rule="evenodd" fill="#404045" d="M19.4,6.4c0.4,0,0.8-0.1,1.3-0.1c1.2-0.1,2.5-0.1,3.7-0.2
			c1.9,0,3.8-0.1,5.7-0.1c2.5,0,5-0.1,7.5-0.1c0.7,0,1.3,0.1,2,0.2C41.1,6.2,42.5,6.2,44,6c1-0.2,2.1,0,3.2,0c1.6,0,3.1,0,4.7,0
			c1.8,0,3.5-0.1,5.3-0.1c2.1-0.1,4.1-0.2,6.1-0.3c0.8,0,1.6-0.1,2.3,0c2.1,0.2,4.2,0.1,6.3,0c1.3-0.1,2.6-0.1,3.9,0
			c2.2,0,4.4,0.1,6.6,0.1c1.5,0,3-0.1,4.5-0.1c2.3,0,4.6,0.1,6.8,0.1c2,0,4.1,0.1,6.1,0.1c1.1,0,2.2,0.1,3.3,0.1
			c1.4,0.1,2.8,0.2,4.3,0.2c2.5-0.1,5,0.3,7.5,0.3c2.3,0,4.6,0,6.8,0c1.2,0,1.2,0,1.5,1.1c0.4,1.3,0.8,2.6,1.4,3.8
			c0.2,0.5,0.7,1,1.2,1.4c0.6,0.5,1.2,0.9,1.9,1.3c1.3,0.9,2.9,1.1,4.4,1.5c1.1,0.3,2.3,0.4,3.4,0.6c0.4,0.1,0.7,0.2,1.2,0.3
			c0.1,3,0.3,6,0.4,9c0.1,2.7,0.2,5.5,0.2,8.2c0,1.6,0,3.2,0,4.8c0,2.1,0,4.2,0.1,6.4c0,2.8,0.1,5.7,0.1,8.5c0,4.1,0,8.2,0,12.3
			c0,0.4,0,0.8-0.1,1.3c-1.4-0.2-2.6-0.1-3.9,0.2c-2.3,0.6-4.4,1.6-6.3,3c-1.3,1-2.2,2.2-2.7,3.7c-0.6,1.8-1.2,3.7-1.8,5.5
			c-0.2,0.8-0.4,1.6-0.5,2.4c-0.1,0.5-0.3,0.6-0.7,0.6c-0.8,0-1.6,0.1-2.3,0.2c-2.1,0.1-4.2,0.5-6.3,0.3c-2.3-0.2-4.5,0.1-6.8-0.1
			c-1.6-0.1-3.2,0-4.8,0c-1.1,0-2.2,0-3.2,0c-2.7,0.1-5.5,0.2-8.2,0.2c-1.2,0-2.4,0-3.6-0.1c-1.4,0-2.8-0.1-4.2-0.1
			c-1.6,0-3.2,0-4.8,0c-1.2,0-2.3-0.1-3.5-0.2c-0.6,0-1.1-0.1-1.7,0c-2.6,0.1-5.1,0.4-7.7,0.3c-1.1,0-2.3-0.1-3.4-0.1
			c-1.1,0-2.2,0-3.3,0c-1.1,0-2.2,0.1-3.2,0.2c-2.7,0.1-5.3,0.2-8,0.4c-2.8,0.2-5.5-0.2-8.3-0.2c-2.4,0.1-4.7-0.1-7.1,0.1
			c-1.6,0.2-3.2-0.1-4.8,0c-1.5,0.2-3.1,0-4.7,0c-0.1-0.3-0.2-0.6-0.3-0.9c-0.1-1.1-0.2-2.1-0.3-3.2c-0.1-1-0.5-1.9-0.9-2.7
			c-1-1.9-2-3.7-3.8-4.9c-1-0.6-2.1-1.1-3.1-1.4c-1.9-0.7-4-0.7-6-0.6c-0.3,0-0.6,0-1,0.1C6,69.1,6,68.8,6,68.4
			c0-1.7,0.1-3.5,0.2-5.2c0-0.2,0.1-0.4,0-0.6c-0.5-1.2-0.2-2.3-0.2-3.5c0-1.3-0.1-2.6-0.1-3.9c0-1.1,0-2.2,0-3.3
			c0-1.6,0.1-3.2,0.1-4.8c0-0.4-0.1-0.7-0.1-1.1c0-0.9-0.1-1.8-0.1-2.7c0-1.1,0-2.3,0-3.4c0-1.3-0.1-2.6-0.1-3.9
			c-0.1-3-0.1-6-0.2-8.9c0-2.5,0-5.1,0-7.7c0.5-0.1,1-0.3,1.5-0.4c2.2-0.3,4.3-1.1,6.3-2c0.7-0.3,1.3-0.8,1.8-1.3
			c1.7-1.5,2.7-3.4,3.4-5.4C19.1,9.1,19.2,7.8,19.4,6.4z M23.1,80.5c1,0.7,1.9,0.9,3,0.7c0.4-0.1,0.8,0,1.1-0.1c1,0,2,0,3-0.1
			c1-0.1,2-0.2,3-0.3c1.3-0.1,2.7-0.1,4-0.2c1.1,0,2.1-0.1,3.2-0.1c1.8,0,3.6,0,5.4,0c0.2,0,0.5,0,0.7,0c1.2,0.1,2.4,0.3,3.6,0.3
			c3.4,0.1,6.8,0,10.2,0c1,0,2-0.2,3-0.2c2.5,0,5,0,7.5-0.4c0.2,0,0.4,0,0.7,0c1.4,0,2.8,0.2,4.1,0.1c1.9-0.2,3.9,0.2,5.8-0.3
			c0.1,0,0.3,0.1,0.4,0.1c1.5,0,2.9,0,4.4,0c1.6,0,3.1-0.2,4.7-0.2c2,0,4,0.2,6.1-0.1c0.8-0.1,1.7-0.1,2.6,0c2.3,0.4,4.6,0.6,7,0.4
			c0.2,0,0.4,0,0.7,0.1c1.9,0.3,3.7,0.4,5.6,0.1c0.3,0,0.5-0.1,0.8-0.1c1.6,0,3.1,0.1,4.7,0.1c2.1,0.1,2.3,0,2.8-2.3
			c0.4-1.6,0.7-3.3,1.2-4.9c0.4-1.3,0.9-2.5,1.3-3.8c0.4-1.2,1.1-2.3,2.1-3.2c1.5-1.3,3.1-2.4,5-2.8c1.3-0.3,2.6-0.6,3.9-0.7
			c1.1-0.1,1.5-0.3,1.5-1.5c0-0.2,0-0.4,0-0.7c-0.1-2.3-0.3-4.5-0.4-6.8c-0.1-1.5-0.1-3-0.2-4.5c-0.2-2.4-0.5-4.8-0.3-7.2
			c0.1-1,0-2.1,0-3.1c0-2-0.1-4-0.1-5.9c0-1.2,0-2.5,0-3.7c0-0.9,0.2-1.7,0.2-2.6c-0.1-2.3-0.3-4.6,0-6.9c0.1-0.7-0.4-1-0.8-1.3
			c-0.4-0.3-0.8-0.2-1.1,0.1c-0.4,0.4-0.9,0.4-1.5,0.4c-1.3,0-2.4-0.5-3.5-1c-1.2-0.6-2.3-1.3-3.5-1.8c-1.6-0.8-2.7-2.1-3.4-3.7
			c-0.2-0.5-0.5-1.2-0.3-1.7c0.2-0.9,0-1.4-0.6-1.9c-1.8,0-3.7,0-5.5,0c-2.7,0-5.3-0.5-8-0.4c-3.5,0.1-7-0.1-10.5-0.1
			c-1.5,0-3,0-4.5,0.1c-1.6,0.1-3.3,0.2-4.9,0.2c-3,0-5.9,0-8.9,0c-2.6,0-5.2,0-7.8,0c-2.9,0-5.9,0.1-8.8,0.2
			C57.6,8.9,53.7,9,49.8,9c-0.6,0-1.2-0.1-1.8-0.1c-0.7-0.1-1.4-0.2-2.1-0.1c-3,0.5-6.1,0.4-9.2,0.5c-1.3,0.1-2.6-0.2-3.9-0.2
			c-2.7,0-5.4,0-8.1,0c-0.5,0-0.9,0-1.3,0c-0.5,0.1-1,0.2-1.1,0.8c-0.1,0.6-0.1,1.2-0.1,1.8c-0.1,0.7,0,1.5-0.3,2.1
			c-0.9,1.9-1.9,3.6-3.8,4.7c-2,1.2-4,1.9-6.3,2.1c-0.4,0-0.9,0.1-1.3,0.1c-0.5,0-1.1,0.1-1.7,0.1c-0.1,0.1-0.2,0.2-0.3,0.4
			c-0.6,0.5-0.7,1.1-0.3,1.8c0.2,0.4,0.3,0.8,0.3,1.3c0.1,1.2,0.2,2.3,0.3,3.5c0.2,1.7,0.3,3.5,0.5,5.2c0,0.2,0,0.4,0,0.6
			c-0.1,1.5-0.2,3-0.2,4.6C9,40.7,9,43.5,9,46.3c0,0.4,0,0.7,0,1.1c0.1,1,0.2,2,0.2,3c0,1.5,0,3-0.1,4.5c-0.1,2.7-0.1,5.3-0.2,8
			c0,0.7,0.1,1.5-0.3,2.2c-0.2,0.4-0.2,0.9,0.3,1.2c0.4,0.3,0.8,0.4,1.3,0.1c0.7-0.4,1.5-0.7,2.3-0.7c2.1-0.1,4.1,0.5,5.8,1.5
			c1.2,0.6,2.1,1.6,2.8,2.8c1.5,2.4,1.9,5.2,2.4,7.9c0.1,0.6,0.2,1.2-0.3,1.8C23.1,79.8,23.1,80.2,23.1,80.5z"/>
		<path fill-rule="evenodd" clip-rule="evenodd" fill="#404045" d="M10.6,23c0.7-0.1,1.4-0.3,2-0.3c1.5,0,2.9-0.4,4.2-1.1
			c1.2-0.6,2.4-1.2,3.5-2c0.8-0.6,1.5-1.5,2.1-2.4c0.6-0.9,1.2-1.7,1.5-2.7c0.2-0.9,0.4-1.8,0.7-2.8c0.2,0,0.4-0.1,0.6-0.2
			c1.7-0.1,3.5-0.1,5.2-0.3c2.7-0.3,5.4,0.2,8.2,0.1c2.4-0.1,4.9-0.1,7.3-0.4c1.3-0.2,2.7,0,4,0.1c0.6,0,1.3,0.1,1.9,0.1
			c1.9,0,3.7-0.1,5.6-0.1c3.1-0.1,6.3-0.1,9.4-0.2c2,0,4,0,6.1,0c3.9,0,7.8,0,11.7,0c1.1,0,2.2,0.1,3.4,0c2-0.1,4-0.3,5.9-0.4
			c0.6,0,1.2,0,1.8,0c2.2,0.1,4.4,0.1,6.6,0.2c1.3,0,2.6,0,3.9,0c1.8,0.1,3.6,0.1,5.3,0.4c1.5,0.2,3,0.2,4.6,0.2c0.7,0,1.5,0,2.1,0
			c0.5,1.2,1,2.2,1.5,3.2c0.9,1.8,2.4,2.8,4,3.8c0.8,0.5,1.6,0.9,2.4,1.3c2,1.2,4.2,2,6.7,2c0.1,1.7,0.3,3.4,0.3,5
			c0,1.1-0.2,2.2-0.2,3.2c0,1.3,0.1,2.5,0.1,3.8c0,2.3-0.1,4.6-0.1,6.9c0,1.4,0.1,2.8,0.1,4.1c0,2.5,0.5,4.9,0.2,7.4
			c-0.1,1.1,0.1,2.2,0.2,3.2c0,0.9,0,1.8,0,2.7c0,0.6,0,1.2,0.1,1.8c0.1,0.5-0.1,0.7-0.5,0.8c-1.2,0.3-2.3,0.6-3.5,0.9
			c-2.7,0.7-4.8,2.3-6.5,4.4c-0.8,0.9-1.1,2.2-1.7,3.3c-0.2,0.5-0.4,1-0.5,1.5c-0.6,1.9-1.2,3.7-1.7,5.6c-0.4,1.7-0.5,1.9-2.3,2
			c-1.4,0-2.7,0-4.1,0c-0.5,0-1,0.1-1.5,0.1c-1.2,0-2.5,0.1-3.7,0.1c-1,0-1.9-0.1-2.9-0.1c-2.5-0.1-4.9-0.2-7.4-0.3
			c-1.4-0.1-2.7-0.1-4.1-0.1c-1.5,0-2.9-0.1-4.4,0c-3.4,0.1-6.8,0.2-10.1,0.4c-3.2,0.1-6.4,0.1-9.6,0.3c-2.4,0.1-4.9,0.3-7.3,0.4
			c-2.1,0.1-4.3,0.3-6.4,0c-1.8-0.2-3.7-0.1-5.5-0.2c-1.3-0.1-2.6-0.2-3.9-0.3c-1.2,0-2.4-0.1-3.7,0c-0.8,0.1-1.6-0.1-2.4-0.1
			c-0.7,0-1.5,0.1-2.2,0.1c-2.1,0.1-4.3,0.1-6.4,0.2c-0.4,0-0.9,0.1-1.3,0.1c-0.7,0.1-2.9,0-3.6-0.3c-0.4-1.8-0.6-3.7-1.1-5.5
			c-0.4-1.5-0.9-2.9-1.8-4.2c-1.4-2.2-3.2-3.7-5.6-4.7c-1.8-0.8-3.7-1.1-5.7-0.9c-0.7,0-0.8,0-0.8-0.7c-0.1-0.6-0.1-1.2-0.1-1.8
			c0.1-2.8,0.1-5.5,0-8.3c0-0.7,0-1.4,0-2.1c0-1.7-0.1-3.3-0.1-5c0-0.2-0.1-0.4,0-0.6c0.5-1,0.1-2,0.1-3c0-1.3,0-2.6,0-3.9
			c0-0.1,0.1-0.2,0-0.2c-0.5-1.4,0-2.7,0.1-4.1c0-0.7-0.1-1.5-0.1-2.2c-0.1-2-0.1-4-0.3-5.9C10.6,24.7,10.3,23.9,10.6,23z"/>
	</g>
	<path id="color_3_" fill="#F4F2F0" d="M59.8,70.8c0.2,0.1,0.3,0.2,0.5,0.3c0.3,0.2,0.5,0.5,0.5,0.8c0,0.5-0.4,0.9-1,0.7
		c-0.5-0.2-0.9-0.5-1.2-1c-0.2-0.3-0.1-0.7,0.2-0.9c0.1-0.1,0.2-0.1,0.3-0.1c0.1,0,0.3,0,0.4,0c0.1-0.5,0.1-0.9,0.2-1.3
		c0.1-0.5,0.2-0.9,0.4-1.3c0.2-0.4,0.4-0.8,0.7-1.1c0,0,0,0,0,0c-0.4,0.1-0.8,0.2-1.2,0.3c-0.7,0.2-1.4,0.3-2.1,0.5
		c-0.5,0.1-0.9,0.2-1.4,0.2c-0.5,0.1-1,0.1-1.5,0.2c-0.1,0.1-0.1,0.2-0.2,0.3c-0.1,0.1-0.2,0.1-0.3,0.1c-0.6,0.1-1,0.5-1.4,0.9
		c-0.2,0.2-0.3,0.4-0.2,0.6c0,0,0,0.1,0,0.1c-0.1,0.2-0.1,0.4-0.1,0.6c0.1,0.4,0.2,0.9,0.4,1.3c0.1,0,0.2,0,0.3,0
		c0.7-0.1,1.3,0.6,1.2,1.2c0,0.4-0.3,0.6-0.7,0.5c-0.4-0.1-0.8-0.2-1.1-0.5c-0.3-0.3-0.4-0.7-0.3-1.2c0-0.1,0.1-0.1,0-0.2
		c-0.1-0.4-0.3-0.9-0.5-1.4c-0.4,0.8-0.6,1.6-0.7,2.5c0.1,0.1,0.3,0.2,0.4,0.3c0.3,0.2,0.4,0.4,0.4,0.7c0,0.3-0.1,0.6-0.4,0.9
		c-0.2,0.1-0.4,0.2-0.6,0.1c-0.4-0.1-0.8-0.3-1.1-0.8c-0.2-0.3-0.3-0.7-0.1-1c0,0,0-0.1,0-0.1c-0.1,0-0.2-0.1-0.3-0.1
		c-0.2-0.1-0.4-0.1-0.5-0.2c-0.1-0.1-0.2-0.2-0.2-0.3c-0.1-0.2,0-0.4,0.3-0.5c0.1,0,0.2,0,0.3,0c0.2-0.3,0.4-0.5,0.7-0.5
		c0.3-0.1,0.5,0,0.7,0.2c0.1,0.1,0.1,0.2,0.2,0.2c0.1-0.1,0.1-0.2,0.1-0.3c0.1-0.7,0.4-1.4,0.8-2c0.3-0.4,0.6-0.8,0.9-1.1
		c0.2-0.1,0.4-0.3,0.5-0.4c0-0.1-0.1-0.1-0.2-0.1c-0.6,0.1-1.1,0.1-1.7,0.2c-0.6,0-1.2,0-1.8,0c-0.3,0-0.6,0-0.9,0
		c-0.1,0.3-0.3,0.3-0.5,0.4c-0.6,0-1.1,0.2-1.7,0.5c-0.6,0.3-1.1,0.6-1.6,1c-0.4,0.3-0.7,0.6-1.1,1c0.1,0,0.2,0.1,0.3,0.1
		c0.5,0.2,0.8,0.5,1.1,0.9c0.1,0.1,0.1,0.3,0.1,0.5c0,0.3-0.2,0.6-0.5,0.6c-0.3,0-0.5,0.1-0.8,0c-0.4-0.2-0.7-0.3-1-0.7
		c-0.1,0.1-0.1,0.1-0.2,0.2c-0.1,0.3-0.4,0.3-0.7,0.3c-0.6,0-1-0.3-1.4-0.7c-0.1-0.1-0.2-0.4,0-0.6c0.2-0.2,0.3-0.5,0.6-0.6
		c-0.1-0.1-0.2-0.3-0.3-0.4c-0.2-0.4-0.1-0.8,0.3-0.9c0.4-0.1,0.9-0.2,1.4,0c0.4,0.1,0.7,0.3,0.8,0.7c0,0.1,0.1,0.1,0.1,0.2
		c0.2-0.2,0.5-0.4,0.7-0.6c0.5-0.4,1.1-0.8,1.7-1.1c0,0,0.1,0,0.1-0.1c0.4-0.3,0.8-0.5,1.3-0.5c0.1,0,0.1,0,0.2,0
		c0-0.1-0.1-0.1-0.2-0.1c-0.3,0-0.6,0-0.9,0c-0.6,0-1.3-0.1-1.9-0.2c-0.2,0-0.5-0.1-0.7,0.1c-0.1,0-0.3,0-0.4-0.1
		c-0.3-0.2-0.6-0.2-0.9-0.3c-0.9-0.1-1.9-0.3-2.8-0.4c-0.3,0-0.7-0.1-1-0.1c-0.2,0-0.4-0.1-0.7-0.2c-0.2,0.2-0.4,0.3-0.7,0.2
		c-0.2,0-0.4,0.1-0.6,0.1c-0.5,0.1-0.9,0.2-1.3,0.4c-0.8,0.4-1.4,0.9-1.3,1.9c0.1,0.1,0.2,0.1,0.3,0.1c0.6,0.2,1.1,1,1.1,1.5
		c0,0.4-0.4,0.7-0.8,0.6c-0.7-0.1-1.2-0.6-1.2-1.4c0-0.2,0-0.4,0-0.6c0.1-0.1,0.2-0.2,0.3-0.2c0.1-0.4,0.1-0.7,0.2-1.1
		c-0.5,0.2-1.4,0.9-1.8,1.4c0,0.1,0.1,0.2,0.2,0.2c0.2,0.3,0.3,0.7,0.3,1.1c0,0.6-0.5,1.1-1.1,1c-0.7-0.1-1.3-0.5-1.7-1
		c-0.1-0.1-0.1-0.2-0.1-0.4c0.1-0.2,0.2-0.4,0.4-0.5c0.2-0.1,0.4-0.3,0.6-0.4c0.2-0.1,0.4-0.2,0.7-0.2c0.1,0,0.2,0,0.4,0
		c0.5-0.6,1.2-1.1,1.9-1.6c0,0,0.1-0.1,0.1-0.1c0.7-0.6,1.5-0.9,2.4-1.1c0.2-0.1,0.4-0.1,0.7-0.2c-0.1-0.1-0.1-0.1-0.2-0.2
		c-0.4-0.1-0.8-0.2-1.1-0.3c-0.2-0.1-0.4-0.1-0.6-0.2c-0.2-0.1-0.4-0.1-0.6-0.2c-0.1,0-0.2-0.1-0.4-0.1c-0.5-0.2-1.1-0.4-1.7-0.5
		c-0.1,0-0.2,0-0.3-0.1c-0.3-0.3-0.7-0.4-1.1-0.5c-0.6-0.2-1-0.5-1.6-0.8c-0.2,0.1-0.5,0.1-0.7,0.1c-0.6-0.1-1.2,0-1.8,0.1
		c-0.5,0.1-0.9,0.4-1.3,0.7c0.1,0.1,0.1,0.2,0.2,0.3c0.2,0.3,0.1,0.9-0.1,1.2c-0.2,0.2-0.6,0.4-0.9,0.4c-0.5-0.1-1-0.3-1.4-0.7
		c-0.2-0.2-0.3-0.5-0.1-0.8c0.1-0.1,0.1-0.2,0.1-0.3c0.1-0.4,0.4-0.6,0.7-0.7c0.2-0.1,0.3-0.1,0.5,0c0.3,0.1,0.6,0.2,0.9,0.3
		c0.4-0.3,0.8-0.6,1.4-0.7c0.5-0.1,1-0.2,1.6-0.3c0-0.1,0-0.1-0.1-0.2c-0.1-0.1-0.2-0.2-0.4-0.2c-0.8-0.3-1.5-0.8-2.2-1.2
		c-0.4-0.2-0.7-0.5-1.1-0.8c-0.1-0.1-0.2-0.1-0.3-0.2c-0.1,0.3-0.3,0.5-0.4,0.8c-0.2,0.4-0.6,0.4-1,0.4c-0.4,0-0.7-0.3-0.9-0.6
		c-0.2-0.3-0.4-0.6-0.5-0.9c-0.1-0.3,0-0.5,0.2-0.7c0,0,0-0.1,0.1-0.1c-0.2-0.3-0.4-0.5-0.6-0.8c-0.1-0.2-0.2-0.4-0.2-0.6
		c-0.1-0.4,0.1-0.7,0.5-0.9c0.2-0.1,0.4-0.1,0.7-0.1c0.2,0,0.4,0.1,0.6,0.1c0.3,0.1,0.5,0.3,0.4,0.6c0,0.1,0,0.3-0.1,0.4
		c0.3,0.3,0.3,0.3,0.2,0.8c0.2,0.3,0.4,0.5,0.7,0.7c0.2,0.1,0.4,0.3,0.6,0.5c0.4,0.4,0.8,0.8,1.3,1c0.3,0.1,0.5,0.3,0.8,0.5
		c1,0.6,2.1,1.1,3.2,1.7c0.4,0.2,0.8,0.4,1.3,0.5c0-0.1-0.1-0.1-0.1-0.2c0-0.1-0.1-0.2-0.1-0.2c-0.4-0.4-0.7-0.9-0.8-1.4
		c-0.1-0.3-0.2-0.5-0.4-0.8c-0.1,0.1-0.2,0.1-0.2,0.1c-0.4,0.2-0.8,0.2-1.2,0c-0.4-0.2-0.8-0.5-1-1c-0.3-0.7-0.2-0.8,0.2-1.2
		c0.3,0,0.5,0.2,0.8,0.1c0-0.1,0-0.2,0-0.2c-0.1-0.2-0.1-0.5-0.2-0.7c-0.1-0.2,0-0.4,0-0.5c0.3-0.9,1-0.8,1.4-0.4
		c0.3,0.2,0.4,0.6,0.6,0.9c0.1,0.1,0.1,0.3,0.2,0.5c0.2-0.1,0.3-0.1,0.5-0.1c0.5-0.1,0.8,0,1,0.4c0.3,0.5,0.4,1.1,0.3,1.8
		c-0.1,0.5-0.5,0.7-1,0.6c-0.2,0-0.4-0.1-0.5-0.2c-0.1-0.1-0.3-0.2-0.4-0.3c-0.2,0-0.1,0.1-0.1,0.2c0.4,1.2,0.9,2.2,1.9,2.9
		c0.2,0.2,0.5,0.4,0.8,0.4c0,0,0.1,0,0.1,0.1c0.2,0.3,0.6,0.3,0.9,0.4c0.4,0.2,0.8,0.3,1.2,0.4c0.3,0.1,0.6,0.1,0.9,0.3
		c0.1,0.1,0.3,0.1,0.5,0.1c0.5,0.1,0.9,0.1,1.4,0.2c0.4,0.1,0.8,0.2,1.3,0.2c0.4,0,0.8,0.1,1.2,0.2c0.7,0.1,1.4,0.2,2.2,0.3
		c0-0.2-0.2-0.3-0.3-0.4c-0.5-0.5-1-1-1.4-1.6c-0.4-0.6-1-0.9-1.6-1.2c-0.4-0.2-0.8-0.2-1.2-0.1c0,0.1-0.1,0.1-0.1,0.2
		c-0.1,0.4-0.4,0.4-0.7,0.5c-0.3,0-0.6-0.1-0.8-0.3c-0.3-0.3-0.6-0.7-0.6-1.2c0-0.2,0.1-0.3,0.3-0.3c0.4-0.2,0.8-0.1,1.1,0.2
		c0.2,0.2,0.5,0.3,0.6,0.6c0.3,0,0.7,0,1,0c0.3,0,0.6,0.2,1,0.4c-0.2-0.7-0.6-1.3-0.7-2c-0.1,0-0.2,0-0.3-0.1
		c-0.2-0.1-0.4-0.2-0.6-0.4c-0.2-0.2-0.4-0.4-0.7-0.4c0-0.2,0.1-0.5,0.1-0.7c0-0.2,0.2-0.2,0.3-0.2c0.1,0,0.2,0,0.3,0
		c0.2-0.1,0.3-0.1,0.5-0.2c0.2,0,0.4,0,0.5,0.2c0.2,0.3,0.4,0.7,0.4,1c0,0.1,0,0.3-0.1,0.4c-0.1,0.2-0.1,0.4,0,0.6
		c0.2,0.7,0.4,1.3,0.8,1.9c0.5,0.7,0.9,1.3,1.5,1.9c0.5,0.5,1,0.9,1.6,1.3c0.1,0.1,0.3,0.1,0.4,0.1c1.2,0.1,2.5,0.3,3.7,0.3
		c0.1,0,0.2,0,0.3,0c1.1,0.1,2.3,0.2,3.4,0.1c0.6,0,1.3-0.1,1.9-0.2c0.8-0.1,1.6-0.2,2.4-0.3c0.1,0,0.2,0,0.3-0.1
		c-0.8-0.5-1.6-0.9-2.3-1.4c-0.2,0.1-0.5,0.1-0.7-0.1c-0.2-0.2-0.5-0.3-0.8-0.4c-0.4-0.2-0.8-0.3-1.2-0.6C51.1,65,51,65,50.9,64.9
		c-0.1,0.1-0.3,0.2-0.4,0.3c-0.3,0.3-0.6,0.3-1,0.2c-0.4-0.1-0.8-0.4-1-0.8c-0.3-0.5,0-1.1,0.6-1.2c0.6,0,1.2,0.2,1.5,0.7
		c0.2,0.3,0.5,0.6,0.8,0.7c0.5,0.2,1,0.4,1.4,0.6c0.1,0,0.1,0,0.3,0c-0.3-0.3-0.4-0.5-0.6-0.7c-0.3-0.3-0.6-0.7-0.8-1
		c-0.1-0.2-0.2-0.3-0.4-0.4c-0.3-0.1-0.5-0.3-0.7-0.6c-0.2-0.5-0.1-0.7,0.4-0.8c0.4-0.1,1.1,0.1,1.3,0.5c0.1,0.2,0.2,0.5,0.1,0.7
		c0,0.2-0.2,0.4-0.4,0.5c0,0,0,0-0.1,0.1c0.8,1.1,1.7,2,2.9,2.6c0.4,0.2,0.8,0.4,1.2,0.7c0.5,0.3,0.9,0.3,1.4,0.2
		c0.6-0.1,1.2-0.2,1.8-0.4c0.4-0.1,0.9-0.2,1.3-0.3c0.7-0.2,1.5-0.4,2.2-0.6c0.3-0.1,0.6-0.2,1-0.4c-1.7-0.4-3.2-1.1-4.7-1.9
		c-0.3,0-0.5,0.2-0.8,0.1c-0.5-0.1-0.9-0.3-1.2-0.6c-0.3-0.3-0.3-0.6-0.1-0.9c0.1-0.2,0.2-0.4,0.4-0.5c0.2-0.1,0.3-0.1,0.5-0.1
		c0.4,0.1,0.8,0.2,1.1,0.4c0.4,0.3,0.5,0.6,0.4,1.1c0,0.1,0,0.2-0.1,0.3c0.1,0.1,0.1,0.1,0.2,0.2c1,0.6,2.2,1.1,3.3,1.5
		c0.4,0.1,0.8,0.2,1.2,0.2c0.1,0,0.2,0,0.3,0c0.2-0.1,0.5-0.2,0.7-0.1c0.1,0,0.1,0,0.2-0.1c0.7-0.3,1.3-0.6,2-0.9
		c0.1,0,0.2-0.1,0.2-0.1c0.1-0.2,0.4-0.3,0.6-0.4c0.5-0.2,1-0.5,1.4-0.9c0.1,0,0.1,0,0.2,0.1c0.1,0.1,0.1,0.3,0,0.3
		c-0.2,0.1-0.5,0.3-0.7,0.4c-0.3,0.2-0.6,0.4-0.9,0.6c-0.2,0.1-0.4,0.3-0.6,0.5c-0.4,0.5-0.7,1.1-1.1,1.7c-0.2,0.3-0.3,0.5-0.5,0.8
		c-0.2,0.3-0.3,0.6-0.4,0.9c0.2,0.1,0.3,0,0.5,0c0.7-0.1,1.3,0.2,1.6,0.7c0.1,0.2,0.1,0.4,0.1,0.7c0,0.3-0.3,0.5-0.7,0.4
		c-0.2,0-0.4-0.1-0.6-0.1c0,0.1,0.1,0.3,0.1,0.4c0,0.1,0,0.2,0,0.3c-0.1,0.4-0.4,0.6-0.7,0.6c-0.4,0-0.7-0.2-1-0.4
		c-0.2-0.2-0.3-0.4-0.3-0.7c0-0.2,0-0.3-0.1-0.5c-0.2-0.1-0.4-0.2-0.5-0.3c-0.3-0.1-0.4-0.4-0.5-0.7c0-0.1,0.1-0.2,0.2-0.3
		c0.3-0.4,0.6-0.5,1.1-0.4c0.2,0,0.4,0.1,0.6,0.2c0.1-0.1,0.1-0.1,0.1-0.2c0.2-0.7,0.6-1.2,1-1.8c0.2-0.3,0.4-0.7,0.6-1.1
		c-0.3,0-0.6,0.2-0.8,0.3c-0.8,0.3-1.5,0.7-2.3,1c-0.4,0.2-0.9,0.3-1.4,0.4c-0.6,0.1-1,0.4-1.4,0.8c-0.8,0.9-1.2,1.9-1.3,3.1
		C59.9,70.4,59.8,70.6,59.8,70.8z M32,70.3c-0.4,0-0.7,0-0.9,0.3c-0.1,0.1-0.2,0.2-0.3,0.2c-0.3,0.1-0.4,0.4-0.2,0.6
		c0.4,0.5,0.9,0.7,1.5,0.7c0.2,0,0.3-0.1,0.4-0.3c0.2-0.4,0.2-0.8-0.1-1.2c0,0-0.1,0-0.1,0c-0.1,0.1-0.2,0.1-0.2,0.2
		C32,70.6,32,70.6,32,70.3z M25.5,65c-0.3-0.2-0.5-0.3-0.8-0.3c-0.1,0-0.2,0.1-0.2,0.1c0,0.2-0.1,0.3-0.3,0.4
		c-0.1,0.1-0.2,0.2-0.2,0.4c0,0.1,0,0.2,0,0.3c-0.1,0.3,0.1,0.4,0.3,0.5c0.2,0.1,0.4,0.2,0.6,0.2c0.4,0.1,0.7,0,0.9-0.3
		c0.2-0.3,0.2-0.6,0-0.9c-0.1-0.1-0.1-0.1-0.4-0.1c0,0-0.1,0-0.1,0C25.5,65.2,25.5,65.1,25.5,65z M30.5,60.8c0.1,0.6,0.4,1,1,1.1
		c0.3,0.1,0.5,0,0.7-0.3c0.1-0.1,0.1-0.3,0.1-0.4c0-0.2,0-0.5-0.1-0.7c-0.1-0.5-0.4-0.6-0.8-0.7c-0.2,0-0.4,0-0.5,0.3
		C30.8,60.3,30.7,60.5,30.5,60.8z M29.5,60.4c0,0,0.1,0.1,0.3,0.2c0.2,0.1,0.4,0,0.4-0.2c0-0.1,0-0.3,0.1-0.4
		c0.3-0.5-0.2-1.2-0.6-1.5c-0.3-0.2-0.7,0-0.7,0.3C28.8,59.2,29,60,29.5,60.4z M23.9,61.4C23.9,61.4,23.9,61.3,23.9,61.4
		c0-0.1,0-0.2-0.1-0.3c-0.1-0.5-0.3-0.8-0.9-0.8c-0.1,0-0.2,0-0.3,0c-0.2,0-0.3,0.1-0.4,0.2c-0.1,0.1-0.1,0.2-0.1,0.3
		c0.1,0.5,0.7,1.1,1.2,1.2c0.4,0.1,0.7-0.1,0.7-0.5C24.2,61.4,24.1,61.4,23.9,61.4C24,61.4,24,61.4,23.9,61.4z M28,60.3
		c-0.2,0.5-0.1,0.8,0.2,1.1c0.2,0.2,0.4,0.3,0.6,0.5c0.2,0.1,0.4,0.1,0.7,0c0.2-0.1,0.4-0.3,0.3-0.6c0-0.1-0.1-0.2-0.2-0.3
		c-0.4-0.4-0.8-0.7-1.3-0.8C28.3,60.3,28.1,60.3,28,60.3z M22.2,59.7c0.2,0.1,0.3,0.1,0.4,0.2c0.2,0,0.3,0,0.4-0.2
		c0.2-0.3,0.2-0.6,0.3-1c0-0.2-0.1-0.3-0.2-0.4c-0.3-0.2-0.6-0.2-1-0.1c-0.2,0-0.4,0.3-0.4,0.5C21.7,59.1,22,59.4,22.2,59.7z
		 M57.8,62c-0.1,0.2-0.2,0.3-0.3,0.5c-0.1,0.2-0.1,0.3,0,0.4c0.2,0.2,0.4,0.4,0.7,0.5c0.3,0.1,0.6,0.2,0.8-0.2
		c0.2-0.1,0.2-0.2,0.2-0.4c0-0.2-0.1-0.3-0.2-0.4C58.6,62.1,58.2,62,57.8,62z M43.8,71.4c-0.2,0.2-0.4,0.3-0.5,0.5
		c0.2,0.5,0.6,0.8,1.1,0.9c0.2,0.1,0.4,0,0.5,0c0.1,0,0.2-0.1,0.2-0.3c0-0.1,0-0.2-0.1-0.3C44.8,71.8,44.4,71.5,43.8,71.4z
		 M48.8,64.2c0.1,0.5,0.2,0.5,0.5,0.7c0.4,0.3,0.8,0.2,1.1-0.2c-0.1-0.7-0.6-0.9-1.2-1.1C48.9,63.7,48.9,64,48.8,64.2z M51.2,73.5
		c-0.1-0.1-0.3-0.2-0.5-0.2c-0.3-0.1-0.5,0.1-0.5,0.4c0,0.2,0,0.4,0.1,0.6c0.2,0.3,0.5,0.5,0.8,0.5c0.1,0,0.2,0,0.2-0.1
		c0.4-0.3,0.4-0.6,0.1-1C51.4,73.6,51.3,73.6,51.2,73.5z M34.4,70.1c-0.1,0.1-0.1,0.4-0.2,0.4c0,0-0.1,0.1-0.1,0.1
		c0,0.4,0.4,0.9,0.7,1c0.4,0.1,0.6-0.1,0.6-0.4c0-0.3-0.2-0.6-0.4-0.9C34.9,70.2,34.7,70.1,34.4,70.1z M41.6,70.4
		c0.3,0.5,0.8,0.6,1.3,0.7c0.1,0,0.1,0,0.2,0c0.3-0.1,0.4-0.4,0.2-0.7c-0.3-0.3-0.6-0.4-1-0.4C42,70,41.7,70,41.6,70.4z M42.5,72.6
		c0.3-0.3,0.3-0.6,0.1-0.9c-0.2-0.3-0.5-0.4-0.8-0.3c-0.2,0.2-0.3,0.3-0.4,0.4c-0.1,0.1-0.1,0.3,0,0.4
		C41.7,72.5,42.1,72.7,42.5,72.6z M66.2,70.4c0.1-0.2,0.1-0.5-0.1-0.7c-0.1-0.1-0.2-0.3-0.4-0.4c-0.1,0-0.1,0.1-0.2,0.1
		c-0.1-0.1-0.2-0.2-0.3-0.3c-0.1,0-0.1,0-0.2,0.1c-0.1,0-0.1,0.1-0.2,0.1c0,0.1,0,0.3,0,0.4c0,0.4,0.4,0.6,0.7,0.7
		C65.8,70.6,66,70.5,66.2,70.4z M67,68.4c-0.3-0.3-0.7-0.2-1-0.1c-0.1,0-0.2,0.2-0.1,0.4c0.1,0.1,0.1,0.2,0.2,0.2
		c0.2,0.1,0.4,0.2,0.7,0.3c0.1,0,0.2,0.1,0.4,0.1c0.1,0,0.3,0,0.3-0.1c0.1-0.1,0.1-0.2,0-0.3C67.3,68.7,67.1,68.6,67,68.4z M59,71.3
		c0.1,0.5,0.5,0.7,0.9,1c0.1,0.1,0.3,0.1,0.4,0c0.1-0.1,0.2-0.3,0.1-0.4c-0.1-0.1-0.1-0.3-0.2-0.4c-0.2-0.2-0.6-0.3-0.9-0.4
		C59.2,71.1,59.1,71.2,59,71.3z M36.6,63.2c0,0.1-0.1,0.2-0.1,0.3c0,0.4,0.5,0.8,0.8,0.9c0.2,0.1,0.4,0,0.6-0.2
		c0.1-0.2,0-0.3-0.1-0.5C37.4,63.4,37.1,63.2,36.6,63.2z M50.7,72.6c0-0.1,0-0.2,0-0.3c-0.1-0.5-0.5-0.6-0.9-0.3
		c-0.2,0.1-0.3,0.2-0.5,0.4c0.2,0.4,0.5,0.4,0.8,0.5C50.3,72.8,50.5,72.7,50.7,72.6z M39.2,61.7c0.2-0.1,0.4-0.1,0.4-0.3
		c0-0.3-0.1-0.6-0.4-0.8c-0.1,0-0.2-0.1-0.2-0.1c-0.2,0.1-0.5,0.1-0.6,0.4C38.5,61.2,38.9,61.5,39.2,61.7z M52.6,72.6
		c0.2,0.5,0.5,0.7,0.9,0.8c0.2,0.1,0.4-0.1,0.4-0.3c0-0.2-0.1-0.4-0.2-0.5c-0.2-0.2-0.4-0.2-0.6-0.2C53,72.5,52.8,72.5,52.6,72.6z
		 M64,68.5c0.5,0.5,0.7,0.6,1.2,0.1c0-0.2-0.1-0.4-0.3-0.5c-0.3-0.1-0.6-0.2-0.9,0C64,68.2,64,68.3,64,68.5z M52,63.3
		c0.2-0.2,0.2-0.4,0.1-0.5c-0.3-0.4-0.6-0.4-1.1-0.2c0.1,0.3,0.1,0.3,0.3,0.4C51.5,63.2,51.7,63.3,52,63.3z"/>
	<path id="color_2_" fill="#F4F2F0" d="M81.9,70.2c-0.1-1.2-0.5-2.2-1.3-3.1c-0.4-0.4-0.8-0.7-1.4-0.8c-0.5-0.1-0.9-0.2-1.4-0.4
		c-0.8-0.3-1.5-0.6-2.3-1c-0.2-0.1-0.5-0.2-0.8-0.3c0.2,0.4,0.4,0.8,0.6,1.1c0.3,0.6,0.8,1.1,1,1.8c0,0.1,0.1,0.1,0.1,0.2
		c0.2-0.1,0.4-0.1,0.6-0.2c0.5-0.1,0.8,0,1.1,0.4c0.1,0.1,0.1,0.2,0.2,0.3c0,0.3-0.2,0.5-0.5,0.7c-0.2,0.1-0.4,0.2-0.5,0.3
		c0,0.2,0,0.3-0.1,0.5c0,0.2-0.1,0.5-0.3,0.7c-0.3,0.3-0.6,0.4-1,0.4c-0.4,0-0.7-0.2-0.7-0.6c0-0.1,0-0.2,0-0.3c0-0.1,0-0.2,0.1-0.4
		c-0.2,0-0.4,0.1-0.6,0.1c-0.3,0-0.6-0.2-0.7-0.4c0-0.2,0-0.5,0.1-0.7c0.3-0.5,0.9-0.9,1.6-0.7c0.1,0,0.3,0.1,0.5,0
		c-0.1-0.3-0.2-0.6-0.4-0.9c-0.1-0.3-0.3-0.5-0.5-0.8c-0.4-0.6-0.7-1.1-1.1-1.7c-0.2-0.2-0.3-0.4-0.6-0.5c-0.3-0.2-0.6-0.4-0.9-0.6
		c-0.2-0.2-0.5-0.3-0.7-0.4c-0.1-0.1-0.1-0.2,0-0.3c0,0,0.1,0,0.2-0.1c0.4,0.4,0.9,0.7,1.4,0.9c0.2,0.1,0.4,0.2,0.6,0.4
		c0,0.1,0.1,0.1,0.2,0.1c0.7,0.3,1.3,0.6,2,0.9c0.1,0,0.1,0.1,0.2,0.1c0.3-0.1,0.5,0,0.7,0.1c0.1,0,0.2,0,0.3,0
		c0.4,0,0.8-0.1,1.2-0.2c1.2-0.4,2.3-0.8,3.3-1.5c0.1,0,0.1-0.1,0.2-0.2c0-0.1-0.1-0.2-0.1-0.3c-0.1-0.5,0-0.8,0.4-1.1
		c0.3-0.2,0.7-0.3,1.1-0.4c0.2,0,0.3,0,0.5,0.1c0.2,0.1,0.3,0.3,0.4,0.5c0.2,0.3,0.2,0.6-0.1,0.9c-0.3,0.3-0.8,0.5-1.2,0.6
		c-0.3,0.1-0.6-0.1-0.8-0.1c-1.5,0.8-3,1.6-4.7,1.9c0.4,0.1,0.7,0.3,1,0.4c0.7,0.2,1.4,0.4,2.2,0.6c0.4,0.1,0.9,0.2,1.4,0.3
		c0.6,0.2,1.2,0.3,1.8,0.4c0.5,0.1,1,0,1.4-0.2c0.4-0.2,0.8-0.5,1.2-0.7c1.2-0.6,2.1-1.5,2.9-2.6c0,0-0.1-0.1-0.1-0.1
		c-0.2-0.1-0.4-0.2-0.4-0.5c-0.1-0.3,0-0.5,0.1-0.7c0.2-0.3,0.9-0.6,1.3-0.5c0.5,0.1,0.6,0.3,0.4,0.8c-0.1,0.3-0.4,0.5-0.7,0.6
		c-0.2,0.1-0.3,0.2-0.4,0.4c-0.2,0.4-0.5,0.7-0.8,1c-0.2,0.2-0.4,0.4-0.6,0.7c0.2,0,0.2,0,0.3,0c0.5-0.2,0.9-0.4,1.4-0.6
		c0.4-0.1,0.6-0.4,0.8-0.7c0.3-0.5,0.9-0.8,1.5-0.7c0.6,0,0.9,0.7,0.6,1.2c-0.2,0.4-0.6,0.6-1,0.8c-0.4,0.1-0.7,0.1-1-0.2
		c-0.1-0.1-0.2-0.2-0.4-0.3c-0.1,0.1-0.3,0.1-0.4,0.2c-0.4,0.2-0.8,0.4-1.2,0.6c-0.3,0.1-0.6,0.2-0.8,0.4c-0.2,0.2-0.4,0.2-0.7,0.1
		c-0.8,0.5-1.5,0.9-2.3,1.4c0.1,0,0.2,0.1,0.3,0.1c0.8,0.1,1.6,0.2,2.4,0.3c0.6,0.1,1.3,0.2,1.9,0.2c1.1,0.1,2.3,0,3.4-0.1
		c0.1,0,0.2,0,0.3,0c1.2,0,2.5-0.1,3.7-0.3c0.1,0,0.3,0,0.4-0.1c0.6-0.4,1.1-0.8,1.6-1.3c0.6-0.6,1.1-1.3,1.5-1.9
		c0.4-0.6,0.6-1.2,0.8-1.9c0.1-0.2,0-0.4,0-0.6c-0.1-0.1-0.1-0.3-0.1-0.4c0-0.4,0.2-0.7,0.4-1c0.1-0.2,0.3-0.2,0.5-0.2
		c0.2,0,0.3,0.1,0.5,0.2c0.1,0,0.2,0.1,0.3,0c0.2-0.1,0.3,0,0.3,0.2c0.1,0.2,0.1,0.4,0.1,0.7c-0.3,0-0.5,0.2-0.7,0.4
		c-0.2,0.2-0.4,0.3-0.6,0.4c-0.1,0.1-0.2,0.1-0.3,0.1c-0.1,0.7-0.5,1.3-0.7,2c0.4-0.2,0.7-0.4,1-0.4c0.3,0,0.7,0,1,0
		c0.1-0.3,0.4-0.5,0.6-0.6c0.3-0.2,0.7-0.3,1.1-0.2c0.2,0.1,0.3,0.1,0.3,0.3c0,0.5-0.2,0.9-0.6,1.2c-0.2,0.2-0.5,0.4-0.8,0.3
		c-0.3,0-0.6-0.1-0.7-0.5c0-0.1-0.1-0.1-0.1-0.2c-0.4-0.1-0.8-0.1-1.2,0.1c-0.6,0.3-1.2,0.7-1.6,1.2c-0.4,0.6-0.9,1.1-1.4,1.6
		c-0.1,0.1-0.3,0.2-0.3,0.4c0.8-0.1,1.5-0.2,2.2-0.3c0.4-0.1,0.8-0.1,1.2-0.2c0.4,0,0.8-0.1,1.3-0.2c0.4-0.1,0.9-0.2,1.4-0.2
		c0.2,0,0.3-0.1,0.5-0.1c0.3-0.1,0.6-0.2,0.9-0.3c0.4-0.1,0.8-0.2,1.2-0.4c0.3-0.1,0.7-0.2,0.9-0.4c0,0,0.1-0.1,0.1-0.1
		c0.3,0,0.6-0.2,0.8-0.4c1-0.7,1.6-1.8,1.9-2.9c0-0.1,0-0.2-0.1-0.2c-0.1,0.1-0.3,0.2-0.4,0.3c-0.2,0.1-0.3,0.2-0.5,0.2
		c-0.5,0.1-0.9-0.1-1-0.6c-0.1-0.6-0.1-1.2,0.3-1.8c0.2-0.4,0.5-0.5,1-0.4c0.2,0,0.3,0.1,0.5,0.1c0.1-0.2,0.1-0.3,0.2-0.5
		c0.1-0.3,0.3-0.7,0.6-0.9c0.5-0.4,1.1-0.5,1.4,0.4c0.1,0.2,0.1,0.3,0,0.5c-0.1,0.2-0.1,0.5-0.2,0.7c0,0.1,0,0.2,0,0.2
		c0.3,0.1,0.6-0.1,0.8-0.1c0.4,0.3,0.5,0.5,0.2,1.2c-0.2,0.5-0.5,0.8-1,1c-0.4,0.2-0.8,0.2-1.2,0c-0.1,0-0.1-0.1-0.2-0.1
		c-0.1,0.3-0.3,0.5-0.4,0.8c-0.2,0.5-0.5,1-0.8,1.4c-0.1,0.1-0.1,0.1-0.1,0.2c0,0.1-0.1,0.1-0.1,0.2c0.5-0.1,0.9-0.3,1.3-0.5
		c1-0.6,2.1-1.1,3.2-1.7c0.3-0.1,0.5-0.3,0.8-0.5c0.5-0.3,0.9-0.6,1.3-1c0.2-0.2,0.4-0.4,0.6-0.5c0.3-0.2,0.5-0.4,0.7-0.7
		c-0.1-0.5-0.1-0.5,0.2-0.8c0-0.1,0-0.3-0.1-0.4c0-0.3,0.1-0.5,0.4-0.6c0.2-0.1,0.4-0.1,0.6-0.1c0.2,0,0.5,0,0.7,0.1
		c0.4,0.1,0.6,0.5,0.5,0.9c0,0.2-0.1,0.4-0.2,0.6c-0.2,0.2-0.4,0.5-0.6,0.8c0,0,0,0.1,0.1,0.1c0.3,0.2,0.3,0.4,0.2,0.7
		c-0.1,0.4-0.3,0.7-0.5,0.9c-0.2,0.3-0.5,0.5-0.9,0.6c-0.4,0-0.8,0-1-0.4c-0.1-0.2-0.3-0.5-0.4-0.8c-0.1,0-0.2,0.1-0.3,0.2
		c-0.4,0.2-0.7,0.5-1.1,0.8c-0.7,0.5-1.4,0.9-2.2,1.2c-0.1,0.1-0.3,0.1-0.4,0.2c-0.1,0-0.1,0.1-0.1,0.2c0.5,0.1,1,0.2,1.6,0.3
		c0.5,0.1,1,0.5,1.4,0.7c0.3-0.1,0.6-0.2,0.9-0.3c0.2-0.1,0.4-0.1,0.5,0c0.3,0.2,0.6,0.3,0.7,0.7c0,0.1,0.1,0.2,0.1,0.3
		c0.2,0.3,0.1,0.6-0.1,0.8c-0.4,0.4-0.9,0.6-1.4,0.7c-0.4,0-0.7-0.1-0.9-0.4c-0.3-0.3-0.3-0.9-0.1-1.2c0.1-0.1,0.1-0.2,0.2-0.3
		c-0.4-0.4-0.8-0.6-1.3-0.7c-0.6-0.1-1.2-0.2-1.8-0.1c-0.3,0-0.5,0-0.7-0.1c-0.5,0.3-1,0.6-1.6,0.8c-0.4,0.1-0.8,0.2-1.1,0.5
		c-0.1,0.1-0.2,0.1-0.3,0.1c-0.6,0.1-1.1,0.3-1.7,0.5c-0.1,0-0.2,0.1-0.4,0.1c-0.2,0.1-0.4,0.1-0.6,0.2c-0.2,0.1-0.4,0.1-0.6,0.2
		c-0.4,0.1-0.8,0.2-1.1,0.3c-0.1,0-0.1,0.1-0.2,0.2c0.3,0.1,0.5,0.2,0.7,0.2c0.9,0.2,1.7,0.5,2.4,1.1c0,0,0.1,0.1,0.1,0.1
		c0.6,0.5,1.4,0.9,1.9,1.6c0.1,0,0.3,0,0.4,0c0.2,0,0.5,0.1,0.7,0.2c0.2,0.1,0.4,0.3,0.6,0.4c0.2,0.1,0.3,0.3,0.4,0.5
		c0.1,0.1,0,0.2-0.1,0.4c-0.4,0.6-1,1-1.7,1c-0.6,0.1-1.1-0.4-1.1-1c0-0.4,0.1-0.7,0.3-1.1c0.1-0.1,0.1-0.2,0.2-0.2
		c-0.4-0.5-1.3-1.2-1.8-1.4c0.1,0.4,0.1,0.7,0.2,1.1c0.1,0.1,0.2,0.1,0.3,0.2c0,0.2,0,0.4,0,0.6c-0.1,0.7-0.6,1.2-1.2,1.4
		c-0.4,0.1-0.8-0.2-0.8-0.6c0-0.6,0.4-1.4,1.1-1.5c0.1,0,0.2,0,0.3-0.1c0-1-0.6-1.6-1.3-1.9c-0.4-0.2-0.9-0.3-1.3-0.4
		c-0.2,0-0.4-0.1-0.6-0.1c-0.3,0-0.5-0.1-0.7-0.2c-0.2,0.1-0.4,0.1-0.7,0.2c-0.3,0-0.7,0.1-1,0.1c-0.9,0.1-1.9,0.2-2.8,0.4
		c-0.3,0-0.6,0.1-0.9,0.3C98,68,97.8,68,97.7,68c-0.2-0.2-0.5-0.1-0.7-0.1c-0.6,0-1.3,0.1-1.9,0.1c-0.3,0-0.6,0-0.9,0
		c-0.1,0-0.2,0-0.2,0.1c0.1,0,0.1,0,0.2,0c0.5,0.1,0.9,0.2,1.3,0.5c0,0,0.1,0.1,0.1,0.1c0.6,0.3,1.2,0.7,1.7,1.1
		c0.2,0.2,0.5,0.4,0.7,0.6c0-0.1,0.1-0.1,0.1-0.2c0.2-0.4,0.5-0.6,0.8-0.7c0.5-0.2,0.9-0.1,1.4,0c0.4,0.1,0.5,0.5,0.3,0.9
		c-0.1,0.1-0.2,0.2-0.3,0.4c0.3,0.1,0.5,0.4,0.6,0.6c0.1,0.2,0.1,0.5,0,0.6c-0.4,0.4-0.8,0.7-1.4,0.7c-0.3,0-0.5,0-0.7-0.3
		c0-0.1-0.1-0.1-0.2-0.2c-0.3,0.3-0.6,0.5-1,0.7c-0.3,0.1-0.5,0.1-0.8,0c-0.3-0.1-0.5-0.3-0.5-0.6c0-0.2,0-0.3,0.1-0.5
		c0.3-0.4,0.6-0.8,1.1-0.9c0.1,0,0.2-0.1,0.3-0.1c-0.3-0.4-0.7-0.7-1.1-1c-0.5-0.4-1.1-0.7-1.6-1c-0.5-0.3-1.1-0.4-1.7-0.5
		c-0.2,0-0.5-0.1-0.5-0.4c-0.3,0-0.6,0-0.9,0c-0.6,0-1.2,0-1.8,0c-0.6,0-1.1-0.1-1.7-0.2c-0.1,0-0.2-0.1-0.2,0.1
		c0.2,0.1,0.4,0.3,0.6,0.4c0.4,0.3,0.7,0.7,0.9,1.1c0.4,0.6,0.7,1.2,0.8,2c0,0.1,0,0.2,0.1,0.3c0.1-0.1,0.1-0.2,0.2-0.2
		c0.2-0.2,0.4-0.3,0.7-0.2c0.3,0.1,0.5,0.3,0.7,0.5c0.1,0,0.2,0,0.3,0c0.2,0,0.4,0.3,0.3,0.5c-0.1,0.1-0.1,0.2-0.2,0.3
		c-0.2,0.1-0.4,0.2-0.5,0.2c-0.1,0-0.2,0.1-0.3,0.1c0,0.1,0,0.1,0,0.1c0.2,0.4,0.1,0.7-0.1,1c-0.2,0.4-0.6,0.6-1.1,0.8
		c-0.2,0.1-0.4,0-0.6-0.1c-0.3-0.2-0.4-0.5-0.4-0.9c0-0.3,0.1-0.6,0.4-0.7c0.2-0.1,0.3-0.2,0.4-0.3c-0.1-0.9-0.3-1.7-0.7-2.5
		c-0.2,0.5-0.3,1-0.5,1.4c0,0.1,0,0.1,0,0.2c0.2,0.4,0.1,0.8-0.3,1.2c-0.3,0.3-0.7,0.4-1.1,0.5c-0.3,0-0.6-0.2-0.7-0.5
		c-0.1-0.7,0.5-1.3,1.2-1.2c0.1,0,0.2,0,0.3,0c0.3-0.4,0.3-0.9,0.4-1.3c0.1-0.2,0-0.4-0.1-0.6c0,0,0-0.1,0-0.1
		c0-0.3-0.1-0.5-0.2-0.6c-0.4-0.4-0.8-0.8-1.4-0.9c-0.1,0-0.3-0.1-0.3-0.1c-0.1-0.1-0.2-0.2-0.2-0.3c-0.5-0.1-1-0.1-1.5-0.2
		c-0.5-0.1-0.9-0.1-1.4-0.2c-0.7-0.2-1.4-0.3-2.1-0.5c-0.4-0.1-0.8-0.2-1.2-0.3c0,0,0,0,0,0c0.2,0.4,0.5,0.7,0.7,1.1
		c0.2,0.4,0.3,0.9,0.4,1.3c0.1,0.4,0.1,0.9,0.2,1.3c0.1,0,0.3,0,0.4,0c0.1,0,0.2,0,0.3,0.1c0.2,0.2,0.3,0.7,0.2,0.9
		c-0.3,0.4-0.6,0.8-1.1,1c-0.5,0.2-1-0.3-1-0.7c0-0.4,0.2-0.6,0.5-0.8c0.1-0.1,0.3-0.2,0.5-0.3C82,70.6,81.9,70.4,81.9,70.2z
		 M109.7,70.8c-0.1-0.1-0.2-0.1-0.2-0.2c0,0-0.1,0-0.1,0c-0.3,0.4-0.3,0.8-0.1,1.2c0.1,0.2,0.2,0.3,0.4,0.3c0.6,0,1.1-0.2,1.5-0.7
		c0.2-0.2,0.1-0.6-0.2-0.6c-0.1,0-0.2-0.1-0.3-0.2c-0.2-0.3-0.5-0.3-0.9-0.3C109.8,70.6,109.8,70.6,109.7,70.8z M116.4,65.3
		c0,0-0.1,0-0.1,0c-0.2,0-0.3,0-0.4,0.1c-0.2,0.3-0.2,0.6,0,0.9c0.2,0.3,0.5,0.4,0.9,0.3c0.2-0.1,0.4-0.1,0.6-0.2
		c0.2-0.1,0.4-0.2,0.3-0.5c0-0.1,0-0.2,0-0.3c0-0.2,0-0.3-0.2-0.4c-0.1-0.1-0.2-0.2-0.3-0.4c0-0.1-0.1-0.1-0.2-0.1
		c-0.2,0-0.4,0.1-0.8,0.3C116.3,65.1,116.3,65.2,116.4,65.3z M110.9,60c-0.1-0.2-0.2-0.3-0.5-0.3c-0.5,0-0.7,0.2-0.8,0.7
		c-0.1,0.2-0.1,0.5-0.1,0.7c0,0.1,0,0.3,0.1,0.4c0.1,0.3,0.3,0.4,0.7,0.3c0.6-0.1,0.9-0.4,1-1.1C111.2,60.5,111,60.3,110.9,60z
		 M112.9,58.7c-0.1-0.3-0.4-0.5-0.7-0.3c-0.4,0.3-0.9,1-0.6,1.5c0.1,0.1,0.1,0.3,0.1,0.4c0,0.2,0.2,0.3,0.4,0.2
		c0.1-0.1,0.2-0.1,0.3-0.2C112.8,59.9,113.1,59.2,112.9,58.7z M117.8,61.4c-0.1,0-0.2,0-0.1,0.1c0.1,0.4,0.4,0.6,0.7,0.5
		c0.5-0.1,1.1-0.7,1.2-1.2c0-0.1,0-0.2-0.1-0.3c-0.1-0.1-0.2-0.2-0.4-0.2c-0.1,0-0.2,0-0.3,0c-0.5,0-0.8,0.2-0.9,0.8
		c0,0.1,0,0.1,0,0.2C117.9,61.3,117.9,61.3,117.8,61.4C117.8,61.4,117.8,61.4,117.8,61.4z M113.5,60.3c-0.5,0.1-0.9,0.4-1.3,0.8
		c-0.1,0.1-0.1,0.2-0.2,0.3c-0.1,0.2,0,0.5,0.3,0.6c0.2,0.1,0.5,0.1,0.7,0c0.2-0.1,0.5-0.3,0.6-0.5c0.3-0.3,0.4-0.7,0.2-1.1
		C113.7,60.3,113.6,60.3,113.5,60.3z M120.1,58.7c0-0.2-0.1-0.5-0.4-0.5c-0.3-0.1-0.7,0-1,0.1c-0.2,0.1-0.2,0.2-0.2,0.4
		c0.1,0.3,0.1,0.7,0.3,1c0.1,0.2,0.2,0.2,0.4,0.2c0.2,0,0.3-0.1,0.4-0.2C119.9,59.4,120.1,59.1,120.1,58.7z M82.9,62.3
		c-0.1,0.1-0.2,0.2-0.2,0.4c0,0.2,0,0.3,0.2,0.4c0.2,0.4,0.5,0.3,0.8,0.2c0.3-0.1,0.5-0.2,0.7-0.5c0.1-0.1,0.1-0.3,0-0.4
		c-0.1-0.1-0.2-0.3-0.3-0.5C83.6,62,83.2,62.1,82.9,62.3z M96.8,72.3c0,0.1,0,0.2-0.1,0.3c0,0.1,0.1,0.3,0.2,0.3c0.2,0,0.4,0,0.5,0
		c0.5-0.2,0.9-0.4,1.1-0.9c-0.2-0.2-0.4-0.3-0.5-0.5C97.4,71.5,97,71.8,96.8,72.3z M92.6,63.6c-0.5,0.2-1,0.4-1.2,1.1
		c0.3,0.4,0.7,0.5,1.1,0.2c0.4-0.2,0.4-0.3,0.5-0.7C93,64,92.9,63.7,92.6,63.6z M90.4,73.6c-0.3,0.4-0.3,0.7,0.1,1
		c0.1,0,0.2,0.1,0.2,0.1c0.3-0.1,0.6-0.2,0.8-0.5c0.1-0.2,0.1-0.4,0.1-0.6c-0.1-0.3-0.3-0.4-0.5-0.4c-0.2,0.1-0.4,0.2-0.5,0.2
		C90.5,73.5,90.4,73.6,90.4,73.6z M106.7,70.3c-0.2,0.3-0.4,0.5-0.4,0.9c0,0.4,0.2,0.6,0.6,0.4c0.4-0.1,0.7-0.6,0.7-1
		c0,0,0-0.1-0.1-0.1c-0.2-0.1-0.1-0.3-0.2-0.4C107.1,70.1,106.9,70.1,106.7,70.3z M99.6,69.9c-0.4,0-0.7,0.1-1,0.4
		c-0.2,0.3-0.1,0.6,0.2,0.7c0.1,0,0.1,0,0.2,0c0.5-0.1,1-0.2,1.3-0.7C100.1,70,99.8,69.9,99.6,69.9z M100.4,72.1
		c0.1-0.1,0.1-0.3,0-0.4c-0.1-0.1-0.3-0.3-0.4-0.4c-0.3,0-0.6,0-0.8,0.3C99,72,99,72.3,99.3,72.6C99.8,72.6,100.1,72.4,100.4,72.1z
		 M76.2,70.5c0.3-0.2,0.7-0.3,0.7-0.7c0-0.1,0-0.2,0-0.4c-0.1-0.1-0.2-0.1-0.2-0.1c-0.1,0-0.1,0-0.2-0.1c-0.1,0.1-0.2,0.2-0.3,0.3
		c-0.1,0-0.1-0.1-0.2-0.1c-0.2,0.1-0.3,0.2-0.4,0.4c-0.2,0.2-0.2,0.4-0.1,0.7C75.8,70.5,76,70.6,76.2,70.5z M74.4,68.9
		c-0.1,0.1-0.1,0.2,0,0.3c0.1,0.1,0.2,0.1,0.3,0.1c0.1,0,0.2,0,0.4-0.1c0.2-0.1,0.5-0.2,0.7-0.3c0.1-0.1,0.1-0.2,0.2-0.2
		c0.1-0.1,0-0.3-0.1-0.4c-0.4-0.1-0.7-0.1-1,0.1C74.7,68.6,74.6,68.7,74.4,68.9z M82.5,71c-0.3,0.1-0.7,0.2-0.9,0.4
		c-0.1,0.1-0.2,0.3-0.2,0.4c-0.1,0.2,0,0.3,0.1,0.4c0.1,0.1,0.3,0.1,0.4,0c0.4-0.2,0.7-0.5,0.9-1C82.7,71.2,82.6,71.1,82.5,71z
		 M104.1,63.7c-0.1,0.1-0.2,0.3-0.1,0.5c0.1,0.2,0.3,0.3,0.6,0.2c0.4-0.1,0.8-0.5,0.8-0.9c0-0.1-0.1-0.2-0.1-0.3
		C104.7,63.2,104.4,63.4,104.1,63.7z M91.8,72.8c0.3-0.1,0.6-0.1,0.8-0.5c-0.2-0.1-0.4-0.2-0.5-0.4c-0.4-0.3-0.8-0.2-0.9,0.3
		c0,0.1,0,0.2,0,0.3C91.3,72.7,91.5,72.7,91.8,72.8z M103.4,60.8c-0.1-0.2-0.4-0.3-0.6-0.4c-0.1,0-0.2,0-0.2,0.1
		c-0.3,0.2-0.4,0.5-0.4,0.8c0,0.2,0.2,0.2,0.4,0.3C103,61.5,103.3,61.2,103.4,60.8z M88.8,72.3c-0.2,0-0.5,0.1-0.6,0.2
		c-0.2,0.1-0.2,0.3-0.2,0.5c0,0.2,0.2,0.4,0.4,0.3c0.4-0.1,0.6-0.3,0.9-0.8C89,72.5,88.8,72.5,88.8,72.3z M77.8,68
		c-0.3-0.2-0.6-0.1-0.9,0c-0.2,0.1-0.3,0.3-0.3,0.5c0.4,0.5,0.6,0.4,1.2-0.1C77.8,68.3,77.8,68.1,77.8,68z M90.5,63
		c0.2-0.1,0.2-0.1,0.3-0.4c-0.5-0.2-0.8-0.2-1.1,0.2c-0.1,0.1-0.1,0.3,0.1,0.5C90.1,63.3,90.3,63.1,90.5,63z"/>
</g>
</svg>
